G75*
%MOIN*%
%OFA0B0*%
%FSLAX25Y25*%
%IPPOS*%
%LPD*%
%AMOC8*
5,1,8,0,0,1.08239X$1,22.5*
%
%ADD10C,0.00000*%
%ADD11C,0.00600*%
%ADD12C,0.01000*%
%ADD13C,0.00500*%
%ADD14C,0.00400*%
%ADD15R,0.02000X0.01500*%
%ADD16R,0.02500X0.05000*%
%ADD17R,0.01000X0.02000*%
%ADD18R,0.01500X0.02000*%
D10*
X0001000Y0001000D02*
X0001000Y0315961D01*
X0394701Y0315961D01*
X0394701Y0001000D01*
X0001000Y0001000D01*
D11*
X0093000Y0146000D02*
X0099000Y0146000D01*
X0099060Y0146002D01*
X0099121Y0146007D01*
X0099180Y0146016D01*
X0099239Y0146029D01*
X0099298Y0146045D01*
X0099355Y0146065D01*
X0099410Y0146088D01*
X0099465Y0146115D01*
X0099517Y0146144D01*
X0099568Y0146177D01*
X0099617Y0146213D01*
X0099663Y0146251D01*
X0099707Y0146293D01*
X0099749Y0146337D01*
X0099787Y0146383D01*
X0099823Y0146432D01*
X0099856Y0146483D01*
X0099885Y0146535D01*
X0099912Y0146590D01*
X0099935Y0146645D01*
X0099955Y0146702D01*
X0099971Y0146761D01*
X0099984Y0146820D01*
X0099993Y0146879D01*
X0099998Y0146940D01*
X0100000Y0147000D01*
X0100000Y0148500D01*
X0099500Y0149000D01*
X0099500Y0163000D01*
X0100000Y0163500D01*
X0100000Y0165000D01*
X0099998Y0165060D01*
X0099993Y0165121D01*
X0099984Y0165180D01*
X0099971Y0165239D01*
X0099955Y0165298D01*
X0099935Y0165355D01*
X0099912Y0165410D01*
X0099885Y0165465D01*
X0099856Y0165517D01*
X0099823Y0165568D01*
X0099787Y0165617D01*
X0099749Y0165663D01*
X0099707Y0165707D01*
X0099663Y0165749D01*
X0099617Y0165787D01*
X0099568Y0165823D01*
X0099517Y0165856D01*
X0099465Y0165885D01*
X0099410Y0165912D01*
X0099355Y0165935D01*
X0099298Y0165955D01*
X0099239Y0165971D01*
X0099180Y0165984D01*
X0099121Y0165993D01*
X0099060Y0165998D01*
X0099000Y0166000D01*
X0093000Y0166000D01*
X0092940Y0165998D01*
X0092879Y0165993D01*
X0092820Y0165984D01*
X0092761Y0165971D01*
X0092702Y0165955D01*
X0092645Y0165935D01*
X0092590Y0165912D01*
X0092535Y0165885D01*
X0092483Y0165856D01*
X0092432Y0165823D01*
X0092383Y0165787D01*
X0092337Y0165749D01*
X0092293Y0165707D01*
X0092251Y0165663D01*
X0092213Y0165617D01*
X0092177Y0165568D01*
X0092144Y0165517D01*
X0092115Y0165465D01*
X0092088Y0165410D01*
X0092065Y0165355D01*
X0092045Y0165298D01*
X0092029Y0165239D01*
X0092016Y0165180D01*
X0092007Y0165121D01*
X0092002Y0165060D01*
X0092000Y0165000D01*
X0092000Y0163500D01*
X0092500Y0163000D01*
X0092500Y0149000D01*
X0092000Y0148500D01*
X0092000Y0147000D01*
X0092002Y0146940D01*
X0092007Y0146879D01*
X0092016Y0146820D01*
X0092029Y0146761D01*
X0092045Y0146702D01*
X0092065Y0146645D01*
X0092088Y0146590D01*
X0092115Y0146535D01*
X0092144Y0146483D01*
X0092177Y0146432D01*
X0092213Y0146383D01*
X0092251Y0146337D01*
X0092293Y0146293D01*
X0092337Y0146251D01*
X0092383Y0146213D01*
X0092432Y0146177D01*
X0092483Y0146144D01*
X0092535Y0146115D01*
X0092590Y0146088D01*
X0092645Y0146065D01*
X0092702Y0146045D01*
X0092761Y0146029D01*
X0092820Y0146016D01*
X0092879Y0146007D01*
X0092940Y0146002D01*
X0093000Y0146000D01*
X0112000Y0147000D02*
X0112000Y0148500D01*
X0112500Y0149000D01*
X0112500Y0163000D01*
X0112000Y0163500D01*
X0112000Y0165000D01*
X0112002Y0165060D01*
X0112007Y0165121D01*
X0112016Y0165180D01*
X0112029Y0165239D01*
X0112045Y0165298D01*
X0112065Y0165355D01*
X0112088Y0165410D01*
X0112115Y0165465D01*
X0112144Y0165517D01*
X0112177Y0165568D01*
X0112213Y0165617D01*
X0112251Y0165663D01*
X0112293Y0165707D01*
X0112337Y0165749D01*
X0112383Y0165787D01*
X0112432Y0165823D01*
X0112483Y0165856D01*
X0112535Y0165885D01*
X0112590Y0165912D01*
X0112645Y0165935D01*
X0112702Y0165955D01*
X0112761Y0165971D01*
X0112820Y0165984D01*
X0112879Y0165993D01*
X0112940Y0165998D01*
X0113000Y0166000D01*
X0119000Y0166000D01*
X0119060Y0165998D01*
X0119121Y0165993D01*
X0119180Y0165984D01*
X0119239Y0165971D01*
X0119298Y0165955D01*
X0119355Y0165935D01*
X0119410Y0165912D01*
X0119465Y0165885D01*
X0119517Y0165856D01*
X0119568Y0165823D01*
X0119617Y0165787D01*
X0119663Y0165749D01*
X0119707Y0165707D01*
X0119749Y0165663D01*
X0119787Y0165617D01*
X0119823Y0165568D01*
X0119856Y0165517D01*
X0119885Y0165465D01*
X0119912Y0165410D01*
X0119935Y0165355D01*
X0119955Y0165298D01*
X0119971Y0165239D01*
X0119984Y0165180D01*
X0119993Y0165121D01*
X0119998Y0165060D01*
X0120000Y0165000D01*
X0120000Y0163500D01*
X0119500Y0163000D01*
X0119500Y0149000D01*
X0120000Y0148500D01*
X0120000Y0147000D01*
X0119998Y0146940D01*
X0119993Y0146879D01*
X0119984Y0146820D01*
X0119971Y0146761D01*
X0119955Y0146702D01*
X0119935Y0146645D01*
X0119912Y0146590D01*
X0119885Y0146535D01*
X0119856Y0146483D01*
X0119823Y0146432D01*
X0119787Y0146383D01*
X0119749Y0146337D01*
X0119707Y0146293D01*
X0119663Y0146251D01*
X0119617Y0146213D01*
X0119568Y0146177D01*
X0119517Y0146144D01*
X0119465Y0146115D01*
X0119410Y0146088D01*
X0119355Y0146065D01*
X0119298Y0146045D01*
X0119239Y0146029D01*
X0119180Y0146016D01*
X0119121Y0146007D01*
X0119060Y0146002D01*
X0119000Y0146000D01*
X0113000Y0146000D01*
X0112940Y0146002D01*
X0112879Y0146007D01*
X0112820Y0146016D01*
X0112761Y0146029D01*
X0112702Y0146045D01*
X0112645Y0146065D01*
X0112590Y0146088D01*
X0112535Y0146115D01*
X0112483Y0146144D01*
X0112432Y0146177D01*
X0112383Y0146213D01*
X0112337Y0146251D01*
X0112293Y0146293D01*
X0112251Y0146337D01*
X0112213Y0146383D01*
X0112177Y0146432D01*
X0112144Y0146483D01*
X0112115Y0146535D01*
X0112088Y0146590D01*
X0112065Y0146645D01*
X0112045Y0146702D01*
X0112029Y0146761D01*
X0112016Y0146820D01*
X0112007Y0146879D01*
X0112002Y0146940D01*
X0112000Y0147000D01*
X0132000Y0147000D02*
X0132000Y0148500D01*
X0132500Y0149000D01*
X0132500Y0163000D01*
X0132000Y0163500D01*
X0132000Y0165000D01*
X0132002Y0165060D01*
X0132007Y0165121D01*
X0132016Y0165180D01*
X0132029Y0165239D01*
X0132045Y0165298D01*
X0132065Y0165355D01*
X0132088Y0165410D01*
X0132115Y0165465D01*
X0132144Y0165517D01*
X0132177Y0165568D01*
X0132213Y0165617D01*
X0132251Y0165663D01*
X0132293Y0165707D01*
X0132337Y0165749D01*
X0132383Y0165787D01*
X0132432Y0165823D01*
X0132483Y0165856D01*
X0132535Y0165885D01*
X0132590Y0165912D01*
X0132645Y0165935D01*
X0132702Y0165955D01*
X0132761Y0165971D01*
X0132820Y0165984D01*
X0132879Y0165993D01*
X0132940Y0165998D01*
X0133000Y0166000D01*
X0139000Y0166000D01*
X0139060Y0165998D01*
X0139121Y0165993D01*
X0139180Y0165984D01*
X0139239Y0165971D01*
X0139298Y0165955D01*
X0139355Y0165935D01*
X0139410Y0165912D01*
X0139465Y0165885D01*
X0139517Y0165856D01*
X0139568Y0165823D01*
X0139617Y0165787D01*
X0139663Y0165749D01*
X0139707Y0165707D01*
X0139749Y0165663D01*
X0139787Y0165617D01*
X0139823Y0165568D01*
X0139856Y0165517D01*
X0139885Y0165465D01*
X0139912Y0165410D01*
X0139935Y0165355D01*
X0139955Y0165298D01*
X0139971Y0165239D01*
X0139984Y0165180D01*
X0139993Y0165121D01*
X0139998Y0165060D01*
X0140000Y0165000D01*
X0140000Y0163500D01*
X0139500Y0163000D01*
X0139500Y0149000D01*
X0140000Y0148500D01*
X0140000Y0147000D01*
X0139998Y0146940D01*
X0139993Y0146879D01*
X0139984Y0146820D01*
X0139971Y0146761D01*
X0139955Y0146702D01*
X0139935Y0146645D01*
X0139912Y0146590D01*
X0139885Y0146535D01*
X0139856Y0146483D01*
X0139823Y0146432D01*
X0139787Y0146383D01*
X0139749Y0146337D01*
X0139707Y0146293D01*
X0139663Y0146251D01*
X0139617Y0146213D01*
X0139568Y0146177D01*
X0139517Y0146144D01*
X0139465Y0146115D01*
X0139410Y0146088D01*
X0139355Y0146065D01*
X0139298Y0146045D01*
X0139239Y0146029D01*
X0139180Y0146016D01*
X0139121Y0146007D01*
X0139060Y0146002D01*
X0139000Y0146000D01*
X0133000Y0146000D01*
X0132940Y0146002D01*
X0132879Y0146007D01*
X0132820Y0146016D01*
X0132761Y0146029D01*
X0132702Y0146045D01*
X0132645Y0146065D01*
X0132590Y0146088D01*
X0132535Y0146115D01*
X0132483Y0146144D01*
X0132432Y0146177D01*
X0132383Y0146213D01*
X0132337Y0146251D01*
X0132293Y0146293D01*
X0132251Y0146337D01*
X0132213Y0146383D01*
X0132177Y0146432D01*
X0132144Y0146483D01*
X0132115Y0146535D01*
X0132088Y0146590D01*
X0132065Y0146645D01*
X0132045Y0146702D01*
X0132029Y0146761D01*
X0132016Y0146820D01*
X0132007Y0146879D01*
X0132002Y0146940D01*
X0132000Y0147000D01*
X0152000Y0147000D02*
X0152000Y0148500D01*
X0152500Y0149000D01*
X0152500Y0163000D01*
X0152000Y0163500D01*
X0152000Y0165000D01*
X0152002Y0165060D01*
X0152007Y0165121D01*
X0152016Y0165180D01*
X0152029Y0165239D01*
X0152045Y0165298D01*
X0152065Y0165355D01*
X0152088Y0165410D01*
X0152115Y0165465D01*
X0152144Y0165517D01*
X0152177Y0165568D01*
X0152213Y0165617D01*
X0152251Y0165663D01*
X0152293Y0165707D01*
X0152337Y0165749D01*
X0152383Y0165787D01*
X0152432Y0165823D01*
X0152483Y0165856D01*
X0152535Y0165885D01*
X0152590Y0165912D01*
X0152645Y0165935D01*
X0152702Y0165955D01*
X0152761Y0165971D01*
X0152820Y0165984D01*
X0152879Y0165993D01*
X0152940Y0165998D01*
X0153000Y0166000D01*
X0159000Y0166000D01*
X0159060Y0165998D01*
X0159121Y0165993D01*
X0159180Y0165984D01*
X0159239Y0165971D01*
X0159298Y0165955D01*
X0159355Y0165935D01*
X0159410Y0165912D01*
X0159465Y0165885D01*
X0159517Y0165856D01*
X0159568Y0165823D01*
X0159617Y0165787D01*
X0159663Y0165749D01*
X0159707Y0165707D01*
X0159749Y0165663D01*
X0159787Y0165617D01*
X0159823Y0165568D01*
X0159856Y0165517D01*
X0159885Y0165465D01*
X0159912Y0165410D01*
X0159935Y0165355D01*
X0159955Y0165298D01*
X0159971Y0165239D01*
X0159984Y0165180D01*
X0159993Y0165121D01*
X0159998Y0165060D01*
X0160000Y0165000D01*
X0160000Y0163500D01*
X0159500Y0163000D01*
X0159500Y0149000D01*
X0160000Y0148500D01*
X0160000Y0147000D01*
X0159998Y0146940D01*
X0159993Y0146879D01*
X0159984Y0146820D01*
X0159971Y0146761D01*
X0159955Y0146702D01*
X0159935Y0146645D01*
X0159912Y0146590D01*
X0159885Y0146535D01*
X0159856Y0146483D01*
X0159823Y0146432D01*
X0159787Y0146383D01*
X0159749Y0146337D01*
X0159707Y0146293D01*
X0159663Y0146251D01*
X0159617Y0146213D01*
X0159568Y0146177D01*
X0159517Y0146144D01*
X0159465Y0146115D01*
X0159410Y0146088D01*
X0159355Y0146065D01*
X0159298Y0146045D01*
X0159239Y0146029D01*
X0159180Y0146016D01*
X0159121Y0146007D01*
X0159060Y0146002D01*
X0159000Y0146000D01*
X0153000Y0146000D01*
X0152940Y0146002D01*
X0152879Y0146007D01*
X0152820Y0146016D01*
X0152761Y0146029D01*
X0152702Y0146045D01*
X0152645Y0146065D01*
X0152590Y0146088D01*
X0152535Y0146115D01*
X0152483Y0146144D01*
X0152432Y0146177D01*
X0152383Y0146213D01*
X0152337Y0146251D01*
X0152293Y0146293D01*
X0152251Y0146337D01*
X0152213Y0146383D01*
X0152177Y0146432D01*
X0152144Y0146483D01*
X0152115Y0146535D01*
X0152088Y0146590D01*
X0152065Y0146645D01*
X0152045Y0146702D01*
X0152029Y0146761D01*
X0152016Y0146820D01*
X0152007Y0146879D01*
X0152002Y0146940D01*
X0152000Y0147000D01*
X0177000Y0147000D02*
X0177000Y0148500D01*
X0177500Y0149000D01*
X0177500Y0163000D01*
X0177000Y0163500D01*
X0177000Y0165000D01*
X0177002Y0165060D01*
X0177007Y0165121D01*
X0177016Y0165180D01*
X0177029Y0165239D01*
X0177045Y0165298D01*
X0177065Y0165355D01*
X0177088Y0165410D01*
X0177115Y0165465D01*
X0177144Y0165517D01*
X0177177Y0165568D01*
X0177213Y0165617D01*
X0177251Y0165663D01*
X0177293Y0165707D01*
X0177337Y0165749D01*
X0177383Y0165787D01*
X0177432Y0165823D01*
X0177483Y0165856D01*
X0177535Y0165885D01*
X0177590Y0165912D01*
X0177645Y0165935D01*
X0177702Y0165955D01*
X0177761Y0165971D01*
X0177820Y0165984D01*
X0177879Y0165993D01*
X0177940Y0165998D01*
X0178000Y0166000D01*
X0184000Y0166000D01*
X0184060Y0165998D01*
X0184121Y0165993D01*
X0184180Y0165984D01*
X0184239Y0165971D01*
X0184298Y0165955D01*
X0184355Y0165935D01*
X0184410Y0165912D01*
X0184465Y0165885D01*
X0184517Y0165856D01*
X0184568Y0165823D01*
X0184617Y0165787D01*
X0184663Y0165749D01*
X0184707Y0165707D01*
X0184749Y0165663D01*
X0184787Y0165617D01*
X0184823Y0165568D01*
X0184856Y0165517D01*
X0184885Y0165465D01*
X0184912Y0165410D01*
X0184935Y0165355D01*
X0184955Y0165298D01*
X0184971Y0165239D01*
X0184984Y0165180D01*
X0184993Y0165121D01*
X0184998Y0165060D01*
X0185000Y0165000D01*
X0185000Y0163500D01*
X0184500Y0163000D01*
X0184500Y0149000D01*
X0185000Y0148500D01*
X0185000Y0147000D01*
X0184998Y0146940D01*
X0184993Y0146879D01*
X0184984Y0146820D01*
X0184971Y0146761D01*
X0184955Y0146702D01*
X0184935Y0146645D01*
X0184912Y0146590D01*
X0184885Y0146535D01*
X0184856Y0146483D01*
X0184823Y0146432D01*
X0184787Y0146383D01*
X0184749Y0146337D01*
X0184707Y0146293D01*
X0184663Y0146251D01*
X0184617Y0146213D01*
X0184568Y0146177D01*
X0184517Y0146144D01*
X0184465Y0146115D01*
X0184410Y0146088D01*
X0184355Y0146065D01*
X0184298Y0146045D01*
X0184239Y0146029D01*
X0184180Y0146016D01*
X0184121Y0146007D01*
X0184060Y0146002D01*
X0184000Y0146000D01*
X0178000Y0146000D01*
X0177940Y0146002D01*
X0177879Y0146007D01*
X0177820Y0146016D01*
X0177761Y0146029D01*
X0177702Y0146045D01*
X0177645Y0146065D01*
X0177590Y0146088D01*
X0177535Y0146115D01*
X0177483Y0146144D01*
X0177432Y0146177D01*
X0177383Y0146213D01*
X0177337Y0146251D01*
X0177293Y0146293D01*
X0177251Y0146337D01*
X0177213Y0146383D01*
X0177177Y0146432D01*
X0177144Y0146483D01*
X0177115Y0146535D01*
X0177088Y0146590D01*
X0177065Y0146645D01*
X0177045Y0146702D01*
X0177029Y0146761D01*
X0177016Y0146820D01*
X0177007Y0146879D01*
X0177002Y0146940D01*
X0177000Y0147000D01*
X0197000Y0147000D02*
X0197000Y0148500D01*
X0197500Y0149000D01*
X0197500Y0163000D01*
X0197000Y0163500D01*
X0197000Y0165000D01*
X0197002Y0165060D01*
X0197007Y0165121D01*
X0197016Y0165180D01*
X0197029Y0165239D01*
X0197045Y0165298D01*
X0197065Y0165355D01*
X0197088Y0165410D01*
X0197115Y0165465D01*
X0197144Y0165517D01*
X0197177Y0165568D01*
X0197213Y0165617D01*
X0197251Y0165663D01*
X0197293Y0165707D01*
X0197337Y0165749D01*
X0197383Y0165787D01*
X0197432Y0165823D01*
X0197483Y0165856D01*
X0197535Y0165885D01*
X0197590Y0165912D01*
X0197645Y0165935D01*
X0197702Y0165955D01*
X0197761Y0165971D01*
X0197820Y0165984D01*
X0197879Y0165993D01*
X0197940Y0165998D01*
X0198000Y0166000D01*
X0204000Y0166000D01*
X0204060Y0165998D01*
X0204121Y0165993D01*
X0204180Y0165984D01*
X0204239Y0165971D01*
X0204298Y0165955D01*
X0204355Y0165935D01*
X0204410Y0165912D01*
X0204465Y0165885D01*
X0204517Y0165856D01*
X0204568Y0165823D01*
X0204617Y0165787D01*
X0204663Y0165749D01*
X0204707Y0165707D01*
X0204749Y0165663D01*
X0204787Y0165617D01*
X0204823Y0165568D01*
X0204856Y0165517D01*
X0204885Y0165465D01*
X0204912Y0165410D01*
X0204935Y0165355D01*
X0204955Y0165298D01*
X0204971Y0165239D01*
X0204984Y0165180D01*
X0204993Y0165121D01*
X0204998Y0165060D01*
X0205000Y0165000D01*
X0205000Y0163500D01*
X0204500Y0163000D01*
X0204500Y0149000D01*
X0205000Y0148500D01*
X0205000Y0147000D01*
X0204998Y0146940D01*
X0204993Y0146879D01*
X0204984Y0146820D01*
X0204971Y0146761D01*
X0204955Y0146702D01*
X0204935Y0146645D01*
X0204912Y0146590D01*
X0204885Y0146535D01*
X0204856Y0146483D01*
X0204823Y0146432D01*
X0204787Y0146383D01*
X0204749Y0146337D01*
X0204707Y0146293D01*
X0204663Y0146251D01*
X0204617Y0146213D01*
X0204568Y0146177D01*
X0204517Y0146144D01*
X0204465Y0146115D01*
X0204410Y0146088D01*
X0204355Y0146065D01*
X0204298Y0146045D01*
X0204239Y0146029D01*
X0204180Y0146016D01*
X0204121Y0146007D01*
X0204060Y0146002D01*
X0204000Y0146000D01*
X0198000Y0146000D01*
X0197940Y0146002D01*
X0197879Y0146007D01*
X0197820Y0146016D01*
X0197761Y0146029D01*
X0197702Y0146045D01*
X0197645Y0146065D01*
X0197590Y0146088D01*
X0197535Y0146115D01*
X0197483Y0146144D01*
X0197432Y0146177D01*
X0197383Y0146213D01*
X0197337Y0146251D01*
X0197293Y0146293D01*
X0197251Y0146337D01*
X0197213Y0146383D01*
X0197177Y0146432D01*
X0197144Y0146483D01*
X0197115Y0146535D01*
X0197088Y0146590D01*
X0197065Y0146645D01*
X0197045Y0146702D01*
X0197029Y0146761D01*
X0197016Y0146820D01*
X0197007Y0146879D01*
X0197002Y0146940D01*
X0197000Y0147000D01*
X0212000Y0147000D02*
X0212000Y0148500D01*
X0212500Y0149000D01*
X0212500Y0163000D01*
X0212000Y0163500D01*
X0212000Y0165000D01*
X0212002Y0165060D01*
X0212007Y0165121D01*
X0212016Y0165180D01*
X0212029Y0165239D01*
X0212045Y0165298D01*
X0212065Y0165355D01*
X0212088Y0165410D01*
X0212115Y0165465D01*
X0212144Y0165517D01*
X0212177Y0165568D01*
X0212213Y0165617D01*
X0212251Y0165663D01*
X0212293Y0165707D01*
X0212337Y0165749D01*
X0212383Y0165787D01*
X0212432Y0165823D01*
X0212483Y0165856D01*
X0212535Y0165885D01*
X0212590Y0165912D01*
X0212645Y0165935D01*
X0212702Y0165955D01*
X0212761Y0165971D01*
X0212820Y0165984D01*
X0212879Y0165993D01*
X0212940Y0165998D01*
X0213000Y0166000D01*
X0219000Y0166000D01*
X0219060Y0165998D01*
X0219121Y0165993D01*
X0219180Y0165984D01*
X0219239Y0165971D01*
X0219298Y0165955D01*
X0219355Y0165935D01*
X0219410Y0165912D01*
X0219465Y0165885D01*
X0219517Y0165856D01*
X0219568Y0165823D01*
X0219617Y0165787D01*
X0219663Y0165749D01*
X0219707Y0165707D01*
X0219749Y0165663D01*
X0219787Y0165617D01*
X0219823Y0165568D01*
X0219856Y0165517D01*
X0219885Y0165465D01*
X0219912Y0165410D01*
X0219935Y0165355D01*
X0219955Y0165298D01*
X0219971Y0165239D01*
X0219984Y0165180D01*
X0219993Y0165121D01*
X0219998Y0165060D01*
X0220000Y0165000D01*
X0220000Y0163500D01*
X0219500Y0163000D01*
X0219500Y0149000D01*
X0220000Y0148500D01*
X0220000Y0147000D01*
X0219998Y0146940D01*
X0219993Y0146879D01*
X0219984Y0146820D01*
X0219971Y0146761D01*
X0219955Y0146702D01*
X0219935Y0146645D01*
X0219912Y0146590D01*
X0219885Y0146535D01*
X0219856Y0146483D01*
X0219823Y0146432D01*
X0219787Y0146383D01*
X0219749Y0146337D01*
X0219707Y0146293D01*
X0219663Y0146251D01*
X0219617Y0146213D01*
X0219568Y0146177D01*
X0219517Y0146144D01*
X0219465Y0146115D01*
X0219410Y0146088D01*
X0219355Y0146065D01*
X0219298Y0146045D01*
X0219239Y0146029D01*
X0219180Y0146016D01*
X0219121Y0146007D01*
X0219060Y0146002D01*
X0219000Y0146000D01*
X0213000Y0146000D01*
X0212940Y0146002D01*
X0212879Y0146007D01*
X0212820Y0146016D01*
X0212761Y0146029D01*
X0212702Y0146045D01*
X0212645Y0146065D01*
X0212590Y0146088D01*
X0212535Y0146115D01*
X0212483Y0146144D01*
X0212432Y0146177D01*
X0212383Y0146213D01*
X0212337Y0146251D01*
X0212293Y0146293D01*
X0212251Y0146337D01*
X0212213Y0146383D01*
X0212177Y0146432D01*
X0212144Y0146483D01*
X0212115Y0146535D01*
X0212088Y0146590D01*
X0212065Y0146645D01*
X0212045Y0146702D01*
X0212029Y0146761D01*
X0212016Y0146820D01*
X0212007Y0146879D01*
X0212002Y0146940D01*
X0212000Y0147000D01*
X0232000Y0147000D02*
X0232000Y0148500D01*
X0232500Y0149000D01*
X0232500Y0163000D01*
X0232000Y0163500D01*
X0232000Y0165000D01*
X0232002Y0165060D01*
X0232007Y0165121D01*
X0232016Y0165180D01*
X0232029Y0165239D01*
X0232045Y0165298D01*
X0232065Y0165355D01*
X0232088Y0165410D01*
X0232115Y0165465D01*
X0232144Y0165517D01*
X0232177Y0165568D01*
X0232213Y0165617D01*
X0232251Y0165663D01*
X0232293Y0165707D01*
X0232337Y0165749D01*
X0232383Y0165787D01*
X0232432Y0165823D01*
X0232483Y0165856D01*
X0232535Y0165885D01*
X0232590Y0165912D01*
X0232645Y0165935D01*
X0232702Y0165955D01*
X0232761Y0165971D01*
X0232820Y0165984D01*
X0232879Y0165993D01*
X0232940Y0165998D01*
X0233000Y0166000D01*
X0239000Y0166000D01*
X0239060Y0165998D01*
X0239121Y0165993D01*
X0239180Y0165984D01*
X0239239Y0165971D01*
X0239298Y0165955D01*
X0239355Y0165935D01*
X0239410Y0165912D01*
X0239465Y0165885D01*
X0239517Y0165856D01*
X0239568Y0165823D01*
X0239617Y0165787D01*
X0239663Y0165749D01*
X0239707Y0165707D01*
X0239749Y0165663D01*
X0239787Y0165617D01*
X0239823Y0165568D01*
X0239856Y0165517D01*
X0239885Y0165465D01*
X0239912Y0165410D01*
X0239935Y0165355D01*
X0239955Y0165298D01*
X0239971Y0165239D01*
X0239984Y0165180D01*
X0239993Y0165121D01*
X0239998Y0165060D01*
X0240000Y0165000D01*
X0240000Y0163500D01*
X0239500Y0163000D01*
X0239500Y0149000D01*
X0240000Y0148500D01*
X0240000Y0147000D01*
X0239998Y0146940D01*
X0239993Y0146879D01*
X0239984Y0146820D01*
X0239971Y0146761D01*
X0239955Y0146702D01*
X0239935Y0146645D01*
X0239912Y0146590D01*
X0239885Y0146535D01*
X0239856Y0146483D01*
X0239823Y0146432D01*
X0239787Y0146383D01*
X0239749Y0146337D01*
X0239707Y0146293D01*
X0239663Y0146251D01*
X0239617Y0146213D01*
X0239568Y0146177D01*
X0239517Y0146144D01*
X0239465Y0146115D01*
X0239410Y0146088D01*
X0239355Y0146065D01*
X0239298Y0146045D01*
X0239239Y0146029D01*
X0239180Y0146016D01*
X0239121Y0146007D01*
X0239060Y0146002D01*
X0239000Y0146000D01*
X0233000Y0146000D01*
X0232940Y0146002D01*
X0232879Y0146007D01*
X0232820Y0146016D01*
X0232761Y0146029D01*
X0232702Y0146045D01*
X0232645Y0146065D01*
X0232590Y0146088D01*
X0232535Y0146115D01*
X0232483Y0146144D01*
X0232432Y0146177D01*
X0232383Y0146213D01*
X0232337Y0146251D01*
X0232293Y0146293D01*
X0232251Y0146337D01*
X0232213Y0146383D01*
X0232177Y0146432D01*
X0232144Y0146483D01*
X0232115Y0146535D01*
X0232088Y0146590D01*
X0232065Y0146645D01*
X0232045Y0146702D01*
X0232029Y0146761D01*
X0232016Y0146820D01*
X0232007Y0146879D01*
X0232002Y0146940D01*
X0232000Y0147000D01*
X0231000Y0189500D02*
X0191000Y0189500D01*
X0191000Y0212500D01*
X0231000Y0212500D01*
X0231000Y0205000D01*
X0230874Y0204998D01*
X0230749Y0204992D01*
X0230624Y0204982D01*
X0230499Y0204968D01*
X0230374Y0204951D01*
X0230250Y0204929D01*
X0230127Y0204904D01*
X0230005Y0204874D01*
X0229884Y0204841D01*
X0229764Y0204804D01*
X0229645Y0204764D01*
X0229528Y0204719D01*
X0229411Y0204671D01*
X0229297Y0204619D01*
X0229184Y0204564D01*
X0229073Y0204505D01*
X0228964Y0204443D01*
X0228857Y0204377D01*
X0228752Y0204308D01*
X0228649Y0204236D01*
X0228548Y0204161D01*
X0228450Y0204082D01*
X0228355Y0204000D01*
X0228262Y0203916D01*
X0228172Y0203828D01*
X0228084Y0203738D01*
X0228000Y0203645D01*
X0227918Y0203550D01*
X0227839Y0203452D01*
X0227764Y0203351D01*
X0227692Y0203248D01*
X0227623Y0203143D01*
X0227557Y0203036D01*
X0227495Y0202927D01*
X0227436Y0202816D01*
X0227381Y0202703D01*
X0227329Y0202589D01*
X0227281Y0202472D01*
X0227236Y0202355D01*
X0227196Y0202236D01*
X0227159Y0202116D01*
X0227126Y0201995D01*
X0227096Y0201873D01*
X0227071Y0201750D01*
X0227049Y0201626D01*
X0227032Y0201501D01*
X0227018Y0201376D01*
X0227008Y0201251D01*
X0227002Y0201126D01*
X0227000Y0201000D01*
X0227002Y0200874D01*
X0227008Y0200749D01*
X0227018Y0200624D01*
X0227032Y0200499D01*
X0227049Y0200374D01*
X0227071Y0200250D01*
X0227096Y0200127D01*
X0227126Y0200005D01*
X0227159Y0199884D01*
X0227196Y0199764D01*
X0227236Y0199645D01*
X0227281Y0199528D01*
X0227329Y0199411D01*
X0227381Y0199297D01*
X0227436Y0199184D01*
X0227495Y0199073D01*
X0227557Y0198964D01*
X0227623Y0198857D01*
X0227692Y0198752D01*
X0227764Y0198649D01*
X0227839Y0198548D01*
X0227918Y0198450D01*
X0228000Y0198355D01*
X0228084Y0198262D01*
X0228172Y0198172D01*
X0228262Y0198084D01*
X0228355Y0198000D01*
X0228450Y0197918D01*
X0228548Y0197839D01*
X0228649Y0197764D01*
X0228752Y0197692D01*
X0228857Y0197623D01*
X0228964Y0197557D01*
X0229073Y0197495D01*
X0229184Y0197436D01*
X0229297Y0197381D01*
X0229411Y0197329D01*
X0229528Y0197281D01*
X0229645Y0197236D01*
X0229764Y0197196D01*
X0229884Y0197159D01*
X0230005Y0197126D01*
X0230127Y0197096D01*
X0230250Y0197071D01*
X0230374Y0197049D01*
X0230499Y0197032D01*
X0230624Y0197018D01*
X0230749Y0197008D01*
X0230874Y0197002D01*
X0231000Y0197000D01*
X0231000Y0189500D01*
X0219500Y0225000D02*
X0202500Y0225000D01*
X0202440Y0225002D01*
X0202379Y0225007D01*
X0202320Y0225016D01*
X0202261Y0225029D01*
X0202202Y0225045D01*
X0202145Y0225065D01*
X0202090Y0225088D01*
X0202035Y0225115D01*
X0201983Y0225144D01*
X0201932Y0225177D01*
X0201883Y0225213D01*
X0201837Y0225251D01*
X0201793Y0225293D01*
X0201751Y0225337D01*
X0201713Y0225383D01*
X0201677Y0225432D01*
X0201644Y0225483D01*
X0201615Y0225535D01*
X0201588Y0225590D01*
X0201565Y0225645D01*
X0201545Y0225702D01*
X0201529Y0225761D01*
X0201516Y0225820D01*
X0201507Y0225879D01*
X0201502Y0225940D01*
X0201500Y0226000D01*
X0201500Y0236000D01*
X0201502Y0236060D01*
X0201507Y0236121D01*
X0201516Y0236180D01*
X0201529Y0236239D01*
X0201545Y0236298D01*
X0201565Y0236355D01*
X0201588Y0236410D01*
X0201615Y0236465D01*
X0201644Y0236517D01*
X0201677Y0236568D01*
X0201713Y0236617D01*
X0201751Y0236663D01*
X0201793Y0236707D01*
X0201837Y0236749D01*
X0201883Y0236787D01*
X0201932Y0236823D01*
X0201983Y0236856D01*
X0202035Y0236885D01*
X0202090Y0236912D01*
X0202145Y0236935D01*
X0202202Y0236955D01*
X0202261Y0236971D01*
X0202320Y0236984D01*
X0202379Y0236993D01*
X0202440Y0236998D01*
X0202500Y0237000D01*
X0219500Y0237000D01*
X0219560Y0236998D01*
X0219621Y0236993D01*
X0219680Y0236984D01*
X0219739Y0236971D01*
X0219798Y0236955D01*
X0219855Y0236935D01*
X0219910Y0236912D01*
X0219965Y0236885D01*
X0220017Y0236856D01*
X0220068Y0236823D01*
X0220117Y0236787D01*
X0220163Y0236749D01*
X0220207Y0236707D01*
X0220249Y0236663D01*
X0220287Y0236617D01*
X0220323Y0236568D01*
X0220356Y0236517D01*
X0220385Y0236465D01*
X0220412Y0236410D01*
X0220435Y0236355D01*
X0220455Y0236298D01*
X0220471Y0236239D01*
X0220484Y0236180D01*
X0220493Y0236121D01*
X0220498Y0236060D01*
X0220500Y0236000D01*
X0220500Y0226000D01*
X0220498Y0225940D01*
X0220493Y0225879D01*
X0220484Y0225820D01*
X0220471Y0225761D01*
X0220455Y0225702D01*
X0220435Y0225645D01*
X0220412Y0225590D01*
X0220385Y0225535D01*
X0220356Y0225483D01*
X0220323Y0225432D01*
X0220287Y0225383D01*
X0220249Y0225337D01*
X0220207Y0225293D01*
X0220163Y0225251D01*
X0220117Y0225213D01*
X0220068Y0225177D01*
X0220017Y0225144D01*
X0219965Y0225115D01*
X0219910Y0225088D01*
X0219855Y0225065D01*
X0219798Y0225045D01*
X0219739Y0225029D01*
X0219680Y0225016D01*
X0219621Y0225007D01*
X0219560Y0225002D01*
X0219500Y0225000D01*
X0212500Y0231000D02*
X0212000Y0231000D01*
X0210000Y0231000D02*
X0209500Y0231000D01*
X0190500Y0236000D02*
X0190500Y0226000D01*
X0190498Y0225940D01*
X0190493Y0225879D01*
X0190484Y0225820D01*
X0190471Y0225761D01*
X0190455Y0225702D01*
X0190435Y0225645D01*
X0190412Y0225590D01*
X0190385Y0225535D01*
X0190356Y0225483D01*
X0190323Y0225432D01*
X0190287Y0225383D01*
X0190249Y0225337D01*
X0190207Y0225293D01*
X0190163Y0225251D01*
X0190117Y0225213D01*
X0190068Y0225177D01*
X0190017Y0225144D01*
X0189965Y0225115D01*
X0189910Y0225088D01*
X0189855Y0225065D01*
X0189798Y0225045D01*
X0189739Y0225029D01*
X0189680Y0225016D01*
X0189621Y0225007D01*
X0189560Y0225002D01*
X0189500Y0225000D01*
X0172500Y0225000D01*
X0172440Y0225002D01*
X0172379Y0225007D01*
X0172320Y0225016D01*
X0172261Y0225029D01*
X0172202Y0225045D01*
X0172145Y0225065D01*
X0172090Y0225088D01*
X0172035Y0225115D01*
X0171983Y0225144D01*
X0171932Y0225177D01*
X0171883Y0225213D01*
X0171837Y0225251D01*
X0171793Y0225293D01*
X0171751Y0225337D01*
X0171713Y0225383D01*
X0171677Y0225432D01*
X0171644Y0225483D01*
X0171615Y0225535D01*
X0171588Y0225590D01*
X0171565Y0225645D01*
X0171545Y0225702D01*
X0171529Y0225761D01*
X0171516Y0225820D01*
X0171507Y0225879D01*
X0171502Y0225940D01*
X0171500Y0226000D01*
X0171500Y0236000D01*
X0171502Y0236060D01*
X0171507Y0236121D01*
X0171516Y0236180D01*
X0171529Y0236239D01*
X0171545Y0236298D01*
X0171565Y0236355D01*
X0171588Y0236410D01*
X0171615Y0236465D01*
X0171644Y0236517D01*
X0171677Y0236568D01*
X0171713Y0236617D01*
X0171751Y0236663D01*
X0171793Y0236707D01*
X0171837Y0236749D01*
X0171883Y0236787D01*
X0171932Y0236823D01*
X0171983Y0236856D01*
X0172035Y0236885D01*
X0172090Y0236912D01*
X0172145Y0236935D01*
X0172202Y0236955D01*
X0172261Y0236971D01*
X0172320Y0236984D01*
X0172379Y0236993D01*
X0172440Y0236998D01*
X0172500Y0237000D01*
X0189500Y0237000D01*
X0189560Y0236998D01*
X0189621Y0236993D01*
X0189680Y0236984D01*
X0189739Y0236971D01*
X0189798Y0236955D01*
X0189855Y0236935D01*
X0189910Y0236912D01*
X0189965Y0236885D01*
X0190017Y0236856D01*
X0190068Y0236823D01*
X0190117Y0236787D01*
X0190163Y0236749D01*
X0190207Y0236707D01*
X0190249Y0236663D01*
X0190287Y0236617D01*
X0190323Y0236568D01*
X0190356Y0236517D01*
X0190385Y0236465D01*
X0190412Y0236410D01*
X0190435Y0236355D01*
X0190455Y0236298D01*
X0190471Y0236239D01*
X0190484Y0236180D01*
X0190493Y0236121D01*
X0190498Y0236060D01*
X0190500Y0236000D01*
X0182500Y0231000D02*
X0182000Y0231000D01*
X0180000Y0231000D02*
X0179500Y0231000D01*
X0177500Y0221000D02*
X0170000Y0221000D01*
X0169998Y0220874D01*
X0169992Y0220749D01*
X0169982Y0220624D01*
X0169968Y0220499D01*
X0169951Y0220374D01*
X0169929Y0220250D01*
X0169904Y0220127D01*
X0169874Y0220005D01*
X0169841Y0219884D01*
X0169804Y0219764D01*
X0169764Y0219645D01*
X0169719Y0219528D01*
X0169671Y0219411D01*
X0169619Y0219297D01*
X0169564Y0219184D01*
X0169505Y0219073D01*
X0169443Y0218964D01*
X0169377Y0218857D01*
X0169308Y0218752D01*
X0169236Y0218649D01*
X0169161Y0218548D01*
X0169082Y0218450D01*
X0169000Y0218355D01*
X0168916Y0218262D01*
X0168828Y0218172D01*
X0168738Y0218084D01*
X0168645Y0218000D01*
X0168550Y0217918D01*
X0168452Y0217839D01*
X0168351Y0217764D01*
X0168248Y0217692D01*
X0168143Y0217623D01*
X0168036Y0217557D01*
X0167927Y0217495D01*
X0167816Y0217436D01*
X0167703Y0217381D01*
X0167589Y0217329D01*
X0167472Y0217281D01*
X0167355Y0217236D01*
X0167236Y0217196D01*
X0167116Y0217159D01*
X0166995Y0217126D01*
X0166873Y0217096D01*
X0166750Y0217071D01*
X0166626Y0217049D01*
X0166501Y0217032D01*
X0166376Y0217018D01*
X0166251Y0217008D01*
X0166126Y0217002D01*
X0166000Y0217000D01*
X0165874Y0217002D01*
X0165749Y0217008D01*
X0165624Y0217018D01*
X0165499Y0217032D01*
X0165374Y0217049D01*
X0165250Y0217071D01*
X0165127Y0217096D01*
X0165005Y0217126D01*
X0164884Y0217159D01*
X0164764Y0217196D01*
X0164645Y0217236D01*
X0164528Y0217281D01*
X0164411Y0217329D01*
X0164297Y0217381D01*
X0164184Y0217436D01*
X0164073Y0217495D01*
X0163964Y0217557D01*
X0163857Y0217623D01*
X0163752Y0217692D01*
X0163649Y0217764D01*
X0163548Y0217839D01*
X0163450Y0217918D01*
X0163355Y0218000D01*
X0163262Y0218084D01*
X0163172Y0218172D01*
X0163084Y0218262D01*
X0163000Y0218355D01*
X0162918Y0218450D01*
X0162839Y0218548D01*
X0162764Y0218649D01*
X0162692Y0218752D01*
X0162623Y0218857D01*
X0162557Y0218964D01*
X0162495Y0219073D01*
X0162436Y0219184D01*
X0162381Y0219297D01*
X0162329Y0219411D01*
X0162281Y0219528D01*
X0162236Y0219645D01*
X0162196Y0219764D01*
X0162159Y0219884D01*
X0162126Y0220005D01*
X0162096Y0220127D01*
X0162071Y0220250D01*
X0162049Y0220374D01*
X0162032Y0220499D01*
X0162018Y0220624D01*
X0162008Y0220749D01*
X0162002Y0220874D01*
X0162000Y0221000D01*
X0154500Y0221000D01*
X0154500Y0181000D01*
X0177500Y0181000D01*
X0177500Y0221000D01*
X0155000Y0237000D02*
X0155000Y0238500D01*
X0154500Y0239000D01*
X0154500Y0253000D01*
X0155000Y0253500D01*
X0155000Y0255000D01*
X0154998Y0255060D01*
X0154993Y0255121D01*
X0154984Y0255180D01*
X0154971Y0255239D01*
X0154955Y0255298D01*
X0154935Y0255355D01*
X0154912Y0255410D01*
X0154885Y0255465D01*
X0154856Y0255517D01*
X0154823Y0255568D01*
X0154787Y0255617D01*
X0154749Y0255663D01*
X0154707Y0255707D01*
X0154663Y0255749D01*
X0154617Y0255787D01*
X0154568Y0255823D01*
X0154517Y0255856D01*
X0154465Y0255885D01*
X0154410Y0255912D01*
X0154355Y0255935D01*
X0154298Y0255955D01*
X0154239Y0255971D01*
X0154180Y0255984D01*
X0154121Y0255993D01*
X0154060Y0255998D01*
X0154000Y0256000D01*
X0148000Y0256000D01*
X0147940Y0255998D01*
X0147879Y0255993D01*
X0147820Y0255984D01*
X0147761Y0255971D01*
X0147702Y0255955D01*
X0147645Y0255935D01*
X0147590Y0255912D01*
X0147535Y0255885D01*
X0147483Y0255856D01*
X0147432Y0255823D01*
X0147383Y0255787D01*
X0147337Y0255749D01*
X0147293Y0255707D01*
X0147251Y0255663D01*
X0147213Y0255617D01*
X0147177Y0255568D01*
X0147144Y0255517D01*
X0147115Y0255465D01*
X0147088Y0255410D01*
X0147065Y0255355D01*
X0147045Y0255298D01*
X0147029Y0255239D01*
X0147016Y0255180D01*
X0147007Y0255121D01*
X0147002Y0255060D01*
X0147000Y0255000D01*
X0147000Y0253500D01*
X0147500Y0253000D01*
X0147500Y0239000D01*
X0147000Y0238500D01*
X0147000Y0237000D01*
X0147002Y0236940D01*
X0147007Y0236879D01*
X0147016Y0236820D01*
X0147029Y0236761D01*
X0147045Y0236702D01*
X0147065Y0236645D01*
X0147088Y0236590D01*
X0147115Y0236535D01*
X0147144Y0236483D01*
X0147177Y0236432D01*
X0147213Y0236383D01*
X0147251Y0236337D01*
X0147293Y0236293D01*
X0147337Y0236251D01*
X0147383Y0236213D01*
X0147432Y0236177D01*
X0147483Y0236144D01*
X0147535Y0236115D01*
X0147590Y0236088D01*
X0147645Y0236065D01*
X0147702Y0236045D01*
X0147761Y0236029D01*
X0147820Y0236016D01*
X0147879Y0236007D01*
X0147940Y0236002D01*
X0148000Y0236000D01*
X0154000Y0236000D01*
X0154060Y0236002D01*
X0154121Y0236007D01*
X0154180Y0236016D01*
X0154239Y0236029D01*
X0154298Y0236045D01*
X0154355Y0236065D01*
X0154410Y0236088D01*
X0154465Y0236115D01*
X0154517Y0236144D01*
X0154568Y0236177D01*
X0154617Y0236213D01*
X0154663Y0236251D01*
X0154707Y0236293D01*
X0154749Y0236337D01*
X0154787Y0236383D01*
X0154823Y0236432D01*
X0154856Y0236483D01*
X0154885Y0236535D01*
X0154912Y0236590D01*
X0154935Y0236645D01*
X0154955Y0236702D01*
X0154971Y0236761D01*
X0154984Y0236820D01*
X0154993Y0236879D01*
X0154998Y0236940D01*
X0155000Y0237000D01*
X0171500Y0246000D02*
X0171500Y0256000D01*
X0171502Y0256060D01*
X0171507Y0256121D01*
X0171516Y0256180D01*
X0171529Y0256239D01*
X0171545Y0256298D01*
X0171565Y0256355D01*
X0171588Y0256410D01*
X0171615Y0256465D01*
X0171644Y0256517D01*
X0171677Y0256568D01*
X0171713Y0256617D01*
X0171751Y0256663D01*
X0171793Y0256707D01*
X0171837Y0256749D01*
X0171883Y0256787D01*
X0171932Y0256823D01*
X0171983Y0256856D01*
X0172035Y0256885D01*
X0172090Y0256912D01*
X0172145Y0256935D01*
X0172202Y0256955D01*
X0172261Y0256971D01*
X0172320Y0256984D01*
X0172379Y0256993D01*
X0172440Y0256998D01*
X0172500Y0257000D01*
X0189500Y0257000D01*
X0189560Y0256998D01*
X0189621Y0256993D01*
X0189680Y0256984D01*
X0189739Y0256971D01*
X0189798Y0256955D01*
X0189855Y0256935D01*
X0189910Y0256912D01*
X0189965Y0256885D01*
X0190017Y0256856D01*
X0190068Y0256823D01*
X0190117Y0256787D01*
X0190163Y0256749D01*
X0190207Y0256707D01*
X0190249Y0256663D01*
X0190287Y0256617D01*
X0190323Y0256568D01*
X0190356Y0256517D01*
X0190385Y0256465D01*
X0190412Y0256410D01*
X0190435Y0256355D01*
X0190455Y0256298D01*
X0190471Y0256239D01*
X0190484Y0256180D01*
X0190493Y0256121D01*
X0190498Y0256060D01*
X0190500Y0256000D01*
X0190500Y0246000D01*
X0190498Y0245940D01*
X0190493Y0245879D01*
X0190484Y0245820D01*
X0190471Y0245761D01*
X0190455Y0245702D01*
X0190435Y0245645D01*
X0190412Y0245590D01*
X0190385Y0245535D01*
X0190356Y0245483D01*
X0190323Y0245432D01*
X0190287Y0245383D01*
X0190249Y0245337D01*
X0190207Y0245293D01*
X0190163Y0245251D01*
X0190117Y0245213D01*
X0190068Y0245177D01*
X0190017Y0245144D01*
X0189965Y0245115D01*
X0189910Y0245088D01*
X0189855Y0245065D01*
X0189798Y0245045D01*
X0189739Y0245029D01*
X0189680Y0245016D01*
X0189621Y0245007D01*
X0189560Y0245002D01*
X0189500Y0245000D01*
X0172500Y0245000D01*
X0172440Y0245002D01*
X0172379Y0245007D01*
X0172320Y0245016D01*
X0172261Y0245029D01*
X0172202Y0245045D01*
X0172145Y0245065D01*
X0172090Y0245088D01*
X0172035Y0245115D01*
X0171983Y0245144D01*
X0171932Y0245177D01*
X0171883Y0245213D01*
X0171837Y0245251D01*
X0171793Y0245293D01*
X0171751Y0245337D01*
X0171713Y0245383D01*
X0171677Y0245432D01*
X0171644Y0245483D01*
X0171615Y0245535D01*
X0171588Y0245590D01*
X0171565Y0245645D01*
X0171545Y0245702D01*
X0171529Y0245761D01*
X0171516Y0245820D01*
X0171507Y0245879D01*
X0171502Y0245940D01*
X0171500Y0246000D01*
X0179500Y0251000D02*
X0180000Y0251000D01*
X0182000Y0251000D02*
X0182500Y0251000D01*
X0201500Y0246000D02*
X0201500Y0256000D01*
X0201502Y0256060D01*
X0201507Y0256121D01*
X0201516Y0256180D01*
X0201529Y0256239D01*
X0201545Y0256298D01*
X0201565Y0256355D01*
X0201588Y0256410D01*
X0201615Y0256465D01*
X0201644Y0256517D01*
X0201677Y0256568D01*
X0201713Y0256617D01*
X0201751Y0256663D01*
X0201793Y0256707D01*
X0201837Y0256749D01*
X0201883Y0256787D01*
X0201932Y0256823D01*
X0201983Y0256856D01*
X0202035Y0256885D01*
X0202090Y0256912D01*
X0202145Y0256935D01*
X0202202Y0256955D01*
X0202261Y0256971D01*
X0202320Y0256984D01*
X0202379Y0256993D01*
X0202440Y0256998D01*
X0202500Y0257000D01*
X0219500Y0257000D01*
X0219560Y0256998D01*
X0219621Y0256993D01*
X0219680Y0256984D01*
X0219739Y0256971D01*
X0219798Y0256955D01*
X0219855Y0256935D01*
X0219910Y0256912D01*
X0219965Y0256885D01*
X0220017Y0256856D01*
X0220068Y0256823D01*
X0220117Y0256787D01*
X0220163Y0256749D01*
X0220207Y0256707D01*
X0220249Y0256663D01*
X0220287Y0256617D01*
X0220323Y0256568D01*
X0220356Y0256517D01*
X0220385Y0256465D01*
X0220412Y0256410D01*
X0220435Y0256355D01*
X0220455Y0256298D01*
X0220471Y0256239D01*
X0220484Y0256180D01*
X0220493Y0256121D01*
X0220498Y0256060D01*
X0220500Y0256000D01*
X0220500Y0246000D01*
X0220498Y0245940D01*
X0220493Y0245879D01*
X0220484Y0245820D01*
X0220471Y0245761D01*
X0220455Y0245702D01*
X0220435Y0245645D01*
X0220412Y0245590D01*
X0220385Y0245535D01*
X0220356Y0245483D01*
X0220323Y0245432D01*
X0220287Y0245383D01*
X0220249Y0245337D01*
X0220207Y0245293D01*
X0220163Y0245251D01*
X0220117Y0245213D01*
X0220068Y0245177D01*
X0220017Y0245144D01*
X0219965Y0245115D01*
X0219910Y0245088D01*
X0219855Y0245065D01*
X0219798Y0245045D01*
X0219739Y0245029D01*
X0219680Y0245016D01*
X0219621Y0245007D01*
X0219560Y0245002D01*
X0219500Y0245000D01*
X0202500Y0245000D01*
X0202440Y0245002D01*
X0202379Y0245007D01*
X0202320Y0245016D01*
X0202261Y0245029D01*
X0202202Y0245045D01*
X0202145Y0245065D01*
X0202090Y0245088D01*
X0202035Y0245115D01*
X0201983Y0245144D01*
X0201932Y0245177D01*
X0201883Y0245213D01*
X0201837Y0245251D01*
X0201793Y0245293D01*
X0201751Y0245337D01*
X0201713Y0245383D01*
X0201677Y0245432D01*
X0201644Y0245483D01*
X0201615Y0245535D01*
X0201588Y0245590D01*
X0201565Y0245645D01*
X0201545Y0245702D01*
X0201529Y0245761D01*
X0201516Y0245820D01*
X0201507Y0245879D01*
X0201502Y0245940D01*
X0201500Y0246000D01*
X0209500Y0251000D02*
X0210000Y0251000D01*
X0212000Y0251000D02*
X0212500Y0251000D01*
X0134762Y0253622D02*
X0134278Y0253106D01*
X0134718Y0239113D01*
X0135234Y0238629D01*
X0135281Y0237130D01*
X0135281Y0237070D01*
X0135277Y0237010D01*
X0135270Y0236950D01*
X0135259Y0236890D01*
X0135245Y0236832D01*
X0135227Y0236774D01*
X0135205Y0236717D01*
X0135181Y0236662D01*
X0135153Y0236609D01*
X0135121Y0236557D01*
X0135087Y0236507D01*
X0135050Y0236460D01*
X0135010Y0236414D01*
X0134967Y0236372D01*
X0134922Y0236332D01*
X0134875Y0236294D01*
X0134825Y0236260D01*
X0134773Y0236229D01*
X0134720Y0236200D01*
X0134665Y0236176D01*
X0134608Y0236154D01*
X0134551Y0236136D01*
X0134492Y0236122D01*
X0134433Y0236111D01*
X0134373Y0236103D01*
X0134312Y0236099D01*
X0134313Y0236099D02*
X0128316Y0235911D01*
X0128315Y0235910D02*
X0128253Y0235910D01*
X0128190Y0235914D01*
X0128128Y0235922D01*
X0128066Y0235934D01*
X0128005Y0235950D01*
X0127945Y0235969D01*
X0127887Y0235992D01*
X0127830Y0236019D01*
X0127775Y0236049D01*
X0127722Y0236083D01*
X0127671Y0236120D01*
X0127623Y0236160D01*
X0127577Y0236203D01*
X0127534Y0236249D01*
X0127494Y0236297D01*
X0127457Y0236348D01*
X0127423Y0236401D01*
X0127393Y0236456D01*
X0127366Y0236513D01*
X0127343Y0236571D01*
X0127324Y0236631D01*
X0127308Y0236692D01*
X0127296Y0236754D01*
X0127288Y0236816D01*
X0127284Y0236879D01*
X0127285Y0236879D02*
X0127238Y0238378D01*
X0127722Y0238894D01*
X0127282Y0252887D01*
X0126766Y0253371D01*
X0126719Y0254870D01*
X0126719Y0254930D01*
X0126723Y0254990D01*
X0126730Y0255050D01*
X0126741Y0255110D01*
X0126755Y0255168D01*
X0126773Y0255226D01*
X0126795Y0255283D01*
X0126819Y0255338D01*
X0126847Y0255391D01*
X0126879Y0255443D01*
X0126913Y0255493D01*
X0126950Y0255540D01*
X0126990Y0255586D01*
X0127033Y0255628D01*
X0127078Y0255668D01*
X0127125Y0255706D01*
X0127175Y0255740D01*
X0127227Y0255771D01*
X0127280Y0255800D01*
X0127335Y0255824D01*
X0127392Y0255846D01*
X0127449Y0255864D01*
X0127508Y0255878D01*
X0127567Y0255889D01*
X0127627Y0255897D01*
X0127688Y0255901D01*
X0127687Y0255901D02*
X0133684Y0256089D01*
X0133685Y0256090D02*
X0133747Y0256090D01*
X0133810Y0256086D01*
X0133872Y0256078D01*
X0133934Y0256066D01*
X0133995Y0256050D01*
X0134055Y0256031D01*
X0134113Y0256008D01*
X0134170Y0255981D01*
X0134225Y0255951D01*
X0134278Y0255917D01*
X0134329Y0255880D01*
X0134377Y0255840D01*
X0134423Y0255797D01*
X0134466Y0255751D01*
X0134506Y0255703D01*
X0134543Y0255652D01*
X0134577Y0255599D01*
X0134607Y0255544D01*
X0134634Y0255487D01*
X0134657Y0255429D01*
X0134676Y0255369D01*
X0134692Y0255308D01*
X0134704Y0255246D01*
X0134712Y0255184D01*
X0134716Y0255121D01*
X0134715Y0255121D02*
X0134762Y0253622D01*
X0115000Y0253500D02*
X0115000Y0255000D01*
X0114998Y0255060D01*
X0114993Y0255121D01*
X0114984Y0255180D01*
X0114971Y0255239D01*
X0114955Y0255298D01*
X0114935Y0255355D01*
X0114912Y0255410D01*
X0114885Y0255465D01*
X0114856Y0255517D01*
X0114823Y0255568D01*
X0114787Y0255617D01*
X0114749Y0255663D01*
X0114707Y0255707D01*
X0114663Y0255749D01*
X0114617Y0255787D01*
X0114568Y0255823D01*
X0114517Y0255856D01*
X0114465Y0255885D01*
X0114410Y0255912D01*
X0114355Y0255935D01*
X0114298Y0255955D01*
X0114239Y0255971D01*
X0114180Y0255984D01*
X0114121Y0255993D01*
X0114060Y0255998D01*
X0114000Y0256000D01*
X0108000Y0256000D01*
X0107940Y0255998D01*
X0107879Y0255993D01*
X0107820Y0255984D01*
X0107761Y0255971D01*
X0107702Y0255955D01*
X0107645Y0255935D01*
X0107590Y0255912D01*
X0107535Y0255885D01*
X0107483Y0255856D01*
X0107432Y0255823D01*
X0107383Y0255787D01*
X0107337Y0255749D01*
X0107293Y0255707D01*
X0107251Y0255663D01*
X0107213Y0255617D01*
X0107177Y0255568D01*
X0107144Y0255517D01*
X0107115Y0255465D01*
X0107088Y0255410D01*
X0107065Y0255355D01*
X0107045Y0255298D01*
X0107029Y0255239D01*
X0107016Y0255180D01*
X0107007Y0255121D01*
X0107002Y0255060D01*
X0107000Y0255000D01*
X0107000Y0253500D01*
X0107500Y0253000D01*
X0107500Y0239000D01*
X0107000Y0238500D01*
X0107000Y0237000D01*
X0107002Y0236940D01*
X0107007Y0236879D01*
X0107016Y0236820D01*
X0107029Y0236761D01*
X0107045Y0236702D01*
X0107065Y0236645D01*
X0107088Y0236590D01*
X0107115Y0236535D01*
X0107144Y0236483D01*
X0107177Y0236432D01*
X0107213Y0236383D01*
X0107251Y0236337D01*
X0107293Y0236293D01*
X0107337Y0236251D01*
X0107383Y0236213D01*
X0107432Y0236177D01*
X0107483Y0236144D01*
X0107535Y0236115D01*
X0107590Y0236088D01*
X0107645Y0236065D01*
X0107702Y0236045D01*
X0107761Y0236029D01*
X0107820Y0236016D01*
X0107879Y0236007D01*
X0107940Y0236002D01*
X0108000Y0236000D01*
X0114000Y0236000D01*
X0114060Y0236002D01*
X0114121Y0236007D01*
X0114180Y0236016D01*
X0114239Y0236029D01*
X0114298Y0236045D01*
X0114355Y0236065D01*
X0114410Y0236088D01*
X0114465Y0236115D01*
X0114517Y0236144D01*
X0114568Y0236177D01*
X0114617Y0236213D01*
X0114663Y0236251D01*
X0114707Y0236293D01*
X0114749Y0236337D01*
X0114787Y0236383D01*
X0114823Y0236432D01*
X0114856Y0236483D01*
X0114885Y0236535D01*
X0114912Y0236590D01*
X0114935Y0236645D01*
X0114955Y0236702D01*
X0114971Y0236761D01*
X0114984Y0236820D01*
X0114993Y0236879D01*
X0114998Y0236940D01*
X0115000Y0237000D01*
X0115000Y0238500D01*
X0114500Y0239000D01*
X0114500Y0253000D01*
X0115000Y0253500D01*
X0086000Y0257500D02*
X0086000Y0234500D01*
X0046000Y0234500D01*
X0046000Y0242000D01*
X0046126Y0242002D01*
X0046251Y0242008D01*
X0046376Y0242018D01*
X0046501Y0242032D01*
X0046626Y0242049D01*
X0046750Y0242071D01*
X0046873Y0242096D01*
X0046995Y0242126D01*
X0047116Y0242159D01*
X0047236Y0242196D01*
X0047355Y0242236D01*
X0047472Y0242281D01*
X0047589Y0242329D01*
X0047703Y0242381D01*
X0047816Y0242436D01*
X0047927Y0242495D01*
X0048036Y0242557D01*
X0048143Y0242623D01*
X0048248Y0242692D01*
X0048351Y0242764D01*
X0048452Y0242839D01*
X0048550Y0242918D01*
X0048645Y0243000D01*
X0048738Y0243084D01*
X0048828Y0243172D01*
X0048916Y0243262D01*
X0049000Y0243355D01*
X0049082Y0243450D01*
X0049161Y0243548D01*
X0049236Y0243649D01*
X0049308Y0243752D01*
X0049377Y0243857D01*
X0049443Y0243964D01*
X0049505Y0244073D01*
X0049564Y0244184D01*
X0049619Y0244297D01*
X0049671Y0244411D01*
X0049719Y0244528D01*
X0049764Y0244645D01*
X0049804Y0244764D01*
X0049841Y0244884D01*
X0049874Y0245005D01*
X0049904Y0245127D01*
X0049929Y0245250D01*
X0049951Y0245374D01*
X0049968Y0245499D01*
X0049982Y0245624D01*
X0049992Y0245749D01*
X0049998Y0245874D01*
X0050000Y0246000D01*
X0049998Y0246126D01*
X0049992Y0246251D01*
X0049982Y0246376D01*
X0049968Y0246501D01*
X0049951Y0246626D01*
X0049929Y0246750D01*
X0049904Y0246873D01*
X0049874Y0246995D01*
X0049841Y0247116D01*
X0049804Y0247236D01*
X0049764Y0247355D01*
X0049719Y0247472D01*
X0049671Y0247589D01*
X0049619Y0247703D01*
X0049564Y0247816D01*
X0049505Y0247927D01*
X0049443Y0248036D01*
X0049377Y0248143D01*
X0049308Y0248248D01*
X0049236Y0248351D01*
X0049161Y0248452D01*
X0049082Y0248550D01*
X0049000Y0248645D01*
X0048916Y0248738D01*
X0048828Y0248828D01*
X0048738Y0248916D01*
X0048645Y0249000D01*
X0048550Y0249082D01*
X0048452Y0249161D01*
X0048351Y0249236D01*
X0048248Y0249308D01*
X0048143Y0249377D01*
X0048036Y0249443D01*
X0047927Y0249505D01*
X0047816Y0249564D01*
X0047703Y0249619D01*
X0047589Y0249671D01*
X0047472Y0249719D01*
X0047355Y0249764D01*
X0047236Y0249804D01*
X0047116Y0249841D01*
X0046995Y0249874D01*
X0046873Y0249904D01*
X0046750Y0249929D01*
X0046626Y0249951D01*
X0046501Y0249968D01*
X0046376Y0249982D01*
X0046251Y0249992D01*
X0046126Y0249998D01*
X0046000Y0250000D01*
X0046000Y0257500D01*
X0086000Y0257500D01*
X0102000Y0219500D02*
X0102000Y0216000D01*
X0102000Y0196000D01*
X0102000Y0192500D01*
X0111500Y0192500D01*
X0111500Y0196000D01*
X0102000Y0196000D01*
X0106500Y0198000D02*
X0106500Y0206500D01*
X0108000Y0206500D01*
X0108500Y0206000D01*
X0104500Y0206000D01*
X0105000Y0206500D01*
X0106500Y0206500D01*
X0106500Y0208000D01*
X0106000Y0207500D01*
X0105500Y0207000D01*
X0105000Y0206500D01*
X0105500Y0207000D02*
X0107500Y0207000D01*
X0107000Y0207500D01*
X0106000Y0207500D01*
X0106500Y0208000D02*
X0107000Y0207500D01*
X0107500Y0207000D02*
X0108000Y0206500D01*
X0111500Y0216000D02*
X0102000Y0216000D01*
X0102000Y0219500D02*
X0111500Y0219500D01*
X0121000Y0219500D01*
X0126000Y0219500D02*
X0128000Y0219500D01*
X0128000Y0192500D01*
X0126000Y0192500D01*
X0121000Y0192500D02*
X0111500Y0192500D01*
X0086000Y0184500D02*
X0086000Y0207500D01*
X0046000Y0207500D01*
X0046000Y0200000D01*
X0046126Y0199998D01*
X0046251Y0199992D01*
X0046376Y0199982D01*
X0046501Y0199968D01*
X0046626Y0199951D01*
X0046750Y0199929D01*
X0046873Y0199904D01*
X0046995Y0199874D01*
X0047116Y0199841D01*
X0047236Y0199804D01*
X0047355Y0199764D01*
X0047472Y0199719D01*
X0047589Y0199671D01*
X0047703Y0199619D01*
X0047816Y0199564D01*
X0047927Y0199505D01*
X0048036Y0199443D01*
X0048143Y0199377D01*
X0048248Y0199308D01*
X0048351Y0199236D01*
X0048452Y0199161D01*
X0048550Y0199082D01*
X0048645Y0199000D01*
X0048738Y0198916D01*
X0048828Y0198828D01*
X0048916Y0198738D01*
X0049000Y0198645D01*
X0049082Y0198550D01*
X0049161Y0198452D01*
X0049236Y0198351D01*
X0049308Y0198248D01*
X0049377Y0198143D01*
X0049443Y0198036D01*
X0049505Y0197927D01*
X0049564Y0197816D01*
X0049619Y0197703D01*
X0049671Y0197589D01*
X0049719Y0197472D01*
X0049764Y0197355D01*
X0049804Y0197236D01*
X0049841Y0197116D01*
X0049874Y0196995D01*
X0049904Y0196873D01*
X0049929Y0196750D01*
X0049951Y0196626D01*
X0049968Y0196501D01*
X0049982Y0196376D01*
X0049992Y0196251D01*
X0049998Y0196126D01*
X0050000Y0196000D01*
X0049998Y0195874D01*
X0049992Y0195749D01*
X0049982Y0195624D01*
X0049968Y0195499D01*
X0049951Y0195374D01*
X0049929Y0195250D01*
X0049904Y0195127D01*
X0049874Y0195005D01*
X0049841Y0194884D01*
X0049804Y0194764D01*
X0049764Y0194645D01*
X0049719Y0194528D01*
X0049671Y0194411D01*
X0049619Y0194297D01*
X0049564Y0194184D01*
X0049505Y0194073D01*
X0049443Y0193964D01*
X0049377Y0193857D01*
X0049308Y0193752D01*
X0049236Y0193649D01*
X0049161Y0193548D01*
X0049082Y0193450D01*
X0049000Y0193355D01*
X0048916Y0193262D01*
X0048828Y0193172D01*
X0048738Y0193084D01*
X0048645Y0193000D01*
X0048550Y0192918D01*
X0048452Y0192839D01*
X0048351Y0192764D01*
X0048248Y0192692D01*
X0048143Y0192623D01*
X0048036Y0192557D01*
X0047927Y0192495D01*
X0047816Y0192436D01*
X0047703Y0192381D01*
X0047589Y0192329D01*
X0047472Y0192281D01*
X0047355Y0192236D01*
X0047236Y0192196D01*
X0047116Y0192159D01*
X0046995Y0192126D01*
X0046873Y0192096D01*
X0046750Y0192071D01*
X0046626Y0192049D01*
X0046501Y0192032D01*
X0046376Y0192018D01*
X0046251Y0192008D01*
X0046126Y0192002D01*
X0046000Y0192000D01*
X0046000Y0184500D01*
X0086000Y0184500D01*
X0111500Y0216000D02*
X0111500Y0219500D01*
D12*
X0180000Y0228000D02*
X0180000Y0231000D01*
X0180000Y0234000D01*
X0182000Y0234000D02*
X0182000Y0231000D01*
X0182000Y0228000D01*
X0182000Y0248000D02*
X0182000Y0251000D01*
X0182000Y0254000D01*
X0180000Y0254000D02*
X0180000Y0251000D01*
X0180000Y0248000D01*
X0210000Y0248000D02*
X0210000Y0251000D01*
X0210000Y0254000D01*
X0212000Y0254000D02*
X0212000Y0251000D01*
X0212000Y0248000D01*
X0212000Y0234000D02*
X0212000Y0231000D01*
X0212000Y0228000D01*
X0210000Y0228000D02*
X0210000Y0231000D01*
X0210000Y0234000D01*
D13*
X0209765Y0238250D02*
X0208515Y0238250D01*
X0206750Y0238250D02*
X0205750Y0238250D01*
X0205690Y0238252D01*
X0205629Y0238257D01*
X0205570Y0238266D01*
X0205511Y0238279D01*
X0205452Y0238295D01*
X0205395Y0238315D01*
X0205340Y0238338D01*
X0205285Y0238365D01*
X0205233Y0238394D01*
X0205182Y0238427D01*
X0205133Y0238463D01*
X0205087Y0238501D01*
X0205043Y0238543D01*
X0205001Y0238587D01*
X0204963Y0238633D01*
X0204927Y0238682D01*
X0204894Y0238733D01*
X0204865Y0238785D01*
X0204838Y0238840D01*
X0204815Y0238895D01*
X0204795Y0238952D01*
X0204779Y0239011D01*
X0204766Y0239070D01*
X0204757Y0239129D01*
X0204752Y0239190D01*
X0204750Y0239250D01*
X0204750Y0241750D01*
X0204752Y0241810D01*
X0204757Y0241871D01*
X0204766Y0241930D01*
X0204779Y0241989D01*
X0204795Y0242048D01*
X0204815Y0242105D01*
X0204838Y0242160D01*
X0204865Y0242215D01*
X0204894Y0242267D01*
X0204927Y0242318D01*
X0204963Y0242367D01*
X0205001Y0242413D01*
X0205043Y0242457D01*
X0205087Y0242499D01*
X0205133Y0242537D01*
X0205182Y0242573D01*
X0205233Y0242606D01*
X0205285Y0242635D01*
X0205340Y0242662D01*
X0205395Y0242685D01*
X0205452Y0242705D01*
X0205511Y0242721D01*
X0205570Y0242734D01*
X0205629Y0242743D01*
X0205690Y0242748D01*
X0205750Y0242750D01*
X0206750Y0242750D01*
X0208515Y0242750D02*
X0210015Y0242750D01*
X0210985Y0242750D02*
X0210985Y0240250D01*
X0210987Y0240190D01*
X0210992Y0240129D01*
X0211001Y0240070D01*
X0211014Y0240011D01*
X0211030Y0239952D01*
X0211050Y0239895D01*
X0211073Y0239840D01*
X0211100Y0239785D01*
X0211129Y0239733D01*
X0211162Y0239682D01*
X0211198Y0239633D01*
X0211236Y0239587D01*
X0211278Y0239543D01*
X0211322Y0239501D01*
X0211368Y0239463D01*
X0211417Y0239427D01*
X0211468Y0239394D01*
X0211520Y0239365D01*
X0211575Y0239338D01*
X0211630Y0239315D01*
X0211687Y0239295D01*
X0211746Y0239279D01*
X0211805Y0239266D01*
X0211864Y0239257D01*
X0211925Y0239252D01*
X0211985Y0239250D01*
X0212985Y0239250D01*
X0214750Y0239250D02*
X0216875Y0241750D01*
X0216125Y0243750D02*
X0216052Y0243748D01*
X0215980Y0243743D01*
X0215908Y0243734D01*
X0215836Y0243721D01*
X0215765Y0243705D01*
X0215695Y0243685D01*
X0215627Y0243661D01*
X0215559Y0243635D01*
X0215493Y0243604D01*
X0215428Y0243571D01*
X0215366Y0243534D01*
X0215305Y0243495D01*
X0215246Y0243452D01*
X0215189Y0243406D01*
X0215135Y0243358D01*
X0215084Y0243307D01*
X0215034Y0243253D01*
X0214988Y0243197D01*
X0214945Y0243139D01*
X0214904Y0243078D01*
X0214867Y0243016D01*
X0214833Y0242952D01*
X0214802Y0242886D01*
X0214774Y0242819D01*
X0214750Y0242750D01*
X0216875Y0241750D02*
X0216921Y0241796D01*
X0216965Y0241845D01*
X0217005Y0241896D01*
X0217043Y0241949D01*
X0217078Y0242004D01*
X0217110Y0242061D01*
X0217139Y0242119D01*
X0217165Y0242179D01*
X0217187Y0242241D01*
X0217206Y0242303D01*
X0217222Y0242366D01*
X0217234Y0242430D01*
X0217243Y0242495D01*
X0217248Y0242560D01*
X0217250Y0242625D01*
X0217248Y0242690D01*
X0217242Y0242756D01*
X0217233Y0242820D01*
X0217220Y0242884D01*
X0217203Y0242948D01*
X0217182Y0243010D01*
X0217158Y0243071D01*
X0217130Y0243130D01*
X0217099Y0243188D01*
X0217065Y0243243D01*
X0217027Y0243297D01*
X0216987Y0243348D01*
X0216943Y0243397D01*
X0216897Y0243443D01*
X0216848Y0243487D01*
X0216797Y0243527D01*
X0216743Y0243565D01*
X0216688Y0243599D01*
X0216630Y0243630D01*
X0216571Y0243658D01*
X0216510Y0243682D01*
X0216448Y0243703D01*
X0216384Y0243720D01*
X0216320Y0243733D01*
X0216256Y0243742D01*
X0216190Y0243748D01*
X0216125Y0243750D01*
X0212985Y0243750D02*
X0211985Y0243750D01*
X0211925Y0243748D01*
X0211864Y0243743D01*
X0211805Y0243734D01*
X0211746Y0243721D01*
X0211687Y0243705D01*
X0211630Y0243685D01*
X0211575Y0243662D01*
X0211520Y0243635D01*
X0211468Y0243606D01*
X0211417Y0243573D01*
X0211368Y0243537D01*
X0211322Y0243499D01*
X0211278Y0243457D01*
X0211236Y0243413D01*
X0211198Y0243367D01*
X0211162Y0243318D01*
X0211129Y0243267D01*
X0211100Y0243215D01*
X0211073Y0243160D01*
X0211050Y0243105D01*
X0211030Y0243048D01*
X0211014Y0242989D01*
X0211001Y0242930D01*
X0210992Y0242871D01*
X0210987Y0242810D01*
X0210985Y0242750D01*
X0210015Y0242750D02*
X0210077Y0242748D01*
X0210138Y0242742D01*
X0210199Y0242733D01*
X0210259Y0242720D01*
X0210318Y0242703D01*
X0210376Y0242682D01*
X0210433Y0242658D01*
X0210488Y0242631D01*
X0210541Y0242600D01*
X0210593Y0242566D01*
X0210642Y0242529D01*
X0210689Y0242489D01*
X0210733Y0242446D01*
X0210774Y0242401D01*
X0210813Y0242353D01*
X0210849Y0242302D01*
X0210881Y0242250D01*
X0210910Y0242196D01*
X0210936Y0242140D01*
X0210958Y0242082D01*
X0210977Y0242024D01*
X0210992Y0241964D01*
X0211003Y0241903D01*
X0211011Y0241842D01*
X0211015Y0241781D01*
X0211015Y0241719D01*
X0211011Y0241658D01*
X0211003Y0241597D01*
X0210992Y0241536D01*
X0210977Y0241476D01*
X0210958Y0241418D01*
X0210936Y0241360D01*
X0210910Y0241304D01*
X0210881Y0241250D01*
X0210849Y0241198D01*
X0210813Y0241147D01*
X0210774Y0241099D01*
X0210733Y0241054D01*
X0210689Y0241011D01*
X0210642Y0240971D01*
X0210593Y0240934D01*
X0210541Y0240900D01*
X0210488Y0240869D01*
X0210433Y0240842D01*
X0210376Y0240818D01*
X0210318Y0240797D01*
X0210259Y0240780D01*
X0210199Y0240767D01*
X0210138Y0240758D01*
X0210077Y0240752D01*
X0210015Y0240750D01*
X0209015Y0240750D01*
X0209765Y0240750D02*
X0209834Y0240748D01*
X0209903Y0240742D01*
X0209971Y0240733D01*
X0210038Y0240720D01*
X0210105Y0240703D01*
X0210171Y0240682D01*
X0210235Y0240658D01*
X0210298Y0240630D01*
X0210360Y0240599D01*
X0210420Y0240565D01*
X0210477Y0240527D01*
X0210533Y0240486D01*
X0210586Y0240443D01*
X0210637Y0240396D01*
X0210685Y0240347D01*
X0210730Y0240295D01*
X0210772Y0240240D01*
X0210811Y0240184D01*
X0210848Y0240125D01*
X0210880Y0240064D01*
X0210910Y0240002D01*
X0210936Y0239938D01*
X0210958Y0239873D01*
X0210977Y0239807D01*
X0210992Y0239740D01*
X0211003Y0239672D01*
X0211011Y0239603D01*
X0211015Y0239534D01*
X0211015Y0239466D01*
X0211011Y0239397D01*
X0211003Y0239328D01*
X0210992Y0239260D01*
X0210977Y0239193D01*
X0210958Y0239127D01*
X0210936Y0239062D01*
X0210910Y0238998D01*
X0210880Y0238936D01*
X0210848Y0238875D01*
X0210811Y0238816D01*
X0210772Y0238760D01*
X0210730Y0238705D01*
X0210685Y0238653D01*
X0210637Y0238604D01*
X0210586Y0238557D01*
X0210533Y0238514D01*
X0210477Y0238473D01*
X0210420Y0238435D01*
X0210360Y0238401D01*
X0210298Y0238370D01*
X0210235Y0238342D01*
X0210171Y0238318D01*
X0210105Y0238297D01*
X0210038Y0238280D01*
X0209971Y0238267D01*
X0209903Y0238258D01*
X0209834Y0238252D01*
X0209765Y0238250D01*
X0214750Y0239250D02*
X0217250Y0239250D01*
X0232250Y0210750D02*
X0235750Y0209750D01*
X0235750Y0212250D01*
X0234750Y0211500D02*
X0236750Y0211500D01*
X0236750Y0207985D02*
X0236750Y0206985D01*
X0236748Y0206925D01*
X0236743Y0206864D01*
X0236734Y0206805D01*
X0236721Y0206746D01*
X0236705Y0206687D01*
X0236685Y0206630D01*
X0236662Y0206575D01*
X0236635Y0206520D01*
X0236606Y0206468D01*
X0236573Y0206417D01*
X0236537Y0206368D01*
X0236499Y0206322D01*
X0236457Y0206278D01*
X0236413Y0206236D01*
X0236367Y0206198D01*
X0236318Y0206162D01*
X0236267Y0206129D01*
X0236215Y0206100D01*
X0236160Y0206073D01*
X0236105Y0206050D01*
X0236048Y0206030D01*
X0235989Y0206014D01*
X0235930Y0206001D01*
X0235871Y0205992D01*
X0235810Y0205987D01*
X0235750Y0205985D01*
X0233250Y0205985D01*
X0233190Y0205987D01*
X0233129Y0205992D01*
X0233070Y0206001D01*
X0233011Y0206014D01*
X0232952Y0206030D01*
X0232895Y0206050D01*
X0232840Y0206073D01*
X0232785Y0206100D01*
X0232733Y0206129D01*
X0232682Y0206162D01*
X0232633Y0206198D01*
X0232587Y0206236D01*
X0232543Y0206278D01*
X0232501Y0206322D01*
X0232463Y0206368D01*
X0232427Y0206417D01*
X0232394Y0206468D01*
X0232365Y0206520D01*
X0232338Y0206575D01*
X0232315Y0206630D01*
X0232295Y0206687D01*
X0232279Y0206746D01*
X0232266Y0206805D01*
X0232257Y0206864D01*
X0232252Y0206925D01*
X0232250Y0206985D01*
X0232250Y0207985D01*
X0232250Y0204150D02*
X0232250Y0203150D01*
X0232250Y0203650D02*
X0236750Y0203650D01*
X0236750Y0203150D02*
X0236750Y0204150D01*
X0181015Y0239250D02*
X0178515Y0239250D01*
X0179515Y0242750D01*
X0180265Y0240250D02*
X0180265Y0238250D01*
X0176750Y0238250D02*
X0175750Y0238250D01*
X0175690Y0238252D01*
X0175629Y0238257D01*
X0175570Y0238266D01*
X0175511Y0238279D01*
X0175452Y0238295D01*
X0175395Y0238315D01*
X0175340Y0238338D01*
X0175285Y0238365D01*
X0175233Y0238394D01*
X0175182Y0238427D01*
X0175133Y0238463D01*
X0175087Y0238501D01*
X0175043Y0238543D01*
X0175001Y0238587D01*
X0174963Y0238633D01*
X0174927Y0238682D01*
X0174894Y0238733D01*
X0174865Y0238785D01*
X0174838Y0238840D01*
X0174815Y0238895D01*
X0174795Y0238952D01*
X0174779Y0239011D01*
X0174766Y0239070D01*
X0174757Y0239129D01*
X0174752Y0239190D01*
X0174750Y0239250D01*
X0174750Y0241750D01*
X0174752Y0241810D01*
X0174757Y0241871D01*
X0174766Y0241930D01*
X0174779Y0241989D01*
X0174795Y0242048D01*
X0174815Y0242105D01*
X0174838Y0242160D01*
X0174865Y0242215D01*
X0174894Y0242267D01*
X0174927Y0242318D01*
X0174963Y0242367D01*
X0175001Y0242413D01*
X0175043Y0242457D01*
X0175087Y0242499D01*
X0175133Y0242537D01*
X0175182Y0242573D01*
X0175233Y0242606D01*
X0175285Y0242635D01*
X0175340Y0242662D01*
X0175395Y0242685D01*
X0175452Y0242705D01*
X0175511Y0242721D01*
X0175570Y0242734D01*
X0175629Y0242743D01*
X0175690Y0242748D01*
X0175750Y0242750D01*
X0176750Y0242750D01*
X0176750Y0258250D02*
X0175750Y0258250D01*
X0175690Y0258252D01*
X0175629Y0258257D01*
X0175570Y0258266D01*
X0175511Y0258279D01*
X0175452Y0258295D01*
X0175395Y0258315D01*
X0175340Y0258338D01*
X0175285Y0258365D01*
X0175233Y0258394D01*
X0175182Y0258427D01*
X0175133Y0258463D01*
X0175087Y0258501D01*
X0175043Y0258543D01*
X0175001Y0258587D01*
X0174963Y0258633D01*
X0174927Y0258682D01*
X0174894Y0258733D01*
X0174865Y0258785D01*
X0174838Y0258840D01*
X0174815Y0258895D01*
X0174795Y0258952D01*
X0174779Y0259011D01*
X0174766Y0259070D01*
X0174757Y0259129D01*
X0174752Y0259190D01*
X0174750Y0259250D01*
X0174750Y0261750D01*
X0174752Y0261810D01*
X0174757Y0261871D01*
X0174766Y0261930D01*
X0174779Y0261989D01*
X0174795Y0262048D01*
X0174815Y0262105D01*
X0174838Y0262160D01*
X0174865Y0262215D01*
X0174894Y0262267D01*
X0174927Y0262318D01*
X0174963Y0262367D01*
X0175001Y0262413D01*
X0175043Y0262457D01*
X0175087Y0262499D01*
X0175133Y0262537D01*
X0175182Y0262573D01*
X0175233Y0262606D01*
X0175285Y0262635D01*
X0175340Y0262662D01*
X0175395Y0262685D01*
X0175452Y0262705D01*
X0175511Y0262721D01*
X0175570Y0262734D01*
X0175629Y0262743D01*
X0175690Y0262748D01*
X0175750Y0262750D01*
X0176750Y0262750D01*
X0178515Y0261750D02*
X0179765Y0262750D01*
X0179765Y0258250D01*
X0178515Y0258250D02*
X0181015Y0258250D01*
X0162850Y0226750D02*
X0161350Y0226750D01*
X0159585Y0226750D02*
X0158585Y0226750D01*
X0158525Y0226748D01*
X0158464Y0226743D01*
X0158405Y0226734D01*
X0158346Y0226721D01*
X0158287Y0226705D01*
X0158230Y0226685D01*
X0158175Y0226662D01*
X0158120Y0226635D01*
X0158068Y0226606D01*
X0158017Y0226573D01*
X0157968Y0226537D01*
X0157922Y0226499D01*
X0157878Y0226457D01*
X0157836Y0226413D01*
X0157798Y0226367D01*
X0157762Y0226318D01*
X0157729Y0226267D01*
X0157700Y0226215D01*
X0157673Y0226160D01*
X0157650Y0226105D01*
X0157630Y0226048D01*
X0157614Y0225989D01*
X0157601Y0225930D01*
X0157592Y0225871D01*
X0157587Y0225810D01*
X0157585Y0225750D01*
X0157585Y0223250D01*
X0157587Y0223190D01*
X0157592Y0223129D01*
X0157601Y0223070D01*
X0157614Y0223011D01*
X0157630Y0222952D01*
X0157650Y0222895D01*
X0157673Y0222840D01*
X0157700Y0222785D01*
X0157729Y0222733D01*
X0157762Y0222682D01*
X0157798Y0222633D01*
X0157836Y0222587D01*
X0157878Y0222543D01*
X0157922Y0222501D01*
X0157968Y0222463D01*
X0158017Y0222427D01*
X0158068Y0222394D01*
X0158120Y0222365D01*
X0158175Y0222338D01*
X0158230Y0222315D01*
X0158287Y0222295D01*
X0158346Y0222279D01*
X0158405Y0222266D01*
X0158464Y0222257D01*
X0158525Y0222252D01*
X0158585Y0222250D01*
X0159585Y0222250D01*
X0161350Y0222250D02*
X0162600Y0222250D01*
X0162669Y0222252D01*
X0162738Y0222258D01*
X0162806Y0222267D01*
X0162873Y0222280D01*
X0162940Y0222297D01*
X0163006Y0222318D01*
X0163070Y0222342D01*
X0163133Y0222370D01*
X0163195Y0222401D01*
X0163255Y0222435D01*
X0163312Y0222473D01*
X0163368Y0222514D01*
X0163421Y0222557D01*
X0163472Y0222604D01*
X0163520Y0222653D01*
X0163565Y0222705D01*
X0163607Y0222760D01*
X0163646Y0222816D01*
X0163683Y0222875D01*
X0163715Y0222936D01*
X0163745Y0222998D01*
X0163771Y0223062D01*
X0163793Y0223127D01*
X0163812Y0223193D01*
X0163827Y0223260D01*
X0163838Y0223328D01*
X0163846Y0223397D01*
X0163850Y0223466D01*
X0163850Y0223534D01*
X0163846Y0223603D01*
X0163838Y0223672D01*
X0163827Y0223740D01*
X0163812Y0223807D01*
X0163793Y0223873D01*
X0163771Y0223938D01*
X0163745Y0224002D01*
X0163715Y0224064D01*
X0163683Y0224125D01*
X0163646Y0224184D01*
X0163607Y0224240D01*
X0163565Y0224295D01*
X0163520Y0224347D01*
X0163472Y0224396D01*
X0163421Y0224443D01*
X0163368Y0224486D01*
X0163312Y0224527D01*
X0163255Y0224565D01*
X0163195Y0224599D01*
X0163133Y0224630D01*
X0163070Y0224658D01*
X0163006Y0224682D01*
X0162940Y0224703D01*
X0162873Y0224720D01*
X0162806Y0224733D01*
X0162738Y0224742D01*
X0162669Y0224748D01*
X0162600Y0224750D01*
X0162850Y0224750D02*
X0161850Y0224750D01*
X0162850Y0224750D02*
X0162912Y0224752D01*
X0162973Y0224758D01*
X0163034Y0224767D01*
X0163094Y0224780D01*
X0163153Y0224797D01*
X0163211Y0224818D01*
X0163268Y0224842D01*
X0163323Y0224869D01*
X0163376Y0224900D01*
X0163428Y0224934D01*
X0163477Y0224971D01*
X0163524Y0225011D01*
X0163568Y0225054D01*
X0163609Y0225099D01*
X0163648Y0225147D01*
X0163684Y0225198D01*
X0163716Y0225250D01*
X0163745Y0225304D01*
X0163771Y0225360D01*
X0163793Y0225418D01*
X0163812Y0225476D01*
X0163827Y0225536D01*
X0163838Y0225597D01*
X0163846Y0225658D01*
X0163850Y0225719D01*
X0163850Y0225781D01*
X0163846Y0225842D01*
X0163838Y0225903D01*
X0163827Y0225964D01*
X0163812Y0226024D01*
X0163793Y0226082D01*
X0163771Y0226140D01*
X0163745Y0226196D01*
X0163716Y0226250D01*
X0163684Y0226302D01*
X0163648Y0226353D01*
X0163609Y0226401D01*
X0163568Y0226446D01*
X0163524Y0226489D01*
X0163477Y0226529D01*
X0163428Y0226566D01*
X0163376Y0226600D01*
X0163323Y0226631D01*
X0163268Y0226658D01*
X0163211Y0226682D01*
X0163153Y0226703D01*
X0163094Y0226720D01*
X0163034Y0226733D01*
X0162973Y0226742D01*
X0162912Y0226748D01*
X0162850Y0226750D01*
X0155750Y0226750D02*
X0154750Y0226750D01*
X0155250Y0226750D02*
X0155250Y0222250D01*
X0154750Y0222250D02*
X0155750Y0222250D01*
X0118750Y0195500D02*
X0118750Y0194250D01*
X0118750Y0195500D02*
X0118748Y0195569D01*
X0118742Y0195638D01*
X0118733Y0195706D01*
X0118720Y0195773D01*
X0118703Y0195840D01*
X0118682Y0195906D01*
X0118658Y0195970D01*
X0118630Y0196033D01*
X0118599Y0196095D01*
X0118565Y0196155D01*
X0118527Y0196212D01*
X0118486Y0196268D01*
X0118443Y0196321D01*
X0118396Y0196372D01*
X0118347Y0196420D01*
X0118295Y0196465D01*
X0118240Y0196507D01*
X0118184Y0196546D01*
X0118125Y0196583D01*
X0118064Y0196615D01*
X0118002Y0196645D01*
X0117938Y0196671D01*
X0117873Y0196693D01*
X0117807Y0196712D01*
X0117740Y0196727D01*
X0117672Y0196738D01*
X0117603Y0196746D01*
X0117534Y0196750D01*
X0117466Y0196750D01*
X0117397Y0196746D01*
X0117328Y0196738D01*
X0117260Y0196727D01*
X0117193Y0196712D01*
X0117127Y0196693D01*
X0117062Y0196671D01*
X0116998Y0196645D01*
X0116936Y0196615D01*
X0116875Y0196583D01*
X0116816Y0196546D01*
X0116760Y0196507D01*
X0116705Y0196465D01*
X0116653Y0196420D01*
X0116604Y0196372D01*
X0116557Y0196321D01*
X0116514Y0196268D01*
X0116473Y0196212D01*
X0116435Y0196155D01*
X0116401Y0196095D01*
X0116370Y0196033D01*
X0116342Y0195970D01*
X0116318Y0195906D01*
X0116297Y0195840D01*
X0116280Y0195773D01*
X0116267Y0195706D01*
X0116258Y0195638D01*
X0116252Y0195569D01*
X0116250Y0195500D01*
X0116250Y0195750D02*
X0116250Y0194750D01*
X0116250Y0195750D02*
X0116248Y0195812D01*
X0116242Y0195873D01*
X0116233Y0195934D01*
X0116220Y0195994D01*
X0116203Y0196053D01*
X0116182Y0196111D01*
X0116158Y0196168D01*
X0116131Y0196223D01*
X0116100Y0196276D01*
X0116066Y0196328D01*
X0116029Y0196377D01*
X0115989Y0196424D01*
X0115946Y0196468D01*
X0115901Y0196509D01*
X0115853Y0196548D01*
X0115802Y0196584D01*
X0115750Y0196616D01*
X0115696Y0196645D01*
X0115640Y0196671D01*
X0115582Y0196693D01*
X0115524Y0196712D01*
X0115464Y0196727D01*
X0115403Y0196738D01*
X0115342Y0196746D01*
X0115281Y0196750D01*
X0115219Y0196750D01*
X0115158Y0196746D01*
X0115097Y0196738D01*
X0115036Y0196727D01*
X0114976Y0196712D01*
X0114918Y0196693D01*
X0114860Y0196671D01*
X0114804Y0196645D01*
X0114750Y0196616D01*
X0114698Y0196584D01*
X0114647Y0196548D01*
X0114599Y0196509D01*
X0114554Y0196468D01*
X0114511Y0196424D01*
X0114471Y0196377D01*
X0114434Y0196328D01*
X0114400Y0196276D01*
X0114369Y0196223D01*
X0114342Y0196168D01*
X0114318Y0196111D01*
X0114297Y0196053D01*
X0114280Y0195994D01*
X0114267Y0195934D01*
X0114258Y0195873D01*
X0114252Y0195812D01*
X0114250Y0195750D01*
X0114250Y0194250D01*
X0108750Y0207950D02*
X0108750Y0209200D01*
X0108748Y0209269D01*
X0108742Y0209338D01*
X0108733Y0209406D01*
X0108720Y0209473D01*
X0108703Y0209540D01*
X0108682Y0209606D01*
X0108658Y0209670D01*
X0108630Y0209733D01*
X0108599Y0209795D01*
X0108565Y0209855D01*
X0108527Y0209912D01*
X0108486Y0209968D01*
X0108443Y0210021D01*
X0108396Y0210072D01*
X0108347Y0210120D01*
X0108295Y0210165D01*
X0108240Y0210207D01*
X0108184Y0210246D01*
X0108125Y0210283D01*
X0108064Y0210315D01*
X0108002Y0210345D01*
X0107938Y0210371D01*
X0107873Y0210393D01*
X0107807Y0210412D01*
X0107740Y0210427D01*
X0107672Y0210438D01*
X0107603Y0210446D01*
X0107534Y0210450D01*
X0107466Y0210450D01*
X0107397Y0210446D01*
X0107328Y0210438D01*
X0107260Y0210427D01*
X0107193Y0210412D01*
X0107127Y0210393D01*
X0107062Y0210371D01*
X0106998Y0210345D01*
X0106936Y0210315D01*
X0106875Y0210283D01*
X0106816Y0210246D01*
X0106760Y0210207D01*
X0106705Y0210165D01*
X0106653Y0210120D01*
X0106604Y0210072D01*
X0106557Y0210021D01*
X0106514Y0209968D01*
X0106473Y0209912D01*
X0106435Y0209855D01*
X0106401Y0209795D01*
X0106370Y0209733D01*
X0106342Y0209670D01*
X0106318Y0209606D01*
X0106297Y0209540D01*
X0106280Y0209473D01*
X0106267Y0209406D01*
X0106258Y0209338D01*
X0106252Y0209269D01*
X0106250Y0209200D01*
X0106250Y0209450D02*
X0106250Y0208450D01*
X0106250Y0209450D02*
X0106248Y0209512D01*
X0106242Y0209573D01*
X0106233Y0209634D01*
X0106220Y0209694D01*
X0106203Y0209753D01*
X0106182Y0209811D01*
X0106158Y0209868D01*
X0106131Y0209923D01*
X0106100Y0209976D01*
X0106066Y0210028D01*
X0106029Y0210077D01*
X0105989Y0210124D01*
X0105946Y0210168D01*
X0105901Y0210209D01*
X0105853Y0210248D01*
X0105802Y0210284D01*
X0105750Y0210316D01*
X0105696Y0210345D01*
X0105640Y0210371D01*
X0105582Y0210393D01*
X0105524Y0210412D01*
X0105464Y0210427D01*
X0105403Y0210438D01*
X0105342Y0210446D01*
X0105281Y0210450D01*
X0105219Y0210450D01*
X0105158Y0210446D01*
X0105097Y0210438D01*
X0105036Y0210427D01*
X0104976Y0210412D01*
X0104918Y0210393D01*
X0104860Y0210371D01*
X0104804Y0210345D01*
X0104750Y0210316D01*
X0104698Y0210284D01*
X0104647Y0210248D01*
X0104599Y0210209D01*
X0104554Y0210168D01*
X0104511Y0210124D01*
X0104471Y0210077D01*
X0104434Y0210028D01*
X0104400Y0209976D01*
X0104369Y0209923D01*
X0104342Y0209868D01*
X0104318Y0209811D01*
X0104297Y0209753D01*
X0104280Y0209694D01*
X0104267Y0209634D01*
X0104258Y0209573D01*
X0104252Y0209512D01*
X0104250Y0209450D01*
X0104250Y0207950D01*
X0097750Y0204717D02*
X0097750Y0202217D01*
X0095250Y0204342D01*
X0093250Y0203592D02*
X0093252Y0203519D01*
X0093257Y0203447D01*
X0093266Y0203375D01*
X0093279Y0203303D01*
X0093295Y0203232D01*
X0093315Y0203162D01*
X0093339Y0203094D01*
X0093365Y0203026D01*
X0093396Y0202960D01*
X0093429Y0202895D01*
X0093466Y0202833D01*
X0093505Y0202772D01*
X0093548Y0202713D01*
X0093594Y0202656D01*
X0093642Y0202602D01*
X0093693Y0202551D01*
X0093747Y0202501D01*
X0093803Y0202455D01*
X0093861Y0202412D01*
X0093922Y0202371D01*
X0093984Y0202334D01*
X0094048Y0202300D01*
X0094114Y0202269D01*
X0094181Y0202241D01*
X0094250Y0202217D01*
X0095250Y0204342D02*
X0095204Y0204388D01*
X0095155Y0204432D01*
X0095104Y0204472D01*
X0095051Y0204510D01*
X0094996Y0204545D01*
X0094939Y0204577D01*
X0094881Y0204606D01*
X0094821Y0204632D01*
X0094759Y0204654D01*
X0094697Y0204673D01*
X0094634Y0204689D01*
X0094570Y0204701D01*
X0094505Y0204710D01*
X0094440Y0204715D01*
X0094375Y0204717D01*
X0094310Y0204715D01*
X0094244Y0204709D01*
X0094180Y0204700D01*
X0094116Y0204687D01*
X0094052Y0204670D01*
X0093990Y0204649D01*
X0093929Y0204625D01*
X0093870Y0204597D01*
X0093813Y0204566D01*
X0093757Y0204532D01*
X0093703Y0204494D01*
X0093652Y0204454D01*
X0093603Y0204410D01*
X0093557Y0204364D01*
X0093513Y0204315D01*
X0093473Y0204264D01*
X0093435Y0204210D01*
X0093401Y0204155D01*
X0093370Y0204097D01*
X0093342Y0204038D01*
X0093318Y0203977D01*
X0093297Y0203915D01*
X0093280Y0203851D01*
X0093267Y0203787D01*
X0093258Y0203723D01*
X0093252Y0203657D01*
X0093250Y0203592D01*
X0097750Y0200217D02*
X0097750Y0197717D01*
X0097750Y0198967D02*
X0093250Y0198967D01*
X0094250Y0197717D01*
X0093250Y0194500D02*
X0093252Y0194569D01*
X0093258Y0194638D01*
X0093267Y0194706D01*
X0093280Y0194773D01*
X0093297Y0194840D01*
X0093318Y0194906D01*
X0093342Y0194970D01*
X0093370Y0195033D01*
X0093401Y0195095D01*
X0093435Y0195155D01*
X0093473Y0195212D01*
X0093514Y0195268D01*
X0093557Y0195321D01*
X0093604Y0195372D01*
X0093653Y0195420D01*
X0093705Y0195465D01*
X0093760Y0195507D01*
X0093816Y0195546D01*
X0093875Y0195583D01*
X0093936Y0195615D01*
X0093998Y0195645D01*
X0094062Y0195671D01*
X0094127Y0195693D01*
X0094193Y0195712D01*
X0094260Y0195727D01*
X0094328Y0195738D01*
X0094397Y0195746D01*
X0094466Y0195750D01*
X0094534Y0195750D01*
X0094603Y0195746D01*
X0094672Y0195738D01*
X0094740Y0195727D01*
X0094807Y0195712D01*
X0094873Y0195693D01*
X0094938Y0195671D01*
X0095002Y0195645D01*
X0095064Y0195615D01*
X0095125Y0195583D01*
X0095184Y0195546D01*
X0095240Y0195507D01*
X0095295Y0195465D01*
X0095347Y0195420D01*
X0095396Y0195372D01*
X0095443Y0195321D01*
X0095486Y0195268D01*
X0095527Y0195212D01*
X0095565Y0195155D01*
X0095599Y0195095D01*
X0095630Y0195033D01*
X0095658Y0194970D01*
X0095682Y0194906D01*
X0095703Y0194840D01*
X0095720Y0194773D01*
X0095733Y0194706D01*
X0095742Y0194638D01*
X0095748Y0194569D01*
X0095750Y0194500D01*
X0095750Y0193250D01*
X0095750Y0194750D02*
X0097750Y0195750D01*
X0097750Y0193250D02*
X0093250Y0193250D01*
X0093250Y0194500D01*
X0114750Y0214750D02*
X0113750Y0216000D01*
X0118250Y0216000D01*
X0118250Y0214750D02*
X0118250Y0217250D01*
X0044750Y0234750D02*
X0044750Y0235750D01*
X0044750Y0235250D02*
X0040250Y0235250D01*
X0040250Y0234750D02*
X0040250Y0235750D01*
X0041250Y0237585D02*
X0043750Y0237585D01*
X0043810Y0237587D01*
X0043871Y0237592D01*
X0043930Y0237601D01*
X0043989Y0237614D01*
X0044048Y0237630D01*
X0044105Y0237650D01*
X0044160Y0237673D01*
X0044215Y0237700D01*
X0044267Y0237729D01*
X0044318Y0237762D01*
X0044367Y0237798D01*
X0044413Y0237836D01*
X0044457Y0237878D01*
X0044499Y0237922D01*
X0044537Y0237968D01*
X0044573Y0238017D01*
X0044606Y0238068D01*
X0044635Y0238120D01*
X0044662Y0238175D01*
X0044685Y0238230D01*
X0044705Y0238287D01*
X0044721Y0238346D01*
X0044734Y0238405D01*
X0044743Y0238464D01*
X0044748Y0238525D01*
X0044750Y0238585D01*
X0044750Y0239585D01*
X0044750Y0241350D02*
X0044750Y0243850D01*
X0044750Y0242600D02*
X0040250Y0242600D01*
X0041250Y0241350D01*
X0040250Y0239585D02*
X0040250Y0238585D01*
X0040252Y0238525D01*
X0040257Y0238464D01*
X0040266Y0238405D01*
X0040279Y0238346D01*
X0040295Y0238287D01*
X0040315Y0238230D01*
X0040338Y0238175D01*
X0040365Y0238120D01*
X0040394Y0238068D01*
X0040427Y0238017D01*
X0040463Y0237968D01*
X0040501Y0237922D01*
X0040543Y0237878D01*
X0040587Y0237836D01*
X0040633Y0237798D01*
X0040682Y0237762D01*
X0040733Y0237729D01*
X0040785Y0237700D01*
X0040840Y0237673D01*
X0040895Y0237650D01*
X0040952Y0237630D01*
X0041011Y0237614D01*
X0041070Y0237601D01*
X0041129Y0237592D01*
X0041190Y0237587D01*
X0041250Y0237585D01*
X0044750Y0193850D02*
X0044750Y0191350D01*
X0042250Y0193475D01*
X0040250Y0192725D02*
X0040252Y0192652D01*
X0040257Y0192580D01*
X0040266Y0192508D01*
X0040279Y0192436D01*
X0040295Y0192365D01*
X0040315Y0192295D01*
X0040339Y0192227D01*
X0040365Y0192159D01*
X0040396Y0192093D01*
X0040429Y0192028D01*
X0040466Y0191966D01*
X0040505Y0191905D01*
X0040548Y0191846D01*
X0040594Y0191789D01*
X0040642Y0191735D01*
X0040693Y0191684D01*
X0040747Y0191634D01*
X0040803Y0191588D01*
X0040861Y0191545D01*
X0040922Y0191504D01*
X0040984Y0191467D01*
X0041048Y0191433D01*
X0041114Y0191402D01*
X0041181Y0191374D01*
X0041250Y0191350D01*
X0042250Y0193475D02*
X0042204Y0193521D01*
X0042155Y0193565D01*
X0042104Y0193605D01*
X0042051Y0193643D01*
X0041996Y0193678D01*
X0041939Y0193710D01*
X0041881Y0193739D01*
X0041821Y0193765D01*
X0041759Y0193787D01*
X0041697Y0193806D01*
X0041634Y0193822D01*
X0041570Y0193834D01*
X0041505Y0193843D01*
X0041440Y0193848D01*
X0041375Y0193850D01*
X0041310Y0193848D01*
X0041244Y0193842D01*
X0041180Y0193833D01*
X0041116Y0193820D01*
X0041052Y0193803D01*
X0040990Y0193782D01*
X0040929Y0193758D01*
X0040870Y0193730D01*
X0040813Y0193699D01*
X0040757Y0193665D01*
X0040703Y0193627D01*
X0040652Y0193587D01*
X0040603Y0193543D01*
X0040557Y0193497D01*
X0040513Y0193448D01*
X0040473Y0193397D01*
X0040435Y0193343D01*
X0040401Y0193288D01*
X0040370Y0193230D01*
X0040342Y0193171D01*
X0040318Y0193110D01*
X0040297Y0193048D01*
X0040280Y0192984D01*
X0040267Y0192920D01*
X0040258Y0192856D01*
X0040252Y0192790D01*
X0040250Y0192725D01*
X0040250Y0189585D02*
X0040250Y0188585D01*
X0040252Y0188525D01*
X0040257Y0188464D01*
X0040266Y0188405D01*
X0040279Y0188346D01*
X0040295Y0188287D01*
X0040315Y0188230D01*
X0040338Y0188175D01*
X0040365Y0188120D01*
X0040394Y0188068D01*
X0040427Y0188017D01*
X0040463Y0187968D01*
X0040501Y0187922D01*
X0040543Y0187878D01*
X0040587Y0187836D01*
X0040633Y0187798D01*
X0040682Y0187762D01*
X0040733Y0187729D01*
X0040785Y0187700D01*
X0040840Y0187673D01*
X0040895Y0187650D01*
X0040952Y0187630D01*
X0041011Y0187614D01*
X0041070Y0187601D01*
X0041129Y0187592D01*
X0041190Y0187587D01*
X0041250Y0187585D01*
X0043750Y0187585D01*
X0043810Y0187587D01*
X0043871Y0187592D01*
X0043930Y0187601D01*
X0043989Y0187614D01*
X0044048Y0187630D01*
X0044105Y0187650D01*
X0044160Y0187673D01*
X0044215Y0187700D01*
X0044267Y0187729D01*
X0044318Y0187762D01*
X0044367Y0187798D01*
X0044413Y0187836D01*
X0044457Y0187878D01*
X0044499Y0187922D01*
X0044537Y0187968D01*
X0044573Y0188017D01*
X0044606Y0188068D01*
X0044635Y0188120D01*
X0044662Y0188175D01*
X0044685Y0188230D01*
X0044705Y0188287D01*
X0044721Y0188346D01*
X0044734Y0188405D01*
X0044743Y0188464D01*
X0044748Y0188525D01*
X0044750Y0188585D01*
X0044750Y0189585D01*
X0044750Y0185750D02*
X0044750Y0184750D01*
X0044750Y0185250D02*
X0040250Y0185250D01*
X0040250Y0184750D02*
X0040250Y0185750D01*
D14*
X0087200Y0150754D02*
X0087202Y0150811D01*
X0087207Y0150868D01*
X0087217Y0150925D01*
X0087230Y0150980D01*
X0087246Y0151035D01*
X0087267Y0151089D01*
X0087290Y0151141D01*
X0087317Y0151192D01*
X0087347Y0151240D01*
X0087381Y0151287D01*
X0087417Y0151331D01*
X0087456Y0151373D01*
X0087498Y0151412D01*
X0087542Y0151448D01*
X0087589Y0151482D01*
X0087638Y0151512D01*
X0087688Y0151539D01*
X0087740Y0151562D01*
X0087794Y0151583D01*
X0087849Y0151599D01*
X0087904Y0151612D01*
X0087961Y0151622D01*
X0088018Y0151627D01*
X0088075Y0151629D01*
X0088756Y0151337D02*
X0090700Y0149684D01*
X0090700Y0151629D01*
X0087978Y0149685D02*
X0087917Y0149706D01*
X0087858Y0149731D01*
X0087800Y0149759D01*
X0087744Y0149791D01*
X0087690Y0149826D01*
X0087638Y0149863D01*
X0087588Y0149904D01*
X0087541Y0149947D01*
X0087496Y0149994D01*
X0087454Y0150042D01*
X0087415Y0150093D01*
X0087379Y0150146D01*
X0087345Y0150201D01*
X0087315Y0150258D01*
X0087289Y0150316D01*
X0087265Y0150376D01*
X0087246Y0150437D01*
X0087229Y0150499D01*
X0087216Y0150562D01*
X0087207Y0150626D01*
X0087202Y0150690D01*
X0087200Y0150754D01*
X0088075Y0151629D02*
X0088134Y0151627D01*
X0088192Y0151622D01*
X0088250Y0151613D01*
X0088307Y0151600D01*
X0088363Y0151584D01*
X0088418Y0151564D01*
X0088472Y0151541D01*
X0088524Y0151515D01*
X0088575Y0151485D01*
X0088623Y0151452D01*
X0088670Y0151417D01*
X0088714Y0151378D01*
X0088756Y0151337D01*
X0090700Y0148144D02*
X0089144Y0147367D01*
X0089144Y0147172D02*
X0089144Y0146200D01*
X0089144Y0147172D02*
X0089142Y0147233D01*
X0089136Y0147294D01*
X0089127Y0147354D01*
X0089113Y0147414D01*
X0089096Y0147472D01*
X0089076Y0147530D01*
X0089051Y0147586D01*
X0089024Y0147640D01*
X0088993Y0147693D01*
X0088958Y0147743D01*
X0088921Y0147792D01*
X0088881Y0147837D01*
X0088837Y0147881D01*
X0088792Y0147921D01*
X0088743Y0147958D01*
X0088693Y0147993D01*
X0088640Y0148024D01*
X0088586Y0148051D01*
X0088530Y0148076D01*
X0088472Y0148096D01*
X0088414Y0148113D01*
X0088354Y0148127D01*
X0088294Y0148136D01*
X0088233Y0148142D01*
X0088172Y0148144D01*
X0088111Y0148142D01*
X0088050Y0148136D01*
X0087990Y0148127D01*
X0087930Y0148113D01*
X0087872Y0148096D01*
X0087814Y0148076D01*
X0087758Y0148051D01*
X0087704Y0148024D01*
X0087651Y0147993D01*
X0087601Y0147958D01*
X0087552Y0147921D01*
X0087507Y0147881D01*
X0087463Y0147837D01*
X0087423Y0147792D01*
X0087386Y0147743D01*
X0087351Y0147693D01*
X0087320Y0147640D01*
X0087293Y0147586D01*
X0087268Y0147530D01*
X0087248Y0147472D01*
X0087231Y0147414D01*
X0087217Y0147354D01*
X0087208Y0147294D01*
X0087202Y0147233D01*
X0087200Y0147172D01*
X0087200Y0146200D01*
X0090700Y0146200D01*
X0121300Y0160371D02*
X0121300Y0161344D01*
X0121302Y0161405D01*
X0121308Y0161466D01*
X0121317Y0161526D01*
X0121331Y0161586D01*
X0121348Y0161644D01*
X0121368Y0161702D01*
X0121393Y0161758D01*
X0121420Y0161812D01*
X0121451Y0161865D01*
X0121486Y0161915D01*
X0121523Y0161964D01*
X0121563Y0162009D01*
X0121607Y0162053D01*
X0121652Y0162093D01*
X0121701Y0162130D01*
X0121751Y0162165D01*
X0121804Y0162196D01*
X0121858Y0162223D01*
X0121914Y0162248D01*
X0121972Y0162268D01*
X0122030Y0162285D01*
X0122090Y0162299D01*
X0122150Y0162308D01*
X0122211Y0162314D01*
X0122272Y0162316D01*
X0122333Y0162314D01*
X0122394Y0162308D01*
X0122454Y0162299D01*
X0122514Y0162285D01*
X0122572Y0162268D01*
X0122630Y0162248D01*
X0122686Y0162223D01*
X0122740Y0162196D01*
X0122793Y0162165D01*
X0122843Y0162130D01*
X0122892Y0162093D01*
X0122937Y0162053D01*
X0122981Y0162009D01*
X0123021Y0161964D01*
X0123058Y0161915D01*
X0123093Y0161865D01*
X0123124Y0161812D01*
X0123151Y0161758D01*
X0123176Y0161702D01*
X0123196Y0161644D01*
X0123213Y0161586D01*
X0123227Y0161526D01*
X0123236Y0161466D01*
X0123242Y0161405D01*
X0123244Y0161344D01*
X0123244Y0160371D01*
X0123244Y0161538D02*
X0124800Y0162316D01*
X0124800Y0163856D02*
X0124800Y0164828D01*
X0124798Y0164889D01*
X0124792Y0164950D01*
X0124783Y0165010D01*
X0124769Y0165070D01*
X0124752Y0165128D01*
X0124732Y0165186D01*
X0124707Y0165242D01*
X0124680Y0165296D01*
X0124649Y0165349D01*
X0124614Y0165399D01*
X0124577Y0165448D01*
X0124537Y0165493D01*
X0124493Y0165537D01*
X0124448Y0165577D01*
X0124399Y0165614D01*
X0124349Y0165649D01*
X0124296Y0165680D01*
X0124242Y0165707D01*
X0124186Y0165732D01*
X0124128Y0165752D01*
X0124070Y0165769D01*
X0124010Y0165783D01*
X0123950Y0165792D01*
X0123889Y0165798D01*
X0123828Y0165800D01*
X0123767Y0165798D01*
X0123706Y0165792D01*
X0123646Y0165783D01*
X0123586Y0165769D01*
X0123528Y0165752D01*
X0123470Y0165732D01*
X0123414Y0165707D01*
X0123360Y0165680D01*
X0123307Y0165649D01*
X0123257Y0165614D01*
X0123208Y0165577D01*
X0123163Y0165537D01*
X0123119Y0165493D01*
X0123079Y0165448D01*
X0123042Y0165399D01*
X0123007Y0165349D01*
X0122976Y0165296D01*
X0122949Y0165242D01*
X0122924Y0165186D01*
X0122904Y0165128D01*
X0122887Y0165070D01*
X0122873Y0165010D01*
X0122864Y0164950D01*
X0122858Y0164889D01*
X0122856Y0164828D01*
X0122856Y0165022D02*
X0122856Y0164244D01*
X0122856Y0165022D02*
X0122854Y0165078D01*
X0122848Y0165133D01*
X0122838Y0165187D01*
X0122824Y0165241D01*
X0122807Y0165294D01*
X0122786Y0165345D01*
X0122761Y0165395D01*
X0122732Y0165443D01*
X0122701Y0165488D01*
X0122666Y0165531D01*
X0122628Y0165572D01*
X0122587Y0165610D01*
X0122544Y0165645D01*
X0122499Y0165676D01*
X0122451Y0165705D01*
X0122401Y0165730D01*
X0122350Y0165751D01*
X0122297Y0165768D01*
X0122243Y0165782D01*
X0122189Y0165792D01*
X0122134Y0165798D01*
X0122078Y0165800D01*
X0122022Y0165798D01*
X0121967Y0165792D01*
X0121913Y0165782D01*
X0121859Y0165768D01*
X0121806Y0165751D01*
X0121755Y0165730D01*
X0121705Y0165705D01*
X0121657Y0165676D01*
X0121612Y0165645D01*
X0121569Y0165610D01*
X0121528Y0165572D01*
X0121490Y0165531D01*
X0121455Y0165488D01*
X0121424Y0165443D01*
X0121395Y0165395D01*
X0121370Y0165345D01*
X0121349Y0165294D01*
X0121332Y0165241D01*
X0121318Y0165187D01*
X0121308Y0165133D01*
X0121302Y0165078D01*
X0121300Y0165022D01*
X0121300Y0163856D01*
X0121300Y0160371D02*
X0124800Y0160371D01*
X0141300Y0160371D02*
X0141300Y0161344D01*
X0141302Y0161405D01*
X0141308Y0161466D01*
X0141317Y0161526D01*
X0141331Y0161586D01*
X0141348Y0161644D01*
X0141368Y0161702D01*
X0141393Y0161758D01*
X0141420Y0161812D01*
X0141451Y0161865D01*
X0141486Y0161915D01*
X0141523Y0161964D01*
X0141563Y0162009D01*
X0141607Y0162053D01*
X0141652Y0162093D01*
X0141701Y0162130D01*
X0141751Y0162165D01*
X0141804Y0162196D01*
X0141858Y0162223D01*
X0141914Y0162248D01*
X0141972Y0162268D01*
X0142030Y0162285D01*
X0142090Y0162299D01*
X0142150Y0162308D01*
X0142211Y0162314D01*
X0142272Y0162316D01*
X0142333Y0162314D01*
X0142394Y0162308D01*
X0142454Y0162299D01*
X0142514Y0162285D01*
X0142572Y0162268D01*
X0142630Y0162248D01*
X0142686Y0162223D01*
X0142740Y0162196D01*
X0142793Y0162165D01*
X0142843Y0162130D01*
X0142892Y0162093D01*
X0142937Y0162053D01*
X0142981Y0162009D01*
X0143021Y0161964D01*
X0143058Y0161915D01*
X0143093Y0161865D01*
X0143124Y0161812D01*
X0143151Y0161758D01*
X0143176Y0161702D01*
X0143196Y0161644D01*
X0143213Y0161586D01*
X0143227Y0161526D01*
X0143236Y0161466D01*
X0143242Y0161405D01*
X0143244Y0161344D01*
X0143244Y0160371D01*
X0143244Y0161538D02*
X0144800Y0162316D01*
X0144022Y0163856D02*
X0144022Y0165800D01*
X0143244Y0165217D02*
X0144800Y0165217D01*
X0144022Y0163856D02*
X0141300Y0164633D01*
X0141300Y0160371D02*
X0144800Y0160371D01*
X0161300Y0160371D02*
X0161300Y0161344D01*
X0161302Y0161405D01*
X0161308Y0161466D01*
X0161317Y0161526D01*
X0161331Y0161586D01*
X0161348Y0161644D01*
X0161368Y0161702D01*
X0161393Y0161758D01*
X0161420Y0161812D01*
X0161451Y0161865D01*
X0161486Y0161915D01*
X0161523Y0161964D01*
X0161563Y0162009D01*
X0161607Y0162053D01*
X0161652Y0162093D01*
X0161701Y0162130D01*
X0161751Y0162165D01*
X0161804Y0162196D01*
X0161858Y0162223D01*
X0161914Y0162248D01*
X0161972Y0162268D01*
X0162030Y0162285D01*
X0162090Y0162299D01*
X0162150Y0162308D01*
X0162211Y0162314D01*
X0162272Y0162316D01*
X0162333Y0162314D01*
X0162394Y0162308D01*
X0162454Y0162299D01*
X0162514Y0162285D01*
X0162572Y0162268D01*
X0162630Y0162248D01*
X0162686Y0162223D01*
X0162740Y0162196D01*
X0162793Y0162165D01*
X0162843Y0162130D01*
X0162892Y0162093D01*
X0162937Y0162053D01*
X0162981Y0162009D01*
X0163021Y0161964D01*
X0163058Y0161915D01*
X0163093Y0161865D01*
X0163124Y0161812D01*
X0163151Y0161758D01*
X0163176Y0161702D01*
X0163196Y0161644D01*
X0163213Y0161586D01*
X0163227Y0161526D01*
X0163236Y0161466D01*
X0163242Y0161405D01*
X0163244Y0161344D01*
X0163244Y0160371D01*
X0163244Y0161538D02*
X0164800Y0162316D01*
X0163828Y0163856D02*
X0162856Y0163856D01*
X0162856Y0165022D01*
X0162856Y0163855D02*
X0162777Y0163857D01*
X0162699Y0163863D01*
X0162620Y0163873D01*
X0162543Y0163887D01*
X0162466Y0163905D01*
X0162390Y0163926D01*
X0162316Y0163952D01*
X0162242Y0163981D01*
X0162171Y0164014D01*
X0162101Y0164051D01*
X0162033Y0164091D01*
X0161967Y0164134D01*
X0161904Y0164181D01*
X0161842Y0164230D01*
X0161784Y0164283D01*
X0161728Y0164339D01*
X0161675Y0164397D01*
X0161626Y0164459D01*
X0161579Y0164522D01*
X0161536Y0164588D01*
X0161496Y0164656D01*
X0161459Y0164726D01*
X0161426Y0164797D01*
X0161397Y0164871D01*
X0161371Y0164945D01*
X0161350Y0165021D01*
X0161332Y0165098D01*
X0161318Y0165175D01*
X0161308Y0165254D01*
X0161302Y0165332D01*
X0161300Y0165411D01*
X0162855Y0165022D02*
X0162857Y0165078D01*
X0162863Y0165133D01*
X0162873Y0165187D01*
X0162887Y0165241D01*
X0162904Y0165294D01*
X0162925Y0165345D01*
X0162950Y0165395D01*
X0162979Y0165443D01*
X0163010Y0165488D01*
X0163045Y0165531D01*
X0163083Y0165572D01*
X0163124Y0165610D01*
X0163167Y0165645D01*
X0163212Y0165676D01*
X0163260Y0165705D01*
X0163310Y0165730D01*
X0163361Y0165751D01*
X0163414Y0165768D01*
X0163468Y0165782D01*
X0163522Y0165792D01*
X0163577Y0165798D01*
X0163633Y0165800D01*
X0163828Y0165800D01*
X0163889Y0165798D01*
X0163950Y0165792D01*
X0164010Y0165783D01*
X0164070Y0165769D01*
X0164128Y0165752D01*
X0164186Y0165732D01*
X0164242Y0165707D01*
X0164296Y0165680D01*
X0164349Y0165649D01*
X0164399Y0165614D01*
X0164448Y0165577D01*
X0164493Y0165537D01*
X0164537Y0165493D01*
X0164577Y0165448D01*
X0164614Y0165399D01*
X0164649Y0165349D01*
X0164680Y0165296D01*
X0164707Y0165242D01*
X0164732Y0165186D01*
X0164752Y0165128D01*
X0164769Y0165070D01*
X0164783Y0165010D01*
X0164792Y0164950D01*
X0164798Y0164889D01*
X0164800Y0164828D01*
X0164798Y0164767D01*
X0164792Y0164706D01*
X0164783Y0164646D01*
X0164769Y0164586D01*
X0164752Y0164528D01*
X0164732Y0164470D01*
X0164707Y0164414D01*
X0164680Y0164360D01*
X0164649Y0164307D01*
X0164614Y0164257D01*
X0164577Y0164208D01*
X0164537Y0164163D01*
X0164493Y0164119D01*
X0164448Y0164079D01*
X0164399Y0164042D01*
X0164349Y0164007D01*
X0164296Y0163976D01*
X0164242Y0163949D01*
X0164186Y0163924D01*
X0164128Y0163904D01*
X0164070Y0163887D01*
X0164010Y0163873D01*
X0163950Y0163864D01*
X0163889Y0163858D01*
X0163828Y0163856D01*
X0164800Y0160371D02*
X0161300Y0160371D01*
X0172978Y0154944D02*
X0174922Y0153389D01*
X0175214Y0153486D02*
X0175263Y0153505D01*
X0175311Y0153527D01*
X0175356Y0153553D01*
X0175400Y0153582D01*
X0175442Y0153614D01*
X0175481Y0153649D01*
X0175517Y0153687D01*
X0175550Y0153727D01*
X0175581Y0153770D01*
X0175608Y0153815D01*
X0175632Y0153861D01*
X0175653Y0153909D01*
X0175670Y0153959D01*
X0175683Y0154010D01*
X0175692Y0154061D01*
X0175698Y0154114D01*
X0175700Y0154166D01*
X0175698Y0154218D01*
X0175692Y0154271D01*
X0175683Y0154322D01*
X0175670Y0154373D01*
X0175653Y0154423D01*
X0175632Y0154471D01*
X0175608Y0154517D01*
X0175581Y0154562D01*
X0175550Y0154605D01*
X0175517Y0154645D01*
X0175481Y0154683D01*
X0175442Y0154718D01*
X0175400Y0154750D01*
X0175356Y0154779D01*
X0175311Y0154805D01*
X0175263Y0154827D01*
X0175214Y0154846D01*
X0173950Y0153194D02*
X0173849Y0153196D01*
X0173749Y0153201D01*
X0173649Y0153210D01*
X0173549Y0153222D01*
X0173449Y0153238D01*
X0173351Y0153257D01*
X0173253Y0153280D01*
X0173155Y0153306D01*
X0173059Y0153335D01*
X0172964Y0153368D01*
X0172870Y0153404D01*
X0172777Y0153443D01*
X0172686Y0153486D01*
X0172200Y0154166D02*
X0172202Y0154218D01*
X0172208Y0154271D01*
X0172217Y0154322D01*
X0172230Y0154373D01*
X0172247Y0154423D01*
X0172268Y0154471D01*
X0172292Y0154518D01*
X0172319Y0154562D01*
X0172350Y0154605D01*
X0172383Y0154645D01*
X0172419Y0154683D01*
X0172458Y0154718D01*
X0172500Y0154750D01*
X0172544Y0154779D01*
X0172589Y0154805D01*
X0172637Y0154827D01*
X0172686Y0154846D01*
X0172200Y0154166D02*
X0172202Y0154114D01*
X0172208Y0154061D01*
X0172217Y0154010D01*
X0172230Y0153959D01*
X0172247Y0153909D01*
X0172268Y0153861D01*
X0172292Y0153815D01*
X0172319Y0153770D01*
X0172350Y0153727D01*
X0172383Y0153687D01*
X0172419Y0153649D01*
X0172458Y0153614D01*
X0172500Y0153582D01*
X0172544Y0153553D01*
X0172589Y0153527D01*
X0172637Y0153505D01*
X0172686Y0153486D01*
X0172686Y0154846D02*
X0172777Y0154889D01*
X0172870Y0154928D01*
X0172964Y0154964D01*
X0173059Y0154997D01*
X0173155Y0155026D01*
X0173253Y0155052D01*
X0173351Y0155075D01*
X0173449Y0155094D01*
X0173549Y0155110D01*
X0173649Y0155122D01*
X0173749Y0155131D01*
X0173849Y0155136D01*
X0173950Y0155138D01*
X0173950Y0153194D02*
X0174051Y0153196D01*
X0174151Y0153201D01*
X0174251Y0153210D01*
X0174351Y0153222D01*
X0174451Y0153238D01*
X0174549Y0153257D01*
X0174647Y0153280D01*
X0174745Y0153306D01*
X0174841Y0153335D01*
X0174936Y0153368D01*
X0175030Y0153404D01*
X0175123Y0153443D01*
X0175214Y0153486D01*
X0175214Y0154846D02*
X0175123Y0154889D01*
X0175030Y0154928D01*
X0174936Y0154964D01*
X0174841Y0154997D01*
X0174745Y0155026D01*
X0174647Y0155052D01*
X0174549Y0155075D01*
X0174451Y0155094D01*
X0174351Y0155110D01*
X0174251Y0155122D01*
X0174151Y0155131D01*
X0174051Y0155136D01*
X0173950Y0155138D01*
X0175700Y0151629D02*
X0175700Y0149684D01*
X0175700Y0150656D02*
X0172200Y0150656D01*
X0172978Y0149684D01*
X0172200Y0147172D02*
X0172202Y0147233D01*
X0172208Y0147294D01*
X0172217Y0147354D01*
X0172231Y0147414D01*
X0172248Y0147472D01*
X0172268Y0147530D01*
X0172293Y0147586D01*
X0172320Y0147640D01*
X0172351Y0147693D01*
X0172386Y0147743D01*
X0172423Y0147792D01*
X0172463Y0147837D01*
X0172507Y0147881D01*
X0172552Y0147921D01*
X0172601Y0147958D01*
X0172651Y0147993D01*
X0172704Y0148024D01*
X0172758Y0148051D01*
X0172814Y0148076D01*
X0172872Y0148096D01*
X0172930Y0148113D01*
X0172990Y0148127D01*
X0173050Y0148136D01*
X0173111Y0148142D01*
X0173172Y0148144D01*
X0173233Y0148142D01*
X0173294Y0148136D01*
X0173354Y0148127D01*
X0173414Y0148113D01*
X0173472Y0148096D01*
X0173530Y0148076D01*
X0173586Y0148051D01*
X0173640Y0148024D01*
X0173693Y0147993D01*
X0173743Y0147958D01*
X0173792Y0147921D01*
X0173837Y0147881D01*
X0173881Y0147837D01*
X0173921Y0147792D01*
X0173958Y0147743D01*
X0173993Y0147693D01*
X0174024Y0147640D01*
X0174051Y0147586D01*
X0174076Y0147530D01*
X0174096Y0147472D01*
X0174113Y0147414D01*
X0174127Y0147354D01*
X0174136Y0147294D01*
X0174142Y0147233D01*
X0174144Y0147172D01*
X0174144Y0146200D01*
X0174144Y0147367D02*
X0175700Y0148144D01*
X0175700Y0146200D02*
X0172200Y0146200D01*
X0172200Y0147172D01*
X0192200Y0147172D02*
X0192200Y0146200D01*
X0195700Y0146200D01*
X0194144Y0146200D02*
X0194144Y0147172D01*
X0194144Y0147367D02*
X0195700Y0148144D01*
X0194728Y0149684D02*
X0194789Y0149686D01*
X0194850Y0149692D01*
X0194910Y0149701D01*
X0194970Y0149715D01*
X0195028Y0149732D01*
X0195086Y0149752D01*
X0195142Y0149777D01*
X0195196Y0149804D01*
X0195249Y0149835D01*
X0195299Y0149870D01*
X0195348Y0149907D01*
X0195393Y0149947D01*
X0195437Y0149991D01*
X0195477Y0150036D01*
X0195514Y0150085D01*
X0195549Y0150135D01*
X0195580Y0150188D01*
X0195607Y0150242D01*
X0195632Y0150298D01*
X0195652Y0150356D01*
X0195669Y0150414D01*
X0195683Y0150474D01*
X0195692Y0150534D01*
X0195698Y0150595D01*
X0195700Y0150656D01*
X0195698Y0150717D01*
X0195692Y0150778D01*
X0195683Y0150838D01*
X0195669Y0150898D01*
X0195652Y0150956D01*
X0195632Y0151014D01*
X0195607Y0151070D01*
X0195580Y0151124D01*
X0195549Y0151177D01*
X0195514Y0151227D01*
X0195477Y0151276D01*
X0195437Y0151321D01*
X0195393Y0151365D01*
X0195348Y0151405D01*
X0195299Y0151442D01*
X0195249Y0151477D01*
X0195196Y0151508D01*
X0195142Y0151535D01*
X0195086Y0151560D01*
X0195028Y0151580D01*
X0194970Y0151597D01*
X0194910Y0151611D01*
X0194850Y0151620D01*
X0194789Y0151626D01*
X0194728Y0151628D01*
X0194667Y0151626D01*
X0194606Y0151620D01*
X0194546Y0151611D01*
X0194486Y0151597D01*
X0194428Y0151580D01*
X0194370Y0151560D01*
X0194314Y0151535D01*
X0194260Y0151508D01*
X0194207Y0151477D01*
X0194157Y0151442D01*
X0194108Y0151405D01*
X0194063Y0151365D01*
X0194019Y0151321D01*
X0193979Y0151276D01*
X0193942Y0151227D01*
X0193907Y0151177D01*
X0193876Y0151124D01*
X0193849Y0151070D01*
X0193824Y0151014D01*
X0193804Y0150956D01*
X0193787Y0150898D01*
X0193773Y0150838D01*
X0193764Y0150778D01*
X0193758Y0150717D01*
X0193756Y0150656D01*
X0193758Y0150595D01*
X0193764Y0150534D01*
X0193773Y0150474D01*
X0193787Y0150414D01*
X0193804Y0150356D01*
X0193824Y0150298D01*
X0193849Y0150242D01*
X0193876Y0150188D01*
X0193907Y0150135D01*
X0193942Y0150085D01*
X0193979Y0150036D01*
X0194019Y0149991D01*
X0194063Y0149947D01*
X0194108Y0149907D01*
X0194157Y0149870D01*
X0194207Y0149835D01*
X0194260Y0149804D01*
X0194314Y0149777D01*
X0194370Y0149752D01*
X0194428Y0149732D01*
X0194486Y0149715D01*
X0194546Y0149701D01*
X0194606Y0149692D01*
X0194667Y0149686D01*
X0194728Y0149684D01*
X0192978Y0149878D02*
X0193034Y0149880D01*
X0193089Y0149886D01*
X0193143Y0149896D01*
X0193197Y0149910D01*
X0193250Y0149927D01*
X0193301Y0149948D01*
X0193351Y0149973D01*
X0193399Y0150002D01*
X0193444Y0150033D01*
X0193487Y0150068D01*
X0193528Y0150106D01*
X0193566Y0150147D01*
X0193601Y0150190D01*
X0193632Y0150235D01*
X0193661Y0150283D01*
X0193686Y0150333D01*
X0193707Y0150384D01*
X0193724Y0150437D01*
X0193738Y0150491D01*
X0193748Y0150545D01*
X0193754Y0150600D01*
X0193756Y0150656D01*
X0193754Y0150712D01*
X0193748Y0150767D01*
X0193738Y0150821D01*
X0193724Y0150875D01*
X0193707Y0150928D01*
X0193686Y0150979D01*
X0193661Y0151029D01*
X0193632Y0151077D01*
X0193601Y0151122D01*
X0193566Y0151165D01*
X0193528Y0151206D01*
X0193487Y0151244D01*
X0193444Y0151279D01*
X0193399Y0151310D01*
X0193351Y0151339D01*
X0193301Y0151364D01*
X0193250Y0151385D01*
X0193197Y0151402D01*
X0193143Y0151416D01*
X0193089Y0151426D01*
X0193034Y0151432D01*
X0192978Y0151434D01*
X0192922Y0151432D01*
X0192867Y0151426D01*
X0192813Y0151416D01*
X0192759Y0151402D01*
X0192706Y0151385D01*
X0192655Y0151364D01*
X0192605Y0151339D01*
X0192557Y0151310D01*
X0192512Y0151279D01*
X0192469Y0151244D01*
X0192428Y0151206D01*
X0192390Y0151165D01*
X0192355Y0151122D01*
X0192324Y0151077D01*
X0192295Y0151029D01*
X0192270Y0150979D01*
X0192249Y0150928D01*
X0192232Y0150875D01*
X0192218Y0150821D01*
X0192208Y0150767D01*
X0192202Y0150712D01*
X0192200Y0150656D01*
X0192202Y0150600D01*
X0192208Y0150545D01*
X0192218Y0150491D01*
X0192232Y0150437D01*
X0192249Y0150384D01*
X0192270Y0150333D01*
X0192295Y0150283D01*
X0192324Y0150235D01*
X0192355Y0150190D01*
X0192390Y0150147D01*
X0192428Y0150106D01*
X0192469Y0150068D01*
X0192512Y0150033D01*
X0192557Y0150002D01*
X0192605Y0149973D01*
X0192655Y0149948D01*
X0192706Y0149927D01*
X0192759Y0149910D01*
X0192813Y0149896D01*
X0192867Y0149886D01*
X0192922Y0149880D01*
X0192978Y0149878D01*
X0192200Y0147172D02*
X0192202Y0147233D01*
X0192208Y0147294D01*
X0192217Y0147354D01*
X0192231Y0147414D01*
X0192248Y0147472D01*
X0192268Y0147530D01*
X0192293Y0147586D01*
X0192320Y0147640D01*
X0192351Y0147693D01*
X0192386Y0147743D01*
X0192423Y0147792D01*
X0192463Y0147837D01*
X0192507Y0147881D01*
X0192552Y0147921D01*
X0192601Y0147958D01*
X0192651Y0147993D01*
X0192704Y0148024D01*
X0192758Y0148051D01*
X0192814Y0148076D01*
X0192872Y0148096D01*
X0192930Y0148113D01*
X0192990Y0148127D01*
X0193050Y0148136D01*
X0193111Y0148142D01*
X0193172Y0148144D01*
X0193233Y0148142D01*
X0193294Y0148136D01*
X0193354Y0148127D01*
X0193414Y0148113D01*
X0193472Y0148096D01*
X0193530Y0148076D01*
X0193586Y0148051D01*
X0193640Y0148024D01*
X0193693Y0147993D01*
X0193743Y0147958D01*
X0193792Y0147921D01*
X0193837Y0147881D01*
X0193881Y0147837D01*
X0193921Y0147792D01*
X0193958Y0147743D01*
X0193993Y0147693D01*
X0194024Y0147640D01*
X0194051Y0147586D01*
X0194076Y0147530D01*
X0194096Y0147472D01*
X0194113Y0147414D01*
X0194127Y0147354D01*
X0194136Y0147294D01*
X0194142Y0147233D01*
X0194144Y0147172D01*
X0221300Y0160371D02*
X0221300Y0161344D01*
X0221302Y0161405D01*
X0221308Y0161466D01*
X0221317Y0161526D01*
X0221331Y0161586D01*
X0221348Y0161644D01*
X0221368Y0161702D01*
X0221393Y0161758D01*
X0221420Y0161812D01*
X0221451Y0161865D01*
X0221486Y0161915D01*
X0221523Y0161964D01*
X0221563Y0162009D01*
X0221607Y0162053D01*
X0221652Y0162093D01*
X0221701Y0162130D01*
X0221751Y0162165D01*
X0221804Y0162196D01*
X0221858Y0162223D01*
X0221914Y0162248D01*
X0221972Y0162268D01*
X0222030Y0162285D01*
X0222090Y0162299D01*
X0222150Y0162308D01*
X0222211Y0162314D01*
X0222272Y0162316D01*
X0222333Y0162314D01*
X0222394Y0162308D01*
X0222454Y0162299D01*
X0222514Y0162285D01*
X0222572Y0162268D01*
X0222630Y0162248D01*
X0222686Y0162223D01*
X0222740Y0162196D01*
X0222793Y0162165D01*
X0222843Y0162130D01*
X0222892Y0162093D01*
X0222937Y0162053D01*
X0222981Y0162009D01*
X0223021Y0161964D01*
X0223058Y0161915D01*
X0223093Y0161865D01*
X0223124Y0161812D01*
X0223151Y0161758D01*
X0223176Y0161702D01*
X0223196Y0161644D01*
X0223213Y0161586D01*
X0223227Y0161526D01*
X0223236Y0161466D01*
X0223242Y0161405D01*
X0223244Y0161344D01*
X0223244Y0160371D01*
X0223244Y0161538D02*
X0224800Y0162316D01*
X0224800Y0160371D02*
X0221300Y0160371D01*
X0222272Y0163856D02*
X0222467Y0163856D01*
X0222467Y0163855D02*
X0222520Y0163857D01*
X0222573Y0163862D01*
X0222625Y0163871D01*
X0222677Y0163884D01*
X0222728Y0163900D01*
X0222777Y0163919D01*
X0222825Y0163942D01*
X0222871Y0163968D01*
X0222916Y0163997D01*
X0222958Y0164029D01*
X0222998Y0164064D01*
X0223036Y0164102D01*
X0223071Y0164142D01*
X0223103Y0164184D01*
X0223132Y0164229D01*
X0223158Y0164275D01*
X0223181Y0164323D01*
X0223200Y0164372D01*
X0223216Y0164423D01*
X0223229Y0164475D01*
X0223238Y0164527D01*
X0223243Y0164580D01*
X0223245Y0164633D01*
X0223244Y0164633D02*
X0223244Y0165800D01*
X0222272Y0165800D01*
X0222211Y0165798D01*
X0222150Y0165792D01*
X0222090Y0165783D01*
X0222030Y0165769D01*
X0221972Y0165752D01*
X0221914Y0165732D01*
X0221858Y0165707D01*
X0221804Y0165680D01*
X0221751Y0165649D01*
X0221701Y0165614D01*
X0221652Y0165577D01*
X0221607Y0165537D01*
X0221563Y0165493D01*
X0221523Y0165448D01*
X0221486Y0165399D01*
X0221451Y0165349D01*
X0221420Y0165296D01*
X0221393Y0165242D01*
X0221368Y0165186D01*
X0221348Y0165128D01*
X0221331Y0165070D01*
X0221317Y0165010D01*
X0221308Y0164950D01*
X0221302Y0164889D01*
X0221300Y0164828D01*
X0221302Y0164767D01*
X0221308Y0164706D01*
X0221317Y0164646D01*
X0221331Y0164586D01*
X0221348Y0164528D01*
X0221368Y0164470D01*
X0221393Y0164414D01*
X0221420Y0164360D01*
X0221451Y0164307D01*
X0221486Y0164257D01*
X0221523Y0164208D01*
X0221563Y0164163D01*
X0221607Y0164119D01*
X0221652Y0164079D01*
X0221701Y0164042D01*
X0221751Y0164007D01*
X0221804Y0163976D01*
X0221858Y0163949D01*
X0221914Y0163924D01*
X0221972Y0163904D01*
X0222030Y0163887D01*
X0222090Y0163873D01*
X0222150Y0163864D01*
X0222211Y0163858D01*
X0222272Y0163856D01*
X0223244Y0165800D02*
X0223320Y0165798D01*
X0223397Y0165793D01*
X0223472Y0165783D01*
X0223548Y0165770D01*
X0223622Y0165753D01*
X0223696Y0165733D01*
X0223768Y0165709D01*
X0223839Y0165682D01*
X0223909Y0165651D01*
X0223977Y0165616D01*
X0224044Y0165579D01*
X0224108Y0165538D01*
X0224171Y0165494D01*
X0224231Y0165447D01*
X0224289Y0165397D01*
X0224344Y0165344D01*
X0224397Y0165289D01*
X0224447Y0165231D01*
X0224494Y0165171D01*
X0224538Y0165108D01*
X0224579Y0165044D01*
X0224616Y0164977D01*
X0224651Y0164909D01*
X0224682Y0164839D01*
X0224709Y0164768D01*
X0224733Y0164696D01*
X0224753Y0164622D01*
X0224770Y0164548D01*
X0224783Y0164472D01*
X0224793Y0164397D01*
X0224798Y0164320D01*
X0224800Y0164244D01*
X0227200Y0154166D02*
X0230700Y0154166D01*
X0230700Y0153194D02*
X0230700Y0155139D01*
X0227978Y0153194D02*
X0227200Y0154166D01*
X0227200Y0150656D02*
X0230700Y0150656D01*
X0230700Y0149684D02*
X0230700Y0151629D01*
X0227978Y0149684D02*
X0227200Y0150656D01*
X0227200Y0147172D02*
X0227200Y0146200D01*
X0230700Y0146200D01*
X0229144Y0146200D02*
X0229144Y0147172D01*
X0229144Y0147367D02*
X0230700Y0148144D01*
X0229144Y0147172D02*
X0229142Y0147233D01*
X0229136Y0147294D01*
X0229127Y0147354D01*
X0229113Y0147414D01*
X0229096Y0147472D01*
X0229076Y0147530D01*
X0229051Y0147586D01*
X0229024Y0147640D01*
X0228993Y0147693D01*
X0228958Y0147743D01*
X0228921Y0147792D01*
X0228881Y0147837D01*
X0228837Y0147881D01*
X0228792Y0147921D01*
X0228743Y0147958D01*
X0228693Y0147993D01*
X0228640Y0148024D01*
X0228586Y0148051D01*
X0228530Y0148076D01*
X0228472Y0148096D01*
X0228414Y0148113D01*
X0228354Y0148127D01*
X0228294Y0148136D01*
X0228233Y0148142D01*
X0228172Y0148144D01*
X0228111Y0148142D01*
X0228050Y0148136D01*
X0227990Y0148127D01*
X0227930Y0148113D01*
X0227872Y0148096D01*
X0227814Y0148076D01*
X0227758Y0148051D01*
X0227704Y0148024D01*
X0227651Y0147993D01*
X0227601Y0147958D01*
X0227552Y0147921D01*
X0227507Y0147881D01*
X0227463Y0147837D01*
X0227423Y0147792D01*
X0227386Y0147743D01*
X0227351Y0147693D01*
X0227320Y0147640D01*
X0227293Y0147586D01*
X0227268Y0147530D01*
X0227248Y0147472D01*
X0227231Y0147414D01*
X0227217Y0147354D01*
X0227208Y0147294D01*
X0227202Y0147233D01*
X0227200Y0147172D01*
X0105700Y0236200D02*
X0102200Y0236200D01*
X0102200Y0237172D01*
X0102202Y0237233D01*
X0102208Y0237294D01*
X0102217Y0237354D01*
X0102231Y0237414D01*
X0102248Y0237472D01*
X0102268Y0237530D01*
X0102293Y0237586D01*
X0102320Y0237640D01*
X0102351Y0237693D01*
X0102386Y0237743D01*
X0102423Y0237792D01*
X0102463Y0237837D01*
X0102507Y0237881D01*
X0102552Y0237921D01*
X0102601Y0237958D01*
X0102651Y0237993D01*
X0102704Y0238024D01*
X0102758Y0238051D01*
X0102814Y0238076D01*
X0102872Y0238096D01*
X0102930Y0238113D01*
X0102990Y0238127D01*
X0103050Y0238136D01*
X0103111Y0238142D01*
X0103172Y0238144D01*
X0103233Y0238142D01*
X0103294Y0238136D01*
X0103354Y0238127D01*
X0103414Y0238113D01*
X0103472Y0238096D01*
X0103530Y0238076D01*
X0103586Y0238051D01*
X0103640Y0238024D01*
X0103693Y0237993D01*
X0103743Y0237958D01*
X0103792Y0237921D01*
X0103837Y0237881D01*
X0103881Y0237837D01*
X0103921Y0237792D01*
X0103958Y0237743D01*
X0103993Y0237693D01*
X0104024Y0237640D01*
X0104051Y0237586D01*
X0104076Y0237530D01*
X0104096Y0237472D01*
X0104113Y0237414D01*
X0104127Y0237354D01*
X0104136Y0237294D01*
X0104142Y0237233D01*
X0104144Y0237172D01*
X0104144Y0236200D01*
X0104144Y0237367D02*
X0105700Y0238144D01*
X0105700Y0239684D02*
X0105700Y0241629D01*
X0105700Y0240656D02*
X0102200Y0240656D01*
X0102978Y0239684D01*
X0136136Y0251313D02*
X0136099Y0252479D01*
X0136135Y0251313D02*
X0136139Y0251260D01*
X0136146Y0251207D01*
X0136157Y0251155D01*
X0136171Y0251104D01*
X0136188Y0251054D01*
X0136209Y0251005D01*
X0136234Y0250958D01*
X0136261Y0250912D01*
X0136292Y0250869D01*
X0136325Y0250827D01*
X0136361Y0250788D01*
X0136400Y0250752D01*
X0136441Y0250718D01*
X0136485Y0250688D01*
X0136530Y0250660D01*
X0136577Y0250635D01*
X0136626Y0250614D01*
X0136676Y0250596D01*
X0136727Y0250582D01*
X0136779Y0250571D01*
X0136831Y0250563D01*
X0136884Y0250560D01*
X0136937Y0250559D01*
X0136937Y0250560D02*
X0137326Y0250572D01*
X0137379Y0250576D01*
X0137432Y0250583D01*
X0137484Y0250594D01*
X0137535Y0250608D01*
X0137585Y0250625D01*
X0137634Y0250647D01*
X0137681Y0250671D01*
X0137727Y0250698D01*
X0137770Y0250729D01*
X0137812Y0250762D01*
X0137851Y0250798D01*
X0137887Y0250837D01*
X0137921Y0250878D01*
X0137951Y0250922D01*
X0137979Y0250967D01*
X0138004Y0251014D01*
X0138025Y0251063D01*
X0138043Y0251113D01*
X0138057Y0251164D01*
X0138068Y0251216D01*
X0138076Y0251268D01*
X0138079Y0251321D01*
X0138080Y0251374D01*
X0138079Y0251374D02*
X0138042Y0252540D01*
X0139597Y0252589D01*
X0139658Y0250646D01*
X0139518Y0255100D02*
X0139488Y0256072D01*
X0135990Y0255962D01*
X0137544Y0256010D02*
X0137575Y0255039D01*
X0137581Y0254844D02*
X0136051Y0254018D01*
X0137575Y0255038D02*
X0137579Y0254976D01*
X0137587Y0254914D01*
X0137599Y0254853D01*
X0137615Y0254793D01*
X0137635Y0254734D01*
X0137658Y0254676D01*
X0137685Y0254620D01*
X0137715Y0254566D01*
X0137749Y0254513D01*
X0137787Y0254463D01*
X0137827Y0254416D01*
X0137870Y0254371D01*
X0137916Y0254329D01*
X0137965Y0254290D01*
X0138016Y0254255D01*
X0138069Y0254222D01*
X0138125Y0254194D01*
X0138182Y0254168D01*
X0138240Y0254147D01*
X0138300Y0254129D01*
X0138361Y0254115D01*
X0138422Y0254105D01*
X0138484Y0254099D01*
X0138546Y0254097D01*
X0138609Y0254099D01*
X0138671Y0254105D01*
X0138732Y0254115D01*
X0138793Y0254129D01*
X0138853Y0254146D01*
X0138911Y0254168D01*
X0138968Y0254193D01*
X0139023Y0254222D01*
X0139077Y0254254D01*
X0139128Y0254290D01*
X0139177Y0254328D01*
X0139223Y0254370D01*
X0139266Y0254415D01*
X0139307Y0254462D01*
X0139344Y0254512D01*
X0139378Y0254565D01*
X0139408Y0254619D01*
X0139436Y0254675D01*
X0139459Y0254733D01*
X0139479Y0254792D01*
X0139494Y0254852D01*
X0139506Y0254913D01*
X0139514Y0254975D01*
X0139518Y0255037D01*
X0139519Y0255100D01*
X0156300Y0255800D02*
X0159800Y0254828D01*
X0159800Y0252316D02*
X0158244Y0251538D01*
X0158244Y0251344D02*
X0158244Y0250371D01*
X0158244Y0251344D02*
X0158242Y0251405D01*
X0158236Y0251466D01*
X0158227Y0251526D01*
X0158213Y0251586D01*
X0158196Y0251644D01*
X0158176Y0251702D01*
X0158151Y0251758D01*
X0158124Y0251812D01*
X0158093Y0251865D01*
X0158058Y0251915D01*
X0158021Y0251964D01*
X0157981Y0252009D01*
X0157937Y0252053D01*
X0157892Y0252093D01*
X0157843Y0252130D01*
X0157793Y0252165D01*
X0157740Y0252196D01*
X0157686Y0252223D01*
X0157630Y0252248D01*
X0157572Y0252268D01*
X0157514Y0252285D01*
X0157454Y0252299D01*
X0157394Y0252308D01*
X0157333Y0252314D01*
X0157272Y0252316D01*
X0157211Y0252314D01*
X0157150Y0252308D01*
X0157090Y0252299D01*
X0157030Y0252285D01*
X0156972Y0252268D01*
X0156914Y0252248D01*
X0156858Y0252223D01*
X0156804Y0252196D01*
X0156751Y0252165D01*
X0156701Y0252130D01*
X0156652Y0252093D01*
X0156607Y0252053D01*
X0156563Y0252009D01*
X0156523Y0251964D01*
X0156486Y0251915D01*
X0156451Y0251865D01*
X0156420Y0251812D01*
X0156393Y0251758D01*
X0156368Y0251702D01*
X0156348Y0251644D01*
X0156331Y0251586D01*
X0156317Y0251526D01*
X0156308Y0251466D01*
X0156302Y0251405D01*
X0156300Y0251344D01*
X0156300Y0250371D01*
X0159800Y0250371D01*
X0156689Y0253856D02*
X0156300Y0253856D01*
X0156300Y0255800D01*
D15*
X0151000Y0256750D03*
X0151000Y0235250D03*
X0111000Y0235250D03*
X0111000Y0256750D03*
X0116000Y0166750D03*
X0096000Y0166750D03*
X0096000Y0145250D03*
X0116000Y0145250D03*
X0136000Y0145250D03*
X0156000Y0145250D03*
X0181000Y0145250D03*
X0201000Y0145250D03*
X0216000Y0145250D03*
X0236000Y0145250D03*
X0236000Y0166750D03*
X0216000Y0166750D03*
X0201000Y0166750D03*
X0181000Y0166750D03*
X0156000Y0166750D03*
X0136000Y0166750D03*
D16*
X0100750Y0202500D03*
X0100750Y0209500D03*
D17*
X0101500Y0206000D03*
D18*
G36*
X0130363Y0234474D02*
X0130315Y0235973D01*
X0132313Y0236036D01*
X0132361Y0234537D01*
X0130363Y0234474D01*
G37*
G36*
X0129687Y0255964D02*
X0129639Y0257463D01*
X0131637Y0257526D01*
X0131685Y0256027D01*
X0129687Y0255964D01*
G37*
M02*
