%
M48
M72
T01C0.02953
T02C0.03200
%
T01
X41000Y216000
X41000Y226000
T02
X96000Y141000
X116000Y141000
X136000Y141000
X156000Y141000
X181000Y141000
X201000Y141000
X216000Y141000
X236000Y141000
X236000Y171000
X226000Y186000
X216000Y186000
X206000Y186000
X196000Y186000
X181000Y186000
X181000Y196000
X181000Y206000
X181000Y216000
X196000Y216000
X206000Y216000
X216000Y216000
X226000Y216000
X216000Y231000
X206000Y231000
X186000Y231000
X176000Y231000
X151000Y231000
X151000Y216000
X151000Y206000
X151000Y196000
X151000Y186000
X156000Y171000
X136000Y171000
X116000Y171000
X96000Y171000
X81000Y181000
X71000Y181000
X61000Y181000
X51000Y181000
X51000Y211000
X61000Y211000
X71000Y211000
X81000Y211000
X81000Y231000
X71000Y231000
X61000Y231000
X51000Y231000
X51000Y261000
X61000Y261000
X71000Y261000
X81000Y261000
X111000Y261000
X130529Y260993
X151000Y261000
X176000Y251000
X186000Y251000
X206000Y251000
X216000Y251000
X131471Y231007
X123500Y216000
X113500Y206000
X123500Y196000
X111000Y231000
X181000Y171000
X201000Y171000
X216000Y171000
M30
