G75*
%MOIN*%
%OFA0B0*%
%FSLAX25Y25*%
%IPPOS*%
%LPD*%
%AMOC8*
5,1,8,0,0,1.08239X$1,22.5*
%
%ADD10OC8,0.06300*%
%ADD11C,0.05200*%
%ADD12OC8,0.05200*%
%ADD13C,0.05200*%
%ADD14C,0.01040*%
%ADD15C,0.02000*%
%ADD16C,0.04553*%
%ADD17C,0.01200*%
D10*
X0176000Y0231000D03*
X0186000Y0231000D03*
X0206000Y0231000D03*
X0216000Y0231000D03*
X0216000Y0251000D03*
X0206000Y0251000D03*
X0186000Y0251000D03*
X0176000Y0251000D03*
D11*
X0181000Y0216000D03*
X0181000Y0206000D03*
X0181000Y0196000D03*
X0181000Y0186000D03*
X0196000Y0186000D03*
X0206000Y0186000D03*
X0216000Y0186000D03*
X0226000Y0186000D03*
X0226000Y0216000D03*
X0216000Y0216000D03*
X0206000Y0216000D03*
X0196000Y0216000D03*
X0151000Y0216000D03*
X0151000Y0206000D03*
X0151000Y0196000D03*
X0151000Y0186000D03*
X0081000Y0181000D03*
X0071000Y0181000D03*
X0061000Y0181000D03*
X0051000Y0181000D03*
X0051000Y0211000D03*
X0061000Y0211000D03*
X0071000Y0211000D03*
X0081000Y0211000D03*
X0081000Y0231000D03*
X0071000Y0231000D03*
X0061000Y0231000D03*
X0051000Y0231000D03*
X0051000Y0261000D03*
X0061000Y0261000D03*
X0071000Y0261000D03*
X0081000Y0261000D03*
D12*
X0111000Y0261000D03*
X0111000Y0231000D03*
X0151000Y0231000D03*
X0151000Y0261000D03*
X0156000Y0171000D03*
X0136000Y0171000D03*
X0116000Y0171000D03*
X0096000Y0171000D03*
X0096000Y0141000D03*
X0116000Y0141000D03*
X0136000Y0141000D03*
X0156000Y0141000D03*
X0181000Y0141000D03*
X0201000Y0141000D03*
X0216000Y0141000D03*
X0236000Y0141000D03*
X0236000Y0171000D03*
X0216000Y0171000D03*
X0201000Y0171000D03*
X0181000Y0171000D03*
D13*
X0126100Y0196000D02*
X0120900Y0196000D01*
X0116100Y0206000D02*
X0110900Y0206000D01*
X0120900Y0216000D02*
X0126100Y0216000D01*
D14*
X0131196Y0229421D02*
X0130676Y0228901D01*
X0129420Y0230082D01*
X0129365Y0231802D01*
X0130546Y0233058D01*
X0132266Y0233113D01*
X0133522Y0231932D01*
X0133577Y0230212D01*
X0132396Y0228956D01*
X0130676Y0228901D01*
X0130975Y0229691D01*
X0130189Y0230429D01*
X0130155Y0231503D01*
X0130893Y0232289D01*
X0131967Y0232323D01*
X0132753Y0231585D01*
X0132787Y0230511D01*
X0132049Y0229725D01*
X0130975Y0229691D01*
X0131273Y0230481D01*
X0130959Y0230776D01*
X0130945Y0231205D01*
X0131240Y0231519D01*
X0131669Y0231533D01*
X0131983Y0231238D01*
X0131997Y0230809D01*
X0131702Y0230495D01*
X0131273Y0230481D01*
X0130254Y0259407D02*
X0129734Y0258887D01*
X0128478Y0260068D01*
X0128423Y0261788D01*
X0129604Y0263044D01*
X0131324Y0263099D01*
X0132580Y0261918D01*
X0132635Y0260198D01*
X0131454Y0258942D01*
X0129734Y0258887D01*
X0130033Y0259677D01*
X0129247Y0260415D01*
X0129213Y0261489D01*
X0129951Y0262275D01*
X0131025Y0262309D01*
X0131811Y0261571D01*
X0131845Y0260497D01*
X0131107Y0259711D01*
X0130033Y0259677D01*
X0130331Y0260467D01*
X0130017Y0260762D01*
X0130003Y0261191D01*
X0130298Y0261505D01*
X0130727Y0261519D01*
X0131041Y0261224D01*
X0131055Y0260795D01*
X0130760Y0260481D01*
X0130331Y0260467D01*
D15*
X0176000Y0231000D02*
X0176000Y0211000D01*
X0181000Y0206000D01*
X0186000Y0191000D02*
X0166000Y0191000D01*
X0151000Y0186000D01*
X0091000Y0186000D01*
X0091000Y0216000D01*
X0081000Y0226000D01*
X0081000Y0231000D01*
X0061000Y0246000D02*
X0056000Y0241000D01*
X0056000Y0216000D01*
X0041000Y0226000D01*
X0056000Y0216000D02*
X0061000Y0211000D01*
X0086000Y0186000D02*
X0091000Y0186000D01*
X0086000Y0186000D02*
X0081000Y0181000D01*
X0061000Y0246000D02*
X0061000Y0261000D01*
X0196000Y0216000D02*
X0186000Y0191000D01*
X0196000Y0216000D02*
X0206000Y0231000D01*
D16*
X0041000Y0226000D03*
X0041000Y0216000D03*
D17*
X0036000Y0271000D02*
X0036000Y0131000D01*
X0246000Y0131000D01*
X0246000Y0271000D01*
X0036000Y0271000D01*
X0036000Y0270665D02*
X0246000Y0270665D01*
X0246000Y0269467D02*
X0036000Y0269467D01*
X0036000Y0268268D02*
X0246000Y0268268D01*
X0246000Y0267070D02*
X0107476Y0267070D01*
X0106746Y0267800D02*
X0109746Y0264800D01*
X0112574Y0264800D01*
X0114574Y0262800D01*
X0127013Y0262800D01*
X0128836Y0264741D01*
X0131983Y0264840D01*
X0134163Y0262793D01*
X0147419Y0262793D01*
X0149426Y0264800D01*
X0152574Y0264800D01*
X0154800Y0262574D01*
X0154800Y0259426D01*
X0152574Y0257200D01*
X0149426Y0257200D01*
X0147433Y0259193D01*
X0134051Y0259193D01*
X0132221Y0257244D01*
X0129075Y0257145D01*
X0126887Y0259200D01*
X0114574Y0259200D01*
X0112574Y0257200D01*
X0109426Y0257200D01*
X0107200Y0259426D01*
X0107200Y0262254D01*
X0105254Y0264200D01*
X0083174Y0264200D01*
X0084221Y0263153D01*
X0084800Y0261756D01*
X0084800Y0260244D01*
X0084221Y0258847D01*
X0083153Y0257779D01*
X0081756Y0257200D01*
X0080244Y0257200D01*
X0078847Y0257779D01*
X0077779Y0258847D01*
X0077200Y0260244D01*
X0077200Y0261756D01*
X0077779Y0263153D01*
X0078826Y0264200D01*
X0076746Y0264200D01*
X0074654Y0262108D01*
X0074800Y0261756D01*
X0074800Y0260244D01*
X0074221Y0258847D01*
X0073153Y0257779D01*
X0071756Y0257200D01*
X0070244Y0257200D01*
X0068847Y0257779D01*
X0067779Y0258847D01*
X0067200Y0260244D01*
X0067200Y0261756D01*
X0067779Y0263153D01*
X0068847Y0264221D01*
X0070244Y0264800D01*
X0071756Y0264800D01*
X0072108Y0264654D01*
X0074200Y0266746D01*
X0075254Y0267800D01*
X0106746Y0267800D01*
X0106000Y0266000D02*
X0111000Y0261000D01*
X0130521Y0261000D01*
X0130529Y0260993D01*
X0150993Y0260993D01*
X0151000Y0261000D01*
X0154800Y0261077D02*
X0246000Y0261077D01*
X0246000Y0262275D02*
X0154800Y0262275D01*
X0153900Y0263474D02*
X0246000Y0263474D01*
X0246000Y0264672D02*
X0152702Y0264672D01*
X0149298Y0264672D02*
X0132161Y0264672D01*
X0133438Y0263474D02*
X0148100Y0263474D01*
X0147946Y0258680D02*
X0133570Y0258680D01*
X0132444Y0257481D02*
X0149145Y0257481D01*
X0152855Y0257481D02*
X0246000Y0257481D01*
X0246000Y0256283D02*
X0063200Y0256283D01*
X0063200Y0257481D02*
X0069565Y0257481D01*
X0067946Y0258680D02*
X0064054Y0258680D01*
X0064221Y0258847D02*
X0064800Y0260244D01*
X0064800Y0261756D01*
X0064221Y0263153D01*
X0063153Y0264221D01*
X0061756Y0264800D01*
X0060244Y0264800D01*
X0058847Y0264221D01*
X0057779Y0263153D01*
X0057200Y0261756D01*
X0057200Y0260244D01*
X0057779Y0258847D01*
X0058800Y0257826D01*
X0058800Y0246911D01*
X0055089Y0243200D01*
X0053800Y0241911D01*
X0053800Y0233574D01*
X0053153Y0234221D01*
X0051756Y0234800D01*
X0050244Y0234800D01*
X0048847Y0234221D01*
X0047779Y0233153D01*
X0047200Y0231756D01*
X0047200Y0230244D01*
X0047779Y0228847D01*
X0048847Y0227779D01*
X0050244Y0227200D01*
X0051756Y0227200D01*
X0053153Y0227779D01*
X0053800Y0228426D01*
X0053800Y0220111D01*
X0044476Y0226326D01*
X0044476Y0226691D01*
X0043947Y0227969D01*
X0042969Y0228947D01*
X0041691Y0229476D01*
X0040309Y0229476D01*
X0039031Y0228947D01*
X0038053Y0227969D01*
X0037524Y0226691D01*
X0037524Y0225309D01*
X0038053Y0224031D01*
X0039031Y0223053D01*
X0040309Y0222524D01*
X0041691Y0222524D01*
X0042035Y0222666D01*
X0054598Y0214290D01*
X0057200Y0211689D01*
X0057200Y0210244D01*
X0057779Y0208847D01*
X0058847Y0207779D01*
X0060244Y0207200D01*
X0061756Y0207200D01*
X0063153Y0207779D01*
X0064221Y0208847D01*
X0064800Y0210244D01*
X0064800Y0211756D01*
X0064221Y0213153D01*
X0063153Y0214221D01*
X0061756Y0214800D01*
X0060311Y0214800D01*
X0058200Y0216911D01*
X0058200Y0228426D01*
X0058847Y0227779D01*
X0060244Y0227200D01*
X0061756Y0227200D01*
X0063153Y0227779D01*
X0064221Y0228847D01*
X0064800Y0230244D01*
X0064800Y0231756D01*
X0064221Y0233153D01*
X0064133Y0233241D01*
X0066981Y0238938D01*
X0107200Y0230001D01*
X0107200Y0229426D01*
X0109200Y0227426D01*
X0109200Y0221178D01*
X0109089Y0220622D01*
X0109200Y0220455D01*
X0109200Y0220254D01*
X0109601Y0219853D01*
X0116303Y0209800D01*
X0110144Y0209800D01*
X0108747Y0209221D01*
X0107679Y0208153D01*
X0107100Y0206756D01*
X0107100Y0205244D01*
X0107679Y0203847D01*
X0108747Y0202779D01*
X0110144Y0202200D01*
X0116856Y0202200D01*
X0118253Y0202779D01*
X0119321Y0203847D01*
X0119547Y0204391D01*
X0120695Y0199800D01*
X0120144Y0199800D01*
X0118747Y0199221D01*
X0117679Y0198153D01*
X0117100Y0196756D01*
X0117100Y0195244D01*
X0117679Y0193847D01*
X0118747Y0192779D01*
X0120144Y0192200D01*
X0126856Y0192200D01*
X0128253Y0192779D01*
X0129321Y0193847D01*
X0129900Y0195244D01*
X0129900Y0196756D01*
X0129321Y0198153D01*
X0128253Y0199221D01*
X0126856Y0199800D01*
X0124405Y0199800D01*
X0122844Y0206044D01*
X0122911Y0206378D01*
X0122671Y0206739D01*
X0122565Y0207160D01*
X0122273Y0207335D01*
X0118438Y0213088D01*
X0118747Y0212779D01*
X0120144Y0212200D01*
X0126856Y0212200D01*
X0128253Y0212779D01*
X0129321Y0213847D01*
X0129900Y0215244D01*
X0129900Y0216756D01*
X0129321Y0218153D01*
X0128253Y0219221D01*
X0126856Y0219800D01*
X0120144Y0219800D01*
X0118747Y0219221D01*
X0117679Y0218153D01*
X0117100Y0216756D01*
X0117100Y0215244D01*
X0117263Y0214850D01*
X0112800Y0221545D01*
X0112800Y0227426D01*
X0114800Y0229426D01*
X0114800Y0232574D01*
X0112574Y0234800D01*
X0109426Y0234800D01*
X0108112Y0233486D01*
X0066607Y0242709D01*
X0066138Y0242943D01*
X0065904Y0242865D01*
X0065663Y0242919D01*
X0065221Y0242638D01*
X0064723Y0242472D01*
X0064613Y0242251D01*
X0064405Y0242118D01*
X0064291Y0241607D01*
X0060888Y0234800D01*
X0060244Y0234800D01*
X0058847Y0234221D01*
X0058200Y0233574D01*
X0058200Y0240089D01*
X0063200Y0245089D01*
X0063200Y0257826D01*
X0064221Y0258847D01*
X0064649Y0259878D02*
X0067351Y0259878D01*
X0067200Y0261077D02*
X0064800Y0261077D01*
X0064585Y0262275D02*
X0067415Y0262275D01*
X0068100Y0263474D02*
X0063900Y0263474D01*
X0062064Y0264672D02*
X0069936Y0264672D01*
X0072064Y0264672D02*
X0072127Y0264672D01*
X0073325Y0265871D02*
X0036000Y0265871D01*
X0036000Y0264672D02*
X0049936Y0264672D01*
X0050244Y0264800D02*
X0048847Y0264221D01*
X0047779Y0263153D01*
X0047200Y0261756D01*
X0047200Y0260244D01*
X0047779Y0258847D01*
X0048847Y0257779D01*
X0050244Y0257200D01*
X0051756Y0257200D01*
X0053153Y0257779D01*
X0054221Y0258847D01*
X0054800Y0260244D01*
X0054800Y0261756D01*
X0054221Y0263153D01*
X0053153Y0264221D01*
X0051756Y0264800D01*
X0050244Y0264800D01*
X0052064Y0264672D02*
X0059936Y0264672D01*
X0058100Y0263474D02*
X0053900Y0263474D01*
X0054585Y0262275D02*
X0057415Y0262275D01*
X0057200Y0261077D02*
X0054800Y0261077D01*
X0054649Y0259878D02*
X0057351Y0259878D01*
X0057946Y0258680D02*
X0054054Y0258680D01*
X0052435Y0257481D02*
X0058800Y0257481D01*
X0058800Y0256283D02*
X0036000Y0256283D01*
X0036000Y0257481D02*
X0049565Y0257481D01*
X0047946Y0258680D02*
X0036000Y0258680D01*
X0036000Y0259878D02*
X0047351Y0259878D01*
X0047200Y0261077D02*
X0036000Y0261077D01*
X0036000Y0262275D02*
X0047415Y0262275D01*
X0048100Y0263474D02*
X0036000Y0263474D01*
X0036000Y0267070D02*
X0074524Y0267070D01*
X0076000Y0266000D02*
X0106000Y0266000D01*
X0105980Y0263474D02*
X0083900Y0263474D01*
X0084585Y0262275D02*
X0107179Y0262275D01*
X0107200Y0261077D02*
X0084800Y0261077D01*
X0084649Y0259878D02*
X0107200Y0259878D01*
X0107946Y0258680D02*
X0084054Y0258680D01*
X0082435Y0257481D02*
X0109145Y0257481D01*
X0112855Y0257481D02*
X0128717Y0257481D01*
X0127440Y0258680D02*
X0114054Y0258680D01*
X0113900Y0263474D02*
X0127646Y0263474D01*
X0128772Y0264672D02*
X0112702Y0264672D01*
X0108675Y0265871D02*
X0246000Y0265871D01*
X0246000Y0259878D02*
X0154800Y0259878D01*
X0154054Y0258680D02*
X0246000Y0258680D01*
X0246000Y0255084D02*
X0218067Y0255084D01*
X0217802Y0255350D02*
X0214198Y0255350D01*
X0211650Y0252802D01*
X0211650Y0249198D01*
X0214198Y0246650D01*
X0217175Y0246650D01*
X0234200Y0225369D01*
X0234200Y0174574D01*
X0232200Y0172574D01*
X0232200Y0169426D01*
X0234426Y0167200D01*
X0237574Y0167200D01*
X0239800Y0169426D01*
X0239800Y0172574D01*
X0237800Y0174574D01*
X0237800Y0225900D01*
X0237871Y0226542D01*
X0237800Y0226631D01*
X0237800Y0226746D01*
X0237343Y0227202D01*
X0220015Y0248863D01*
X0220350Y0249198D01*
X0220350Y0252802D01*
X0217802Y0255350D01*
X0219266Y0253886D02*
X0246000Y0253886D01*
X0246000Y0252687D02*
X0220350Y0252687D01*
X0220350Y0251489D02*
X0246000Y0251489D01*
X0246000Y0250290D02*
X0220350Y0250290D01*
X0220244Y0249092D02*
X0246000Y0249092D01*
X0246000Y0247893D02*
X0220790Y0247893D01*
X0221749Y0246695D02*
X0246000Y0246695D01*
X0246000Y0245496D02*
X0222708Y0245496D01*
X0223667Y0244298D02*
X0246000Y0244298D01*
X0246000Y0243099D02*
X0224626Y0243099D01*
X0225584Y0241901D02*
X0246000Y0241901D01*
X0246000Y0240702D02*
X0226543Y0240702D01*
X0227502Y0239504D02*
X0246000Y0239504D01*
X0246000Y0238305D02*
X0228461Y0238305D01*
X0229420Y0237107D02*
X0246000Y0237107D01*
X0246000Y0235908D02*
X0230379Y0235908D01*
X0231337Y0234710D02*
X0246000Y0234710D01*
X0246000Y0233511D02*
X0232296Y0233511D01*
X0233255Y0232313D02*
X0246000Y0232313D01*
X0246000Y0231114D02*
X0234214Y0231114D01*
X0235173Y0229916D02*
X0246000Y0229916D01*
X0246000Y0228717D02*
X0236131Y0228717D01*
X0237090Y0227519D02*
X0246000Y0227519D01*
X0246000Y0226320D02*
X0237847Y0226320D01*
X0237800Y0225122D02*
X0246000Y0225122D01*
X0246000Y0223923D02*
X0237800Y0223923D01*
X0237800Y0222725D02*
X0246000Y0222725D01*
X0246000Y0221526D02*
X0237800Y0221526D01*
X0237800Y0220328D02*
X0246000Y0220328D01*
X0246000Y0219129D02*
X0237800Y0219129D01*
X0237800Y0217931D02*
X0246000Y0217931D01*
X0246000Y0216732D02*
X0237800Y0216732D01*
X0237800Y0215534D02*
X0246000Y0215534D01*
X0246000Y0214335D02*
X0237800Y0214335D01*
X0237800Y0213137D02*
X0246000Y0213137D01*
X0246000Y0211938D02*
X0237800Y0211938D01*
X0237800Y0210739D02*
X0246000Y0210739D01*
X0246000Y0209541D02*
X0237800Y0209541D01*
X0237800Y0208342D02*
X0246000Y0208342D01*
X0246000Y0207144D02*
X0237800Y0207144D01*
X0237800Y0205945D02*
X0246000Y0205945D01*
X0246000Y0204747D02*
X0237800Y0204747D01*
X0237800Y0203548D02*
X0246000Y0203548D01*
X0246000Y0202350D02*
X0237800Y0202350D01*
X0237800Y0201151D02*
X0246000Y0201151D01*
X0246000Y0199953D02*
X0237800Y0199953D01*
X0237800Y0198754D02*
X0246000Y0198754D01*
X0246000Y0197556D02*
X0237800Y0197556D01*
X0237800Y0196357D02*
X0246000Y0196357D01*
X0246000Y0195159D02*
X0237800Y0195159D01*
X0237800Y0193960D02*
X0246000Y0193960D01*
X0246000Y0192762D02*
X0237800Y0192762D01*
X0237800Y0191563D02*
X0246000Y0191563D01*
X0246000Y0190365D02*
X0237800Y0190365D01*
X0237800Y0189166D02*
X0246000Y0189166D01*
X0246000Y0187968D02*
X0237800Y0187968D01*
X0237800Y0186769D02*
X0246000Y0186769D01*
X0246000Y0185571D02*
X0237800Y0185571D01*
X0237800Y0184372D02*
X0246000Y0184372D01*
X0246000Y0183174D02*
X0237800Y0183174D01*
X0237800Y0181975D02*
X0246000Y0181975D01*
X0246000Y0180777D02*
X0237800Y0180777D01*
X0237800Y0179578D02*
X0246000Y0179578D01*
X0246000Y0178380D02*
X0237800Y0178380D01*
X0237800Y0177181D02*
X0246000Y0177181D01*
X0246000Y0175983D02*
X0237800Y0175983D01*
X0237800Y0174784D02*
X0246000Y0174784D01*
X0246000Y0173586D02*
X0238788Y0173586D01*
X0239800Y0172387D02*
X0246000Y0172387D01*
X0246000Y0171189D02*
X0239800Y0171189D01*
X0239800Y0169990D02*
X0246000Y0169990D01*
X0246000Y0168792D02*
X0239166Y0168792D01*
X0237967Y0167593D02*
X0246000Y0167593D01*
X0246000Y0166395D02*
X0063151Y0166395D01*
X0062800Y0166746D02*
X0062800Y0177632D01*
X0063153Y0177779D01*
X0064221Y0178847D01*
X0064800Y0180244D01*
X0064800Y0181756D01*
X0064221Y0183153D01*
X0063153Y0184221D01*
X0061756Y0184800D01*
X0060244Y0184800D01*
X0058847Y0184221D01*
X0057779Y0183153D01*
X0057200Y0181756D01*
X0057200Y0180244D01*
X0057779Y0178847D01*
X0058847Y0177779D01*
X0059200Y0177632D01*
X0059200Y0165254D01*
X0084200Y0140254D01*
X0085254Y0139200D01*
X0092426Y0139200D01*
X0094426Y0137200D01*
X0097574Y0137200D01*
X0099574Y0139200D01*
X0112426Y0139200D01*
X0114426Y0137200D01*
X0117574Y0137200D01*
X0119800Y0139426D01*
X0119800Y0142574D01*
X0117574Y0144800D01*
X0114426Y0144800D01*
X0112426Y0142800D01*
X0099574Y0142800D01*
X0097574Y0144800D01*
X0094426Y0144800D01*
X0092426Y0142800D01*
X0086746Y0142800D01*
X0062800Y0166746D01*
X0062800Y0167593D02*
X0094033Y0167593D01*
X0094426Y0167200D02*
X0097574Y0167200D01*
X0099800Y0169426D01*
X0099800Y0172574D01*
X0097574Y0174800D01*
X0094426Y0174800D01*
X0092200Y0172574D01*
X0092200Y0169426D01*
X0094426Y0167200D01*
X0092834Y0168792D02*
X0062800Y0168792D01*
X0062800Y0169990D02*
X0092200Y0169990D01*
X0092200Y0171189D02*
X0062800Y0171189D01*
X0062800Y0172387D02*
X0092200Y0172387D01*
X0093212Y0173586D02*
X0062800Y0173586D01*
X0062800Y0174784D02*
X0094410Y0174784D01*
X0097590Y0174784D02*
X0114410Y0174784D01*
X0114426Y0174800D02*
X0112200Y0172574D01*
X0112200Y0169426D01*
X0114426Y0167200D01*
X0117574Y0167200D01*
X0119574Y0169200D01*
X0132426Y0169200D01*
X0134426Y0167200D01*
X0137574Y0167200D01*
X0139800Y0169426D01*
X0139800Y0172574D01*
X0137574Y0174800D01*
X0134426Y0174800D01*
X0132426Y0172800D01*
X0119574Y0172800D01*
X0117574Y0174800D01*
X0114426Y0174800D01*
X0113212Y0173586D02*
X0098788Y0173586D01*
X0099800Y0172387D02*
X0112200Y0172387D01*
X0112200Y0171189D02*
X0099800Y0171189D01*
X0099800Y0169990D02*
X0112200Y0169990D01*
X0112834Y0168792D02*
X0099166Y0168792D01*
X0097967Y0167593D02*
X0114033Y0167593D01*
X0116000Y0171000D02*
X0136000Y0171000D01*
X0133212Y0173586D02*
X0118788Y0173586D01*
X0117590Y0174784D02*
X0134410Y0174784D01*
X0137590Y0174784D02*
X0153844Y0174784D01*
X0154260Y0175200D02*
X0151800Y0172740D01*
X0151800Y0171200D01*
X0155800Y0171200D01*
X0155800Y0175200D01*
X0154260Y0175200D01*
X0155800Y0174784D02*
X0156200Y0174784D01*
X0156200Y0175200D02*
X0156200Y0171200D01*
X0155800Y0171200D01*
X0155800Y0170800D01*
X0151800Y0170800D01*
X0151800Y0169260D01*
X0154260Y0166800D01*
X0155800Y0166800D01*
X0155800Y0170800D01*
X0156200Y0170800D01*
X0156200Y0171200D01*
X0160200Y0171200D01*
X0160200Y0172740D01*
X0157740Y0175200D01*
X0156200Y0175200D01*
X0156200Y0173586D02*
X0155800Y0173586D01*
X0155800Y0172387D02*
X0156200Y0172387D01*
X0156200Y0171189D02*
X0177200Y0171189D01*
X0177200Y0172387D02*
X0160200Y0172387D01*
X0159354Y0173586D02*
X0178212Y0173586D01*
X0177200Y0172574D02*
X0177200Y0169426D01*
X0179426Y0167200D01*
X0182574Y0167200D01*
X0184800Y0169426D01*
X0184800Y0172574D01*
X0184243Y0173131D01*
X0205948Y0212200D01*
X0206756Y0212200D01*
X0208153Y0212779D01*
X0209221Y0213847D01*
X0209800Y0215244D01*
X0209800Y0216756D01*
X0209221Y0218153D01*
X0208153Y0219221D01*
X0206756Y0219800D01*
X0205244Y0219800D01*
X0203847Y0219221D01*
X0202779Y0218153D01*
X0202200Y0216756D01*
X0202200Y0215244D01*
X0202764Y0213882D01*
X0181052Y0174800D01*
X0179426Y0174800D01*
X0177200Y0172574D01*
X0177200Y0169990D02*
X0160200Y0169990D01*
X0160200Y0169260D02*
X0160200Y0170800D01*
X0156200Y0170800D01*
X0156200Y0166800D01*
X0157740Y0166800D01*
X0160200Y0169260D01*
X0159731Y0168792D02*
X0177834Y0168792D01*
X0179033Y0167593D02*
X0158533Y0167593D01*
X0156200Y0167593D02*
X0155800Y0167593D01*
X0155800Y0168792D02*
X0156200Y0168792D01*
X0156200Y0169990D02*
X0155800Y0169990D01*
X0155800Y0171189D02*
X0139800Y0171189D01*
X0139800Y0172387D02*
X0151800Y0172387D01*
X0152646Y0173586D02*
X0138788Y0173586D01*
X0139800Y0169990D02*
X0151800Y0169990D01*
X0152269Y0168792D02*
X0139166Y0168792D01*
X0137967Y0167593D02*
X0153467Y0167593D01*
X0158156Y0174784D02*
X0179410Y0174784D01*
X0181709Y0175983D02*
X0062800Y0175983D01*
X0062800Y0177181D02*
X0182375Y0177181D01*
X0183041Y0178380D02*
X0083754Y0178380D01*
X0084221Y0178847D02*
X0084800Y0180244D01*
X0084800Y0181689D01*
X0086911Y0183800D01*
X0147826Y0183800D01*
X0148847Y0182779D01*
X0150244Y0182200D01*
X0151756Y0182200D01*
X0153153Y0182779D01*
X0154221Y0183847D01*
X0154658Y0184900D01*
X0166357Y0188800D01*
X0178426Y0188800D01*
X0177779Y0188153D01*
X0177200Y0186756D01*
X0177200Y0185244D01*
X0177779Y0183847D01*
X0178847Y0182779D01*
X0180244Y0182200D01*
X0181756Y0182200D01*
X0183153Y0182779D01*
X0184221Y0183847D01*
X0184800Y0185244D01*
X0184800Y0186756D01*
X0184221Y0188153D01*
X0183574Y0188800D01*
X0185576Y0188800D01*
X0186029Y0188619D01*
X0186452Y0188800D01*
X0186911Y0188800D01*
X0187256Y0189145D01*
X0187704Y0189337D01*
X0187875Y0189764D01*
X0188200Y0190089D01*
X0188200Y0190576D01*
X0196868Y0212246D01*
X0198153Y0212779D01*
X0199221Y0213847D01*
X0199800Y0215244D01*
X0199800Y0216756D01*
X0199550Y0217359D01*
X0205744Y0226650D01*
X0207802Y0226650D01*
X0210350Y0229198D01*
X0210350Y0232802D01*
X0207802Y0235350D01*
X0204198Y0235350D01*
X0201650Y0232802D01*
X0201650Y0229198D01*
X0201953Y0228895D01*
X0195889Y0219800D01*
X0195244Y0219800D01*
X0193847Y0219221D01*
X0192779Y0218153D01*
X0192200Y0216756D01*
X0192200Y0215244D01*
X0192774Y0213859D01*
X0184511Y0193200D01*
X0183574Y0193200D01*
X0184221Y0193847D01*
X0184800Y0195244D01*
X0184800Y0196756D01*
X0184221Y0198153D01*
X0183153Y0199221D01*
X0181756Y0199800D01*
X0180244Y0199800D01*
X0180148Y0199760D01*
X0154757Y0229383D01*
X0154800Y0229426D01*
X0154800Y0231735D01*
X0173863Y0246985D01*
X0174198Y0246650D01*
X0177802Y0246650D01*
X0180350Y0249198D01*
X0180350Y0252802D01*
X0177802Y0255350D01*
X0174198Y0255350D01*
X0171650Y0252802D01*
X0171650Y0249825D01*
X0152705Y0234669D01*
X0152574Y0234800D01*
X0149426Y0234800D01*
X0147200Y0232574D01*
X0147200Y0229426D01*
X0149426Y0227200D01*
X0151886Y0227200D01*
X0177455Y0197370D01*
X0177200Y0196756D01*
X0177200Y0195244D01*
X0177779Y0193847D01*
X0178426Y0193200D01*
X0166519Y0193200D01*
X0166169Y0193375D01*
X0165643Y0193200D01*
X0165089Y0193200D01*
X0164812Y0192923D01*
X0153291Y0189083D01*
X0153153Y0189221D01*
X0151756Y0189800D01*
X0150244Y0189800D01*
X0148847Y0189221D01*
X0147826Y0188200D01*
X0093200Y0188200D01*
X0093200Y0216911D01*
X0091911Y0218200D01*
X0083200Y0226911D01*
X0083200Y0227826D01*
X0084221Y0228847D01*
X0084800Y0230244D01*
X0084800Y0231756D01*
X0084221Y0233153D01*
X0083153Y0234221D01*
X0081756Y0234800D01*
X0080244Y0234800D01*
X0078847Y0234221D01*
X0077779Y0233153D01*
X0077200Y0231756D01*
X0077200Y0230244D01*
X0077779Y0228847D01*
X0078800Y0227826D01*
X0078800Y0225089D01*
X0088800Y0215089D01*
X0088800Y0188200D01*
X0085089Y0188200D01*
X0083800Y0186911D01*
X0081689Y0184800D01*
X0080244Y0184800D01*
X0078847Y0184221D01*
X0077779Y0183153D01*
X0077200Y0181756D01*
X0077200Y0180244D01*
X0077779Y0178847D01*
X0078847Y0177779D01*
X0080244Y0177200D01*
X0081756Y0177200D01*
X0083153Y0177779D01*
X0084221Y0178847D01*
X0084524Y0179578D02*
X0183707Y0179578D01*
X0184372Y0180777D02*
X0084800Y0180777D01*
X0085086Y0181975D02*
X0185038Y0181975D01*
X0185704Y0183174D02*
X0183548Y0183174D01*
X0184439Y0184372D02*
X0186370Y0184372D01*
X0187036Y0185571D02*
X0184800Y0185571D01*
X0184794Y0186769D02*
X0187702Y0186769D01*
X0188367Y0187968D02*
X0184298Y0187968D01*
X0187306Y0189166D02*
X0189033Y0189166D01*
X0189699Y0190365D02*
X0188200Y0190365D01*
X0188595Y0191563D02*
X0190365Y0191563D01*
X0191031Y0192762D02*
X0189074Y0192762D01*
X0189554Y0193960D02*
X0191697Y0193960D01*
X0192362Y0195159D02*
X0190033Y0195159D01*
X0190512Y0196357D02*
X0193028Y0196357D01*
X0193694Y0197556D02*
X0190992Y0197556D01*
X0191471Y0198754D02*
X0194360Y0198754D01*
X0195026Y0199953D02*
X0191951Y0199953D01*
X0192430Y0201151D02*
X0195692Y0201151D01*
X0196357Y0202350D02*
X0192909Y0202350D01*
X0193389Y0203548D02*
X0197023Y0203548D01*
X0197689Y0204747D02*
X0193868Y0204747D01*
X0194348Y0205945D02*
X0198355Y0205945D01*
X0199021Y0207144D02*
X0194827Y0207144D01*
X0195306Y0208342D02*
X0199687Y0208342D01*
X0200353Y0209541D02*
X0195786Y0209541D01*
X0196265Y0210739D02*
X0201018Y0210739D01*
X0201684Y0211938D02*
X0196745Y0211938D01*
X0198511Y0213137D02*
X0202350Y0213137D01*
X0202577Y0214335D02*
X0199423Y0214335D01*
X0199800Y0215534D02*
X0202200Y0215534D01*
X0202200Y0216732D02*
X0199800Y0216732D01*
X0199931Y0217931D02*
X0202687Y0217931D01*
X0203755Y0219129D02*
X0200730Y0219129D01*
X0201529Y0220328D02*
X0234200Y0220328D01*
X0234200Y0221526D02*
X0202328Y0221526D01*
X0203127Y0222725D02*
X0234200Y0222725D01*
X0234200Y0223923D02*
X0203926Y0223923D01*
X0204725Y0225122D02*
X0234200Y0225122D01*
X0233439Y0226320D02*
X0218038Y0226320D01*
X0217968Y0226250D02*
X0220750Y0229032D01*
X0220750Y0230800D01*
X0216200Y0230800D01*
X0216200Y0231200D01*
X0220750Y0231200D01*
X0220750Y0232968D01*
X0217968Y0235750D01*
X0216200Y0235750D01*
X0216200Y0231200D01*
X0215800Y0231200D01*
X0215800Y0235750D01*
X0214032Y0235750D01*
X0211250Y0232968D01*
X0211250Y0231200D01*
X0215800Y0231200D01*
X0215800Y0230800D01*
X0216200Y0230800D01*
X0216200Y0226250D01*
X0217968Y0226250D01*
X0216200Y0226320D02*
X0215800Y0226320D01*
X0215800Y0226250D02*
X0215800Y0230800D01*
X0211250Y0230800D01*
X0211250Y0229032D01*
X0214032Y0226250D01*
X0215800Y0226250D01*
X0215800Y0227519D02*
X0216200Y0227519D01*
X0216200Y0228717D02*
X0215800Y0228717D01*
X0215800Y0229916D02*
X0216200Y0229916D01*
X0216000Y0231000D02*
X0206000Y0251000D01*
X0206200Y0251200D02*
X0210750Y0251200D01*
X0210750Y0252968D01*
X0207968Y0255750D01*
X0206200Y0255750D01*
X0206200Y0251200D01*
X0206200Y0250800D01*
X0210750Y0250800D01*
X0210750Y0249032D01*
X0207968Y0246250D01*
X0206200Y0246250D01*
X0206200Y0250800D01*
X0205800Y0250800D01*
X0205800Y0246250D01*
X0204032Y0246250D01*
X0201250Y0249032D01*
X0201250Y0250800D01*
X0205800Y0250800D01*
X0205800Y0251200D01*
X0205800Y0255750D01*
X0204032Y0255750D01*
X0201250Y0252968D01*
X0201250Y0251200D01*
X0205800Y0251200D01*
X0206200Y0251200D01*
X0206200Y0251489D02*
X0205800Y0251489D01*
X0205800Y0252687D02*
X0206200Y0252687D01*
X0206200Y0253886D02*
X0205800Y0253886D01*
X0205800Y0255084D02*
X0206200Y0255084D01*
X0208633Y0255084D02*
X0213933Y0255084D01*
X0212734Y0253886D02*
X0209832Y0253886D01*
X0210750Y0252687D02*
X0211650Y0252687D01*
X0211650Y0251489D02*
X0210750Y0251489D01*
X0210750Y0250290D02*
X0211650Y0250290D01*
X0211756Y0249092D02*
X0210750Y0249092D01*
X0209611Y0247893D02*
X0212955Y0247893D01*
X0214153Y0246695D02*
X0208412Y0246695D01*
X0206200Y0246695D02*
X0205800Y0246695D01*
X0205800Y0247893D02*
X0206200Y0247893D01*
X0206200Y0249092D02*
X0205800Y0249092D01*
X0205800Y0250290D02*
X0206200Y0250290D01*
X0203588Y0246695D02*
X0187847Y0246695D01*
X0187802Y0246650D02*
X0190350Y0249198D01*
X0190350Y0252802D01*
X0187802Y0255350D01*
X0184198Y0255350D01*
X0181650Y0252802D01*
X0181650Y0249198D01*
X0184198Y0246650D01*
X0187802Y0246650D01*
X0189045Y0247893D02*
X0202389Y0247893D01*
X0201250Y0249092D02*
X0190244Y0249092D01*
X0190350Y0250290D02*
X0201250Y0250290D01*
X0201250Y0251489D02*
X0190350Y0251489D01*
X0190350Y0252687D02*
X0201250Y0252687D01*
X0202168Y0253886D02*
X0189266Y0253886D01*
X0188067Y0255084D02*
X0203367Y0255084D01*
X0216000Y0251000D02*
X0236000Y0226000D01*
X0236000Y0171000D01*
X0233212Y0173586D02*
X0219305Y0173586D01*
X0219133Y0173241D02*
X0222479Y0179934D01*
X0222800Y0180254D01*
X0222800Y0180575D01*
X0222943Y0180862D01*
X0222800Y0181292D01*
X0222800Y0183826D01*
X0223847Y0182779D01*
X0225244Y0182200D01*
X0226756Y0182200D01*
X0228153Y0182779D01*
X0229221Y0183847D01*
X0229800Y0185244D01*
X0229800Y0186756D01*
X0229221Y0188153D01*
X0228153Y0189221D01*
X0226756Y0189800D01*
X0225244Y0189800D01*
X0223847Y0189221D01*
X0222800Y0188174D01*
X0222800Y0195501D01*
X0222927Y0195713D01*
X0222800Y0196222D01*
X0222800Y0196746D01*
X0222625Y0196920D01*
X0218559Y0213185D01*
X0219221Y0213847D01*
X0219800Y0215244D01*
X0219800Y0216756D01*
X0219221Y0218153D01*
X0218153Y0219221D01*
X0216756Y0219800D01*
X0215244Y0219800D01*
X0213847Y0219221D01*
X0212779Y0218153D01*
X0212200Y0216756D01*
X0212200Y0215244D01*
X0212779Y0213847D01*
X0213847Y0212779D01*
X0215077Y0212269D01*
X0219200Y0195778D01*
X0219200Y0188174D01*
X0218153Y0189221D01*
X0216756Y0189800D01*
X0215244Y0189800D01*
X0213847Y0189221D01*
X0212779Y0188153D01*
X0212200Y0186756D01*
X0212200Y0185244D01*
X0212779Y0183847D01*
X0213847Y0182779D01*
X0215244Y0182200D01*
X0216756Y0182200D01*
X0218153Y0182779D01*
X0219200Y0183826D01*
X0219200Y0181425D01*
X0215888Y0174800D01*
X0214426Y0174800D01*
X0212426Y0172800D01*
X0204574Y0172800D01*
X0202574Y0174800D01*
X0199426Y0174800D01*
X0197200Y0172574D01*
X0197200Y0169426D01*
X0199426Y0167200D01*
X0202574Y0167200D01*
X0204574Y0169200D01*
X0212426Y0169200D01*
X0214426Y0167200D01*
X0217574Y0167200D01*
X0219800Y0169426D01*
X0219800Y0172574D01*
X0219133Y0173241D01*
X0219800Y0172387D02*
X0232200Y0172387D01*
X0232200Y0171189D02*
X0219800Y0171189D01*
X0219800Y0169990D02*
X0232200Y0169990D01*
X0232834Y0168792D02*
X0219166Y0168792D01*
X0217967Y0167593D02*
X0234033Y0167593D01*
X0234200Y0174784D02*
X0219905Y0174784D01*
X0220504Y0175983D02*
X0234200Y0175983D01*
X0234200Y0177181D02*
X0221103Y0177181D01*
X0221702Y0178380D02*
X0234200Y0178380D01*
X0234200Y0179578D02*
X0222302Y0179578D01*
X0222901Y0180777D02*
X0234200Y0180777D01*
X0234200Y0181975D02*
X0222800Y0181975D01*
X0222800Y0183174D02*
X0223452Y0183174D01*
X0221000Y0181000D02*
X0216000Y0171000D01*
X0201000Y0171000D01*
X0203788Y0173586D02*
X0213212Y0173586D01*
X0214410Y0174784D02*
X0202590Y0174784D01*
X0199410Y0174784D02*
X0185161Y0174784D01*
X0184496Y0173586D02*
X0198212Y0173586D01*
X0197200Y0172387D02*
X0184800Y0172387D01*
X0184800Y0171189D02*
X0197200Y0171189D01*
X0197200Y0169990D02*
X0184800Y0169990D01*
X0184166Y0168792D02*
X0197834Y0168792D01*
X0199033Y0167593D02*
X0182967Y0167593D01*
X0181000Y0171000D02*
X0206000Y0216000D01*
X0209423Y0214335D02*
X0212577Y0214335D01*
X0212200Y0215534D02*
X0209800Y0215534D01*
X0209800Y0216732D02*
X0212200Y0216732D01*
X0212687Y0217931D02*
X0209313Y0217931D01*
X0208245Y0219129D02*
X0213755Y0219129D01*
X0216000Y0216000D02*
X0221000Y0196000D01*
X0221000Y0181000D01*
X0219200Y0181975D02*
X0189156Y0181975D01*
X0188491Y0180777D02*
X0218876Y0180777D01*
X0218277Y0179578D02*
X0187825Y0179578D01*
X0187159Y0178380D02*
X0217677Y0178380D01*
X0217078Y0177181D02*
X0186493Y0177181D01*
X0185827Y0175983D02*
X0216479Y0175983D01*
X0218548Y0183174D02*
X0219200Y0183174D01*
X0213452Y0183174D02*
X0208548Y0183174D01*
X0208153Y0182779D02*
X0209221Y0183847D01*
X0209800Y0185244D01*
X0209800Y0186756D01*
X0209221Y0188153D01*
X0208153Y0189221D01*
X0206756Y0189800D01*
X0205244Y0189800D01*
X0203847Y0189221D01*
X0202779Y0188153D01*
X0202200Y0186756D01*
X0202200Y0185244D01*
X0202779Y0183847D01*
X0203847Y0182779D01*
X0205244Y0182200D01*
X0206756Y0182200D01*
X0208153Y0182779D01*
X0209439Y0184372D02*
X0212561Y0184372D01*
X0212200Y0185571D02*
X0209800Y0185571D01*
X0209794Y0186769D02*
X0212206Y0186769D01*
X0212702Y0187968D02*
X0209298Y0187968D01*
X0208208Y0189166D02*
X0213792Y0189166D01*
X0218208Y0189166D02*
X0219200Y0189166D01*
X0219200Y0190365D02*
X0193817Y0190365D01*
X0193847Y0189221D02*
X0192779Y0188153D01*
X0192200Y0186756D01*
X0192200Y0185244D01*
X0192779Y0183847D01*
X0193847Y0182779D01*
X0195244Y0182200D01*
X0196756Y0182200D01*
X0198153Y0182779D01*
X0199221Y0183847D01*
X0199800Y0185244D01*
X0199800Y0186756D01*
X0199221Y0188153D01*
X0198153Y0189221D01*
X0196756Y0189800D01*
X0195244Y0189800D01*
X0193847Y0189221D01*
X0193792Y0189166D02*
X0193151Y0189166D01*
X0192702Y0187968D02*
X0192486Y0187968D01*
X0192206Y0186769D02*
X0191820Y0186769D01*
X0192200Y0185571D02*
X0191154Y0185571D01*
X0190488Y0184372D02*
X0192561Y0184372D01*
X0193452Y0183174D02*
X0189822Y0183174D01*
X0178452Y0183174D02*
X0153548Y0183174D01*
X0154439Y0184372D02*
X0177561Y0184372D01*
X0177200Y0185571D02*
X0156669Y0185571D01*
X0160265Y0186769D02*
X0177206Y0186769D01*
X0177702Y0187968D02*
X0163860Y0187968D01*
X0160733Y0191563D02*
X0093200Y0191563D01*
X0093200Y0190365D02*
X0157137Y0190365D01*
X0153542Y0189166D02*
X0153208Y0189166D01*
X0151756Y0192200D02*
X0150244Y0192200D01*
X0148847Y0192779D01*
X0147779Y0193847D01*
X0147200Y0195244D01*
X0147200Y0196756D01*
X0147779Y0198153D01*
X0148847Y0199221D01*
X0150244Y0199800D01*
X0151756Y0199800D01*
X0153153Y0199221D01*
X0154221Y0198153D01*
X0154800Y0196756D01*
X0154800Y0195244D01*
X0154221Y0193847D01*
X0153153Y0192779D01*
X0151756Y0192200D01*
X0153112Y0192762D02*
X0164328Y0192762D01*
X0154765Y0195159D02*
X0177235Y0195159D01*
X0177200Y0196357D02*
X0154800Y0196357D01*
X0154469Y0197556D02*
X0177296Y0197556D01*
X0176268Y0198754D02*
X0153620Y0198754D01*
X0152118Y0202350D02*
X0173186Y0202350D01*
X0172159Y0203548D02*
X0153922Y0203548D01*
X0154221Y0203847D02*
X0154800Y0205244D01*
X0154800Y0206756D01*
X0154221Y0208153D01*
X0153153Y0209221D01*
X0151756Y0209800D01*
X0150316Y0209800D01*
X0135085Y0229304D01*
X0135319Y0229554D01*
X0135220Y0232700D01*
X0132925Y0234855D01*
X0129779Y0234756D01*
X0127624Y0232461D01*
X0127722Y0229315D01*
X0130017Y0227160D01*
X0132140Y0227227D01*
X0147521Y0207531D01*
X0147200Y0206756D01*
X0147200Y0205244D01*
X0147779Y0203847D01*
X0148847Y0202779D01*
X0150244Y0202200D01*
X0151756Y0202200D01*
X0153153Y0202779D01*
X0154221Y0203847D01*
X0154594Y0204747D02*
X0171132Y0204747D01*
X0170105Y0205945D02*
X0154800Y0205945D01*
X0154639Y0207144D02*
X0169077Y0207144D01*
X0168050Y0208342D02*
X0154032Y0208342D01*
X0152381Y0209541D02*
X0167023Y0209541D01*
X0165995Y0210739D02*
X0149583Y0210739D01*
X0148647Y0211938D02*
X0164968Y0211938D01*
X0163941Y0213137D02*
X0153511Y0213137D01*
X0153153Y0212779D02*
X0154221Y0213847D01*
X0154800Y0215244D01*
X0154800Y0216756D01*
X0154221Y0218153D01*
X0153153Y0219221D01*
X0151756Y0219800D01*
X0150244Y0219800D01*
X0148847Y0219221D01*
X0147779Y0218153D01*
X0147200Y0216756D01*
X0147200Y0215244D01*
X0147779Y0213847D01*
X0148847Y0212779D01*
X0150244Y0212200D01*
X0151756Y0212200D01*
X0153153Y0212779D01*
X0154423Y0214335D02*
X0162914Y0214335D01*
X0161886Y0215534D02*
X0154800Y0215534D01*
X0154800Y0216732D02*
X0160859Y0216732D01*
X0159832Y0217931D02*
X0154313Y0217931D01*
X0153245Y0219129D02*
X0158804Y0219129D01*
X0157777Y0220328D02*
X0142095Y0220328D01*
X0141159Y0221526D02*
X0156750Y0221526D01*
X0155722Y0222725D02*
X0140223Y0222725D01*
X0139287Y0223923D02*
X0154695Y0223923D01*
X0153668Y0225122D02*
X0138351Y0225122D01*
X0137415Y0226320D02*
X0152641Y0226320D01*
X0155327Y0228717D02*
X0172131Y0228717D01*
X0171650Y0229198D02*
X0173800Y0227048D01*
X0173800Y0210089D01*
X0175089Y0208800D01*
X0177200Y0206689D01*
X0177200Y0205244D01*
X0177779Y0203847D01*
X0178847Y0202779D01*
X0180244Y0202200D01*
X0181756Y0202200D01*
X0183153Y0202779D01*
X0184221Y0203847D01*
X0184800Y0205244D01*
X0184800Y0206756D01*
X0184221Y0208153D01*
X0183153Y0209221D01*
X0181756Y0209800D01*
X0180311Y0209800D01*
X0178200Y0211911D01*
X0178200Y0213426D01*
X0178847Y0212779D01*
X0180244Y0212200D01*
X0181756Y0212200D01*
X0183153Y0212779D01*
X0184221Y0213847D01*
X0184800Y0215244D01*
X0184800Y0216756D01*
X0184221Y0218153D01*
X0183153Y0219221D01*
X0181756Y0219800D01*
X0180244Y0219800D01*
X0178847Y0219221D01*
X0178200Y0218574D01*
X0178200Y0227048D01*
X0180350Y0229198D01*
X0180350Y0232802D01*
X0177802Y0235350D01*
X0174198Y0235350D01*
X0171650Y0232802D01*
X0171650Y0229198D01*
X0171650Y0229916D02*
X0154800Y0229916D01*
X0154800Y0231114D02*
X0171650Y0231114D01*
X0171650Y0232313D02*
X0155522Y0232313D01*
X0157020Y0233511D02*
X0172359Y0233511D01*
X0173558Y0234710D02*
X0158519Y0234710D01*
X0160017Y0235908D02*
X0225768Y0235908D01*
X0224809Y0237107D02*
X0161515Y0237107D01*
X0163013Y0238305D02*
X0223851Y0238305D01*
X0222892Y0239504D02*
X0164511Y0239504D01*
X0166009Y0240702D02*
X0221933Y0240702D01*
X0220974Y0241901D02*
X0167507Y0241901D01*
X0169005Y0243099D02*
X0220015Y0243099D01*
X0219057Y0244298D02*
X0170504Y0244298D01*
X0172002Y0245496D02*
X0218098Y0245496D01*
X0219008Y0234710D02*
X0226727Y0234710D01*
X0227686Y0233511D02*
X0220206Y0233511D01*
X0220750Y0232313D02*
X0228645Y0232313D01*
X0229604Y0231114D02*
X0216200Y0231114D01*
X0215800Y0231114D02*
X0210350Y0231114D01*
X0210350Y0229916D02*
X0211250Y0229916D01*
X0211565Y0228717D02*
X0209869Y0228717D01*
X0208670Y0227519D02*
X0212764Y0227519D01*
X0213962Y0226320D02*
X0205524Y0226320D01*
X0201834Y0228717D02*
X0190435Y0228717D01*
X0190750Y0229032D02*
X0190750Y0230800D01*
X0186200Y0230800D01*
X0186200Y0231200D01*
X0190750Y0231200D01*
X0190750Y0232968D01*
X0187968Y0235750D01*
X0186200Y0235750D01*
X0186200Y0231200D01*
X0185800Y0231200D01*
X0185800Y0235750D01*
X0184032Y0235750D01*
X0181250Y0232968D01*
X0181250Y0231200D01*
X0185800Y0231200D01*
X0185800Y0230800D01*
X0186200Y0230800D01*
X0186200Y0226250D01*
X0187968Y0226250D01*
X0190750Y0229032D01*
X0190750Y0229916D02*
X0201650Y0229916D01*
X0201650Y0231114D02*
X0186200Y0231114D01*
X0185800Y0231114D02*
X0180350Y0231114D01*
X0181250Y0230800D02*
X0181250Y0229032D01*
X0184032Y0226250D01*
X0185800Y0226250D01*
X0185800Y0230800D01*
X0181250Y0230800D01*
X0181250Y0229916D02*
X0180350Y0229916D01*
X0179869Y0228717D02*
X0181565Y0228717D01*
X0182764Y0227519D02*
X0178670Y0227519D01*
X0178200Y0226320D02*
X0183962Y0226320D01*
X0185800Y0226320D02*
X0186200Y0226320D01*
X0186200Y0227519D02*
X0185800Y0227519D01*
X0185800Y0228717D02*
X0186200Y0228717D01*
X0186200Y0229916D02*
X0185800Y0229916D01*
X0185800Y0232313D02*
X0186200Y0232313D01*
X0186200Y0233511D02*
X0185800Y0233511D01*
X0185800Y0234710D02*
X0186200Y0234710D01*
X0189008Y0234710D02*
X0203558Y0234710D01*
X0202359Y0233511D02*
X0190206Y0233511D01*
X0190750Y0232313D02*
X0201650Y0232313D01*
X0201035Y0227519D02*
X0189236Y0227519D01*
X0188038Y0226320D02*
X0200236Y0226320D01*
X0199437Y0225122D02*
X0178200Y0225122D01*
X0178200Y0223923D02*
X0198638Y0223923D01*
X0197839Y0222725D02*
X0178200Y0222725D01*
X0178200Y0221526D02*
X0197040Y0221526D01*
X0196241Y0220328D02*
X0178200Y0220328D01*
X0178200Y0219129D02*
X0178755Y0219129D01*
X0183245Y0219129D02*
X0193755Y0219129D01*
X0192687Y0217931D02*
X0184313Y0217931D01*
X0184800Y0216732D02*
X0192200Y0216732D01*
X0192200Y0215534D02*
X0184800Y0215534D01*
X0184423Y0214335D02*
X0192577Y0214335D01*
X0192485Y0213137D02*
X0183511Y0213137D01*
X0182381Y0209541D02*
X0191047Y0209541D01*
X0191526Y0210739D02*
X0179372Y0210739D01*
X0178200Y0211938D02*
X0192006Y0211938D01*
X0190568Y0208342D02*
X0184032Y0208342D01*
X0184639Y0207144D02*
X0190088Y0207144D01*
X0189609Y0205945D02*
X0184800Y0205945D01*
X0184594Y0204747D02*
X0189129Y0204747D01*
X0188650Y0203548D02*
X0183922Y0203548D01*
X0182118Y0202350D02*
X0188170Y0202350D01*
X0187691Y0201151D02*
X0178955Y0201151D01*
X0179882Y0202350D02*
X0177928Y0202350D01*
X0178078Y0203548D02*
X0176901Y0203548D01*
X0177406Y0204747D02*
X0175873Y0204747D01*
X0174846Y0205945D02*
X0177200Y0205945D01*
X0176745Y0207144D02*
X0173819Y0207144D01*
X0172791Y0208342D02*
X0175546Y0208342D01*
X0175089Y0208800D02*
X0175089Y0208800D01*
X0174348Y0209541D02*
X0171764Y0209541D01*
X0170737Y0210739D02*
X0173800Y0210739D01*
X0173800Y0211938D02*
X0169710Y0211938D01*
X0168682Y0213137D02*
X0173800Y0213137D01*
X0173800Y0214335D02*
X0167655Y0214335D01*
X0166628Y0215534D02*
X0173800Y0215534D01*
X0173800Y0216732D02*
X0165600Y0216732D01*
X0164573Y0217931D02*
X0173800Y0217931D01*
X0173800Y0219129D02*
X0163546Y0219129D01*
X0162519Y0220328D02*
X0173800Y0220328D01*
X0173800Y0221526D02*
X0161491Y0221526D01*
X0160464Y0222725D02*
X0173800Y0222725D01*
X0173800Y0223923D02*
X0159437Y0223923D01*
X0158409Y0225122D02*
X0173800Y0225122D01*
X0173800Y0226320D02*
X0157382Y0226320D01*
X0156355Y0227519D02*
X0173330Y0227519D01*
X0180350Y0232313D02*
X0181250Y0232313D01*
X0181794Y0233511D02*
X0179641Y0233511D01*
X0178442Y0234710D02*
X0182992Y0234710D01*
X0184153Y0246695D02*
X0177847Y0246695D01*
X0179045Y0247893D02*
X0182955Y0247893D01*
X0181756Y0249092D02*
X0180244Y0249092D01*
X0180350Y0250290D02*
X0181650Y0250290D01*
X0181650Y0251489D02*
X0180350Y0251489D01*
X0180350Y0252687D02*
X0181650Y0252687D01*
X0182734Y0253886D02*
X0179266Y0253886D01*
X0178067Y0255084D02*
X0183933Y0255084D01*
X0176000Y0251000D02*
X0151000Y0231000D01*
X0181000Y0196000D01*
X0183620Y0198754D02*
X0186732Y0198754D01*
X0186253Y0197556D02*
X0184469Y0197556D01*
X0184800Y0196357D02*
X0185773Y0196357D01*
X0185294Y0195159D02*
X0184765Y0195159D01*
X0184815Y0193960D02*
X0184268Y0193960D01*
X0177732Y0193960D02*
X0154268Y0193960D01*
X0148888Y0192762D02*
X0128212Y0192762D01*
X0129368Y0193960D02*
X0147732Y0193960D01*
X0147235Y0195159D02*
X0129865Y0195159D01*
X0129900Y0196357D02*
X0147200Y0196357D01*
X0147531Y0197556D02*
X0129569Y0197556D01*
X0128720Y0198754D02*
X0148380Y0198754D01*
X0149882Y0202350D02*
X0123768Y0202350D01*
X0123468Y0203548D02*
X0148078Y0203548D01*
X0147406Y0204747D02*
X0123169Y0204747D01*
X0122869Y0205945D02*
X0147200Y0205945D01*
X0147361Y0207144D02*
X0122569Y0207144D01*
X0121602Y0208342D02*
X0146887Y0208342D01*
X0145951Y0209541D02*
X0120803Y0209541D01*
X0120004Y0210739D02*
X0145015Y0210739D01*
X0144079Y0211938D02*
X0119205Y0211938D01*
X0115677Y0210739D02*
X0093200Y0210739D01*
X0093200Y0209541D02*
X0109519Y0209541D01*
X0107868Y0208342D02*
X0093200Y0208342D01*
X0093200Y0207144D02*
X0107261Y0207144D01*
X0107100Y0205945D02*
X0093200Y0205945D01*
X0093200Y0204747D02*
X0107306Y0204747D01*
X0107978Y0203548D02*
X0093200Y0203548D01*
X0093200Y0202350D02*
X0109782Y0202350D01*
X0117218Y0202350D02*
X0120057Y0202350D01*
X0119758Y0203548D02*
X0119022Y0203548D01*
X0120357Y0201151D02*
X0093200Y0201151D01*
X0093200Y0199953D02*
X0120656Y0199953D01*
X0118280Y0198754D02*
X0093200Y0198754D01*
X0093200Y0197556D02*
X0117431Y0197556D01*
X0117100Y0196357D02*
X0093200Y0196357D01*
X0093200Y0195159D02*
X0117135Y0195159D01*
X0117632Y0193960D02*
X0093200Y0193960D01*
X0093200Y0192762D02*
X0118788Y0192762D01*
X0123500Y0196000D02*
X0121000Y0206000D01*
X0111000Y0221000D01*
X0111000Y0231000D01*
X0066000Y0241000D01*
X0061000Y0231000D01*
X0062525Y0227519D02*
X0069475Y0227519D01*
X0068847Y0227779D02*
X0070244Y0227200D01*
X0071756Y0227200D01*
X0073153Y0227779D01*
X0074221Y0228847D01*
X0074800Y0230244D01*
X0074800Y0231756D01*
X0074221Y0233153D01*
X0073153Y0234221D01*
X0071756Y0234800D01*
X0070244Y0234800D01*
X0068847Y0234221D01*
X0067779Y0233153D01*
X0067200Y0231756D01*
X0067200Y0230244D01*
X0067779Y0228847D01*
X0068847Y0227779D01*
X0067909Y0228717D02*
X0064091Y0228717D01*
X0064664Y0229916D02*
X0067336Y0229916D01*
X0067200Y0231114D02*
X0064800Y0231114D01*
X0064569Y0232313D02*
X0067431Y0232313D01*
X0068137Y0233511D02*
X0064268Y0233511D01*
X0064867Y0234710D02*
X0070026Y0234710D01*
X0071974Y0234710D02*
X0080026Y0234710D01*
X0080615Y0235908D02*
X0065467Y0235908D01*
X0066066Y0237107D02*
X0075222Y0237107D01*
X0075637Y0240702D02*
X0160246Y0240702D01*
X0158748Y0239504D02*
X0081031Y0239504D01*
X0081974Y0234710D02*
X0086009Y0234710D01*
X0083863Y0233511D02*
X0091402Y0233511D01*
X0091817Y0237107D02*
X0155752Y0237107D01*
X0157250Y0238305D02*
X0086424Y0238305D01*
X0084569Y0232313D02*
X0096795Y0232313D01*
X0097211Y0235908D02*
X0154254Y0235908D01*
X0152756Y0234710D02*
X0152664Y0234710D01*
X0149336Y0234710D02*
X0133080Y0234710D01*
X0134356Y0233511D02*
X0148137Y0233511D01*
X0147200Y0232313D02*
X0135232Y0232313D01*
X0135270Y0231114D02*
X0147200Y0231114D01*
X0147200Y0229916D02*
X0135307Y0229916D01*
X0135543Y0228717D02*
X0147909Y0228717D01*
X0149107Y0227519D02*
X0136479Y0227519D01*
X0133784Y0225122D02*
X0112800Y0225122D01*
X0112800Y0226320D02*
X0132848Y0226320D01*
X0134720Y0223923D02*
X0112800Y0223923D01*
X0112800Y0222725D02*
X0135656Y0222725D01*
X0136591Y0221526D02*
X0112813Y0221526D01*
X0113612Y0220328D02*
X0137527Y0220328D01*
X0138463Y0219129D02*
X0128345Y0219129D01*
X0129413Y0217931D02*
X0139399Y0217931D01*
X0140335Y0216732D02*
X0129900Y0216732D01*
X0129900Y0215534D02*
X0141271Y0215534D01*
X0142207Y0214335D02*
X0129523Y0214335D01*
X0128611Y0213137D02*
X0143143Y0213137D01*
X0145839Y0215534D02*
X0147200Y0215534D01*
X0147200Y0216732D02*
X0144903Y0216732D01*
X0143967Y0217931D02*
X0147687Y0217931D01*
X0148755Y0219129D02*
X0143031Y0219129D01*
X0146775Y0214335D02*
X0147577Y0214335D01*
X0147711Y0213137D02*
X0148489Y0213137D01*
X0151000Y0206000D02*
X0131471Y0231007D01*
X0128610Y0233511D02*
X0113863Y0233511D01*
X0114800Y0232313D02*
X0127628Y0232313D01*
X0127666Y0231114D02*
X0114800Y0231114D01*
X0114800Y0229916D02*
X0127704Y0229916D01*
X0128359Y0228717D02*
X0114091Y0228717D01*
X0112893Y0227519D02*
X0129635Y0227519D01*
X0129735Y0234710D02*
X0112664Y0234710D01*
X0109336Y0234710D02*
X0102604Y0234710D01*
X0102189Y0231114D02*
X0084800Y0231114D01*
X0084664Y0229916D02*
X0107200Y0229916D01*
X0107909Y0228717D02*
X0084091Y0228717D01*
X0083200Y0227519D02*
X0109107Y0227519D01*
X0109200Y0226320D02*
X0083791Y0226320D01*
X0084990Y0225122D02*
X0109200Y0225122D01*
X0109200Y0223923D02*
X0086188Y0223923D01*
X0087387Y0222725D02*
X0109200Y0222725D01*
X0109200Y0221526D02*
X0088585Y0221526D01*
X0089784Y0220328D02*
X0109200Y0220328D01*
X0110084Y0219129D02*
X0090982Y0219129D01*
X0092181Y0217931D02*
X0110883Y0217931D01*
X0111682Y0216732D02*
X0093200Y0216732D01*
X0093200Y0215534D02*
X0112481Y0215534D01*
X0113280Y0214335D02*
X0093200Y0214335D01*
X0093200Y0213137D02*
X0114079Y0213137D01*
X0114878Y0211938D02*
X0093200Y0211938D01*
X0088800Y0211938D02*
X0084725Y0211938D01*
X0084800Y0211756D02*
X0084221Y0213153D01*
X0083153Y0214221D01*
X0081756Y0214800D01*
X0080244Y0214800D01*
X0078847Y0214221D01*
X0077779Y0213153D01*
X0077200Y0211756D01*
X0077200Y0210244D01*
X0077779Y0208847D01*
X0078847Y0207779D01*
X0080244Y0207200D01*
X0081756Y0207200D01*
X0083153Y0207779D01*
X0084221Y0208847D01*
X0084800Y0210244D01*
X0084800Y0211756D01*
X0084800Y0210739D02*
X0088800Y0210739D01*
X0088800Y0209541D02*
X0084509Y0209541D01*
X0083716Y0208342D02*
X0088800Y0208342D01*
X0088800Y0207144D02*
X0036000Y0207144D01*
X0036000Y0208342D02*
X0048284Y0208342D01*
X0047779Y0208847D02*
X0048847Y0207779D01*
X0050244Y0207200D01*
X0051756Y0207200D01*
X0053153Y0207779D01*
X0054221Y0208847D01*
X0054800Y0210244D01*
X0054800Y0211756D01*
X0054221Y0213153D01*
X0053153Y0214221D01*
X0051756Y0214800D01*
X0050244Y0214800D01*
X0048847Y0214221D01*
X0047779Y0213153D01*
X0047200Y0211756D01*
X0047200Y0210244D01*
X0047779Y0208847D01*
X0047491Y0209541D02*
X0036000Y0209541D01*
X0036000Y0210739D02*
X0047200Y0210739D01*
X0047275Y0211938D02*
X0036000Y0211938D01*
X0036000Y0213137D02*
X0038947Y0213137D01*
X0039031Y0213053D02*
X0040309Y0212524D01*
X0041691Y0212524D01*
X0042969Y0213053D01*
X0043947Y0214031D01*
X0044476Y0215309D01*
X0044476Y0216691D01*
X0043947Y0217969D01*
X0042969Y0218947D01*
X0041691Y0219476D01*
X0040309Y0219476D01*
X0039031Y0218947D01*
X0038053Y0217969D01*
X0037524Y0216691D01*
X0037524Y0215309D01*
X0038053Y0214031D01*
X0039031Y0213053D01*
X0037927Y0214335D02*
X0036000Y0214335D01*
X0036000Y0215534D02*
X0037524Y0215534D01*
X0037540Y0216732D02*
X0036000Y0216732D01*
X0036000Y0217931D02*
X0038037Y0217931D01*
X0039470Y0219129D02*
X0036000Y0219129D01*
X0036000Y0220328D02*
X0045543Y0220328D01*
X0047340Y0219129D02*
X0042530Y0219129D01*
X0043963Y0217931D02*
X0049138Y0217931D01*
X0050936Y0216732D02*
X0044460Y0216732D01*
X0044476Y0215534D02*
X0052734Y0215534D01*
X0052878Y0214335D02*
X0054531Y0214335D01*
X0054228Y0213137D02*
X0055752Y0213137D01*
X0054725Y0211938D02*
X0056951Y0211938D01*
X0057200Y0210739D02*
X0054800Y0210739D01*
X0054509Y0209541D02*
X0057491Y0209541D01*
X0058284Y0208342D02*
X0053716Y0208342D01*
X0049122Y0214335D02*
X0044073Y0214335D01*
X0043053Y0213137D02*
X0047772Y0213137D01*
X0053475Y0220328D02*
X0053800Y0220328D01*
X0053800Y0221526D02*
X0051677Y0221526D01*
X0049879Y0222725D02*
X0053800Y0222725D01*
X0053800Y0223923D02*
X0048081Y0223923D01*
X0046284Y0225122D02*
X0053800Y0225122D01*
X0053800Y0226320D02*
X0044486Y0226320D01*
X0044134Y0227519D02*
X0049475Y0227519D01*
X0047909Y0228717D02*
X0043199Y0228717D01*
X0047336Y0229916D02*
X0036000Y0229916D01*
X0036000Y0231114D02*
X0047200Y0231114D01*
X0047431Y0232313D02*
X0036000Y0232313D01*
X0036000Y0233511D02*
X0048137Y0233511D01*
X0050026Y0234710D02*
X0036000Y0234710D01*
X0036000Y0235908D02*
X0053800Y0235908D01*
X0053800Y0234710D02*
X0051974Y0234710D01*
X0053800Y0237107D02*
X0036000Y0237107D01*
X0036000Y0238305D02*
X0053800Y0238305D01*
X0053800Y0239504D02*
X0036000Y0239504D01*
X0036000Y0240702D02*
X0053800Y0240702D01*
X0053800Y0241901D02*
X0036000Y0241901D01*
X0036000Y0243099D02*
X0054988Y0243099D01*
X0056187Y0244298D02*
X0036000Y0244298D01*
X0036000Y0245496D02*
X0057385Y0245496D01*
X0058584Y0246695D02*
X0036000Y0246695D01*
X0036000Y0247893D02*
X0058800Y0247893D01*
X0058800Y0249092D02*
X0036000Y0249092D01*
X0036000Y0250290D02*
X0058800Y0250290D01*
X0058800Y0251489D02*
X0036000Y0251489D01*
X0036000Y0252687D02*
X0058800Y0252687D01*
X0058800Y0253886D02*
X0036000Y0253886D01*
X0036000Y0255084D02*
X0058800Y0255084D01*
X0063200Y0255084D02*
X0173933Y0255084D01*
X0172734Y0253886D02*
X0063200Y0253886D01*
X0063200Y0252687D02*
X0171650Y0252687D01*
X0171650Y0251489D02*
X0063200Y0251489D01*
X0063200Y0250290D02*
X0171650Y0250290D01*
X0170733Y0249092D02*
X0063200Y0249092D01*
X0063200Y0247893D02*
X0169235Y0247893D01*
X0167737Y0246695D02*
X0063200Y0246695D01*
X0063200Y0245496D02*
X0166239Y0245496D01*
X0164741Y0244298D02*
X0062409Y0244298D01*
X0061211Y0243099D02*
X0163243Y0243099D01*
X0161745Y0241901D02*
X0070244Y0241901D01*
X0069829Y0238305D02*
X0066665Y0238305D01*
X0063239Y0239504D02*
X0058200Y0239504D01*
X0058200Y0238305D02*
X0062640Y0238305D01*
X0062041Y0237107D02*
X0058200Y0237107D01*
X0058200Y0235908D02*
X0061442Y0235908D01*
X0060026Y0234710D02*
X0058200Y0234710D01*
X0058814Y0240702D02*
X0063839Y0240702D01*
X0064356Y0241901D02*
X0060012Y0241901D01*
X0073863Y0233511D02*
X0078137Y0233511D01*
X0077431Y0232313D02*
X0074569Y0232313D01*
X0074800Y0231114D02*
X0077200Y0231114D01*
X0077336Y0229916D02*
X0074664Y0229916D01*
X0074091Y0228717D02*
X0077909Y0228717D01*
X0078800Y0227519D02*
X0072525Y0227519D01*
X0078800Y0226320D02*
X0058200Y0226320D01*
X0058200Y0225122D02*
X0078800Y0225122D01*
X0079966Y0223923D02*
X0058200Y0223923D01*
X0058200Y0222725D02*
X0081164Y0222725D01*
X0082363Y0221526D02*
X0058200Y0221526D01*
X0058200Y0220328D02*
X0083561Y0220328D01*
X0084760Y0219129D02*
X0058200Y0219129D01*
X0058200Y0217931D02*
X0085958Y0217931D01*
X0087157Y0216732D02*
X0058379Y0216732D01*
X0059578Y0215534D02*
X0088355Y0215534D01*
X0088800Y0214335D02*
X0082878Y0214335D01*
X0084228Y0213137D02*
X0088800Y0213137D01*
X0088800Y0205945D02*
X0036000Y0205945D01*
X0036000Y0204747D02*
X0088800Y0204747D01*
X0088800Y0203548D02*
X0036000Y0203548D01*
X0036000Y0202350D02*
X0088800Y0202350D01*
X0088800Y0201151D02*
X0036000Y0201151D01*
X0036000Y0199953D02*
X0088800Y0199953D01*
X0088800Y0198754D02*
X0036000Y0198754D01*
X0036000Y0197556D02*
X0088800Y0197556D01*
X0088800Y0196357D02*
X0036000Y0196357D01*
X0036000Y0195159D02*
X0088800Y0195159D01*
X0088800Y0193960D02*
X0036000Y0193960D01*
X0036000Y0192762D02*
X0088800Y0192762D01*
X0088800Y0191563D02*
X0036000Y0191563D01*
X0036000Y0190365D02*
X0088800Y0190365D01*
X0088800Y0189166D02*
X0036000Y0189166D01*
X0036000Y0187968D02*
X0084856Y0187968D01*
X0083658Y0186769D02*
X0036000Y0186769D01*
X0036000Y0185571D02*
X0082459Y0185571D01*
X0079211Y0184372D02*
X0072789Y0184372D01*
X0073153Y0184221D02*
X0071756Y0184800D01*
X0070244Y0184800D01*
X0068847Y0184221D01*
X0067779Y0183153D01*
X0067200Y0181756D01*
X0067200Y0180244D01*
X0067779Y0178847D01*
X0068847Y0177779D01*
X0070244Y0177200D01*
X0071756Y0177200D01*
X0073153Y0177779D01*
X0074221Y0178847D01*
X0074800Y0180244D01*
X0074800Y0181756D01*
X0074221Y0183153D01*
X0073153Y0184221D01*
X0074200Y0183174D02*
X0077800Y0183174D01*
X0077291Y0181975D02*
X0074709Y0181975D01*
X0074800Y0180777D02*
X0077200Y0180777D01*
X0077476Y0179578D02*
X0074524Y0179578D01*
X0073754Y0178380D02*
X0078246Y0178380D01*
X0086285Y0183174D02*
X0148452Y0183174D01*
X0148792Y0189166D02*
X0093200Y0189166D01*
X0078284Y0208342D02*
X0073716Y0208342D01*
X0074221Y0208847D02*
X0074800Y0210244D01*
X0074800Y0211756D01*
X0074221Y0213153D01*
X0073153Y0214221D01*
X0071756Y0214800D01*
X0070244Y0214800D01*
X0068847Y0214221D01*
X0067779Y0213153D01*
X0067200Y0211756D01*
X0067200Y0210244D01*
X0067779Y0208847D01*
X0068847Y0207779D01*
X0070244Y0207200D01*
X0071756Y0207200D01*
X0073153Y0207779D01*
X0074221Y0208847D01*
X0074509Y0209541D02*
X0077491Y0209541D01*
X0077200Y0210739D02*
X0074800Y0210739D01*
X0074725Y0211938D02*
X0077275Y0211938D01*
X0077772Y0213137D02*
X0074228Y0213137D01*
X0072878Y0214335D02*
X0079122Y0214335D01*
X0069122Y0214335D02*
X0062878Y0214335D01*
X0064228Y0213137D02*
X0067772Y0213137D01*
X0067275Y0211938D02*
X0064725Y0211938D01*
X0064800Y0210739D02*
X0067200Y0210739D01*
X0067491Y0209541D02*
X0064509Y0209541D01*
X0063716Y0208342D02*
X0068284Y0208342D01*
X0059475Y0227519D02*
X0058200Y0227519D01*
X0053800Y0227519D02*
X0052525Y0227519D01*
X0043745Y0221526D02*
X0036000Y0221526D01*
X0036000Y0222725D02*
X0039823Y0222725D01*
X0038161Y0223923D02*
X0036000Y0223923D01*
X0036000Y0225122D02*
X0037601Y0225122D01*
X0037524Y0226320D02*
X0036000Y0226320D01*
X0036000Y0227519D02*
X0037866Y0227519D01*
X0038801Y0228717D02*
X0036000Y0228717D01*
X0072435Y0257481D02*
X0079565Y0257481D01*
X0077946Y0258680D02*
X0074054Y0258680D01*
X0074649Y0259878D02*
X0077351Y0259878D01*
X0077200Y0261077D02*
X0074800Y0261077D01*
X0074821Y0262275D02*
X0077415Y0262275D01*
X0078100Y0263474D02*
X0076020Y0263474D01*
X0076000Y0266000D02*
X0071000Y0261000D01*
X0107997Y0233511D02*
X0108137Y0233511D01*
X0114411Y0219129D02*
X0118655Y0219129D01*
X0117587Y0217931D02*
X0115210Y0217931D01*
X0116009Y0216732D02*
X0117100Y0216732D01*
X0117100Y0215534D02*
X0116808Y0215534D01*
X0124068Y0201151D02*
X0174214Y0201151D01*
X0175241Y0199953D02*
X0124367Y0199953D01*
X0119166Y0168792D02*
X0132834Y0168792D01*
X0134033Y0167593D02*
X0117967Y0167593D01*
X0118751Y0143623D02*
X0133249Y0143623D01*
X0132200Y0142574D02*
X0134426Y0144800D01*
X0137574Y0144800D01*
X0139574Y0142800D01*
X0152426Y0142800D01*
X0154426Y0144800D01*
X0157574Y0144800D01*
X0159800Y0142574D01*
X0159800Y0139426D01*
X0157574Y0137200D01*
X0154426Y0137200D01*
X0152426Y0139200D01*
X0139574Y0139200D01*
X0137574Y0137200D01*
X0134426Y0137200D01*
X0132200Y0139426D01*
X0132200Y0142574D01*
X0132200Y0142424D02*
X0119800Y0142424D01*
X0119800Y0141226D02*
X0132200Y0141226D01*
X0132200Y0140027D02*
X0119800Y0140027D01*
X0119203Y0138829D02*
X0132797Y0138829D01*
X0133996Y0137630D02*
X0118004Y0137630D01*
X0116000Y0141000D02*
X0096000Y0141000D01*
X0086000Y0141000D01*
X0061000Y0166000D01*
X0061000Y0181000D01*
X0064524Y0179578D02*
X0067476Y0179578D01*
X0067200Y0180777D02*
X0064800Y0180777D01*
X0064709Y0181975D02*
X0067291Y0181975D01*
X0067800Y0183174D02*
X0064200Y0183174D01*
X0062789Y0184372D02*
X0069211Y0184372D01*
X0068246Y0178380D02*
X0063754Y0178380D01*
X0059200Y0177181D02*
X0036000Y0177181D01*
X0036000Y0175983D02*
X0059200Y0175983D01*
X0059200Y0174784D02*
X0036000Y0174784D01*
X0036000Y0173586D02*
X0059200Y0173586D01*
X0059200Y0172387D02*
X0036000Y0172387D01*
X0036000Y0171189D02*
X0059200Y0171189D01*
X0059200Y0169990D02*
X0036000Y0169990D01*
X0036000Y0168792D02*
X0059200Y0168792D01*
X0059200Y0167593D02*
X0036000Y0167593D01*
X0036000Y0166395D02*
X0059200Y0166395D01*
X0059258Y0165196D02*
X0036000Y0165196D01*
X0036000Y0163998D02*
X0060457Y0163998D01*
X0061655Y0162799D02*
X0036000Y0162799D01*
X0036000Y0161601D02*
X0062854Y0161601D01*
X0064052Y0160402D02*
X0036000Y0160402D01*
X0036000Y0159203D02*
X0065251Y0159203D01*
X0066449Y0158005D02*
X0036000Y0158005D01*
X0036000Y0156806D02*
X0067648Y0156806D01*
X0068846Y0155608D02*
X0036000Y0155608D01*
X0036000Y0154409D02*
X0070045Y0154409D01*
X0071243Y0153211D02*
X0036000Y0153211D01*
X0036000Y0152012D02*
X0072442Y0152012D01*
X0073640Y0150814D02*
X0036000Y0150814D01*
X0036000Y0149615D02*
X0074839Y0149615D01*
X0076038Y0148417D02*
X0036000Y0148417D01*
X0036000Y0147218D02*
X0077236Y0147218D01*
X0078435Y0146020D02*
X0036000Y0146020D01*
X0036000Y0144821D02*
X0079633Y0144821D01*
X0080832Y0143623D02*
X0036000Y0143623D01*
X0036000Y0142424D02*
X0082030Y0142424D01*
X0083229Y0141226D02*
X0036000Y0141226D01*
X0036000Y0140027D02*
X0084427Y0140027D01*
X0085923Y0143623D02*
X0093249Y0143623D01*
X0098751Y0143623D02*
X0113249Y0143623D01*
X0112797Y0138829D02*
X0099203Y0138829D01*
X0098004Y0137630D02*
X0113996Y0137630D01*
X0093996Y0137630D02*
X0036000Y0137630D01*
X0036000Y0136432D02*
X0246000Y0136432D01*
X0246000Y0137630D02*
X0238004Y0137630D01*
X0237574Y0137200D02*
X0239800Y0139426D01*
X0239800Y0142574D01*
X0237574Y0144800D01*
X0234426Y0144800D01*
X0232426Y0142800D01*
X0219574Y0142800D01*
X0217574Y0144800D01*
X0214426Y0144800D01*
X0212200Y0142574D01*
X0212200Y0139426D01*
X0214426Y0137200D01*
X0217574Y0137200D01*
X0219574Y0139200D01*
X0232426Y0139200D01*
X0234426Y0137200D01*
X0237574Y0137200D01*
X0239203Y0138829D02*
X0246000Y0138829D01*
X0246000Y0140027D02*
X0239800Y0140027D01*
X0239800Y0141226D02*
X0246000Y0141226D01*
X0246000Y0142424D02*
X0239800Y0142424D01*
X0238751Y0143623D02*
X0246000Y0143623D01*
X0246000Y0144821D02*
X0203118Y0144821D01*
X0202740Y0145200D02*
X0201200Y0145200D01*
X0201200Y0141200D01*
X0200800Y0141200D01*
X0200800Y0145200D01*
X0199260Y0145200D01*
X0196800Y0142740D01*
X0196800Y0141200D01*
X0200800Y0141200D01*
X0200800Y0140800D01*
X0196800Y0140800D01*
X0196800Y0139260D01*
X0199260Y0136800D01*
X0200800Y0136800D01*
X0200800Y0140800D01*
X0201200Y0140800D01*
X0201200Y0141200D01*
X0205200Y0141200D01*
X0205200Y0142740D01*
X0202740Y0145200D01*
X0201200Y0144821D02*
X0200800Y0144821D01*
X0200800Y0143623D02*
X0201200Y0143623D01*
X0201200Y0142424D02*
X0200800Y0142424D01*
X0200800Y0141226D02*
X0201200Y0141226D01*
X0201000Y0141000D02*
X0181000Y0141000D01*
X0181200Y0141200D02*
X0180800Y0141200D01*
X0180800Y0145200D01*
X0179260Y0145200D01*
X0176800Y0142740D01*
X0176800Y0141200D01*
X0180800Y0141200D01*
X0180800Y0140800D01*
X0176800Y0140800D01*
X0176800Y0139260D01*
X0179260Y0136800D01*
X0180800Y0136800D01*
X0180800Y0140800D01*
X0181200Y0140800D01*
X0181200Y0141200D01*
X0181200Y0145200D01*
X0182740Y0145200D01*
X0185200Y0142740D01*
X0185200Y0141200D01*
X0181200Y0141200D01*
X0181200Y0141226D02*
X0180800Y0141226D01*
X0181200Y0140800D02*
X0181200Y0136800D01*
X0182740Y0136800D01*
X0185200Y0139260D01*
X0185200Y0140800D01*
X0181200Y0140800D01*
X0181200Y0140027D02*
X0180800Y0140027D01*
X0180800Y0138829D02*
X0181200Y0138829D01*
X0181200Y0137630D02*
X0180800Y0137630D01*
X0178430Y0137630D02*
X0158004Y0137630D01*
X0159203Y0138829D02*
X0177231Y0138829D01*
X0176800Y0140027D02*
X0159800Y0140027D01*
X0159800Y0141226D02*
X0176800Y0141226D01*
X0176800Y0142424D02*
X0159800Y0142424D01*
X0158751Y0143623D02*
X0177683Y0143623D01*
X0178882Y0144821D02*
X0084724Y0144821D01*
X0083526Y0146020D02*
X0246000Y0146020D01*
X0246000Y0147218D02*
X0082327Y0147218D01*
X0081129Y0148417D02*
X0246000Y0148417D01*
X0246000Y0149615D02*
X0079930Y0149615D01*
X0078732Y0150814D02*
X0246000Y0150814D01*
X0246000Y0152012D02*
X0077533Y0152012D01*
X0076335Y0153211D02*
X0246000Y0153211D01*
X0246000Y0154409D02*
X0075136Y0154409D01*
X0073938Y0155608D02*
X0246000Y0155608D01*
X0246000Y0156806D02*
X0072739Y0156806D01*
X0071541Y0158005D02*
X0246000Y0158005D01*
X0246000Y0159203D02*
X0070342Y0159203D01*
X0069144Y0160402D02*
X0246000Y0160402D01*
X0246000Y0161601D02*
X0067945Y0161601D01*
X0066747Y0162799D02*
X0246000Y0162799D01*
X0246000Y0163998D02*
X0065548Y0163998D01*
X0064350Y0165196D02*
X0246000Y0165196D01*
X0234200Y0183174D02*
X0228548Y0183174D01*
X0229439Y0184372D02*
X0234200Y0184372D01*
X0234200Y0185571D02*
X0229800Y0185571D01*
X0229794Y0186769D02*
X0234200Y0186769D01*
X0234200Y0187968D02*
X0229298Y0187968D01*
X0228208Y0189166D02*
X0234200Y0189166D01*
X0234200Y0190365D02*
X0222800Y0190365D01*
X0222800Y0191563D02*
X0234200Y0191563D01*
X0234200Y0192762D02*
X0222800Y0192762D01*
X0222800Y0193960D02*
X0234200Y0193960D01*
X0234200Y0195159D02*
X0222800Y0195159D01*
X0222800Y0196357D02*
X0234200Y0196357D01*
X0234200Y0197556D02*
X0222466Y0197556D01*
X0222167Y0198754D02*
X0234200Y0198754D01*
X0234200Y0199953D02*
X0221867Y0199953D01*
X0221568Y0201151D02*
X0234200Y0201151D01*
X0234200Y0202350D02*
X0221268Y0202350D01*
X0220968Y0203548D02*
X0234200Y0203548D01*
X0234200Y0204747D02*
X0220669Y0204747D01*
X0220369Y0205945D02*
X0234200Y0205945D01*
X0234200Y0207144D02*
X0220069Y0207144D01*
X0219770Y0208342D02*
X0234200Y0208342D01*
X0234200Y0209541D02*
X0219470Y0209541D01*
X0219171Y0210739D02*
X0234200Y0210739D01*
X0234200Y0211938D02*
X0218871Y0211938D01*
X0218571Y0213137D02*
X0223489Y0213137D01*
X0223847Y0212779D02*
X0225244Y0212200D01*
X0226756Y0212200D01*
X0228153Y0212779D01*
X0229221Y0213847D01*
X0229800Y0215244D01*
X0229800Y0216756D01*
X0229221Y0218153D01*
X0228153Y0219221D01*
X0226756Y0219800D01*
X0225244Y0219800D01*
X0223847Y0219221D01*
X0222779Y0218153D01*
X0222200Y0216756D01*
X0222200Y0215244D01*
X0222779Y0213847D01*
X0223847Y0212779D01*
X0222577Y0214335D02*
X0219423Y0214335D01*
X0219800Y0215534D02*
X0222200Y0215534D01*
X0222200Y0216732D02*
X0219800Y0216732D01*
X0219313Y0217931D02*
X0222687Y0217931D01*
X0223755Y0219129D02*
X0218245Y0219129D01*
X0213489Y0213137D02*
X0208511Y0213137D01*
X0205802Y0211938D02*
X0215160Y0211938D01*
X0215460Y0210739D02*
X0205137Y0210739D01*
X0204471Y0209541D02*
X0215759Y0209541D01*
X0216059Y0208342D02*
X0203805Y0208342D01*
X0203139Y0207144D02*
X0216359Y0207144D01*
X0216658Y0205945D02*
X0202473Y0205945D01*
X0201807Y0204747D02*
X0216958Y0204747D01*
X0217257Y0203548D02*
X0201142Y0203548D01*
X0200476Y0202350D02*
X0217557Y0202350D01*
X0217857Y0201151D02*
X0199810Y0201151D01*
X0199144Y0199953D02*
X0218156Y0199953D01*
X0218456Y0198754D02*
X0198478Y0198754D01*
X0197812Y0197556D02*
X0218756Y0197556D01*
X0219055Y0196357D02*
X0197147Y0196357D01*
X0196481Y0195159D02*
X0219200Y0195159D01*
X0219200Y0193960D02*
X0195815Y0193960D01*
X0195149Y0192762D02*
X0219200Y0192762D01*
X0219200Y0191563D02*
X0194483Y0191563D01*
X0198208Y0189166D02*
X0203792Y0189166D01*
X0202702Y0187968D02*
X0199298Y0187968D01*
X0199794Y0186769D02*
X0202206Y0186769D01*
X0202200Y0185571D02*
X0199800Y0185571D01*
X0199439Y0184372D02*
X0202561Y0184372D01*
X0203452Y0183174D02*
X0198548Y0183174D01*
X0204166Y0168792D02*
X0212834Y0168792D01*
X0214033Y0167593D02*
X0202967Y0167593D01*
X0198882Y0144821D02*
X0183118Y0144821D01*
X0184317Y0143623D02*
X0197683Y0143623D01*
X0196800Y0142424D02*
X0185200Y0142424D01*
X0185200Y0141226D02*
X0196800Y0141226D01*
X0196800Y0140027D02*
X0185200Y0140027D01*
X0184768Y0138829D02*
X0197231Y0138829D01*
X0198430Y0137630D02*
X0183570Y0137630D01*
X0181200Y0142424D02*
X0180800Y0142424D01*
X0180800Y0143623D02*
X0181200Y0143623D01*
X0181200Y0144821D02*
X0180800Y0144821D01*
X0200800Y0140027D02*
X0201200Y0140027D01*
X0201200Y0140800D02*
X0201200Y0136800D01*
X0202740Y0136800D01*
X0205200Y0139260D01*
X0205200Y0140800D01*
X0201200Y0140800D01*
X0201200Y0138829D02*
X0200800Y0138829D01*
X0200800Y0137630D02*
X0201200Y0137630D01*
X0203570Y0137630D02*
X0213996Y0137630D01*
X0212797Y0138829D02*
X0204768Y0138829D01*
X0205200Y0140027D02*
X0212200Y0140027D01*
X0212200Y0141226D02*
X0205200Y0141226D01*
X0205200Y0142424D02*
X0212200Y0142424D01*
X0213249Y0143623D02*
X0204317Y0143623D01*
X0216000Y0141000D02*
X0236000Y0141000D01*
X0233249Y0143623D02*
X0218751Y0143623D01*
X0219203Y0138829D02*
X0232797Y0138829D01*
X0233996Y0137630D02*
X0218004Y0137630D01*
X0246000Y0135233D02*
X0036000Y0135233D01*
X0036000Y0134035D02*
X0246000Y0134035D01*
X0246000Y0132836D02*
X0036000Y0132836D01*
X0036000Y0131638D02*
X0246000Y0131638D01*
X0223792Y0189166D02*
X0222800Y0189166D01*
X0228511Y0213137D02*
X0234200Y0213137D01*
X0234200Y0214335D02*
X0229423Y0214335D01*
X0229800Y0215534D02*
X0234200Y0215534D01*
X0234200Y0216732D02*
X0229800Y0216732D01*
X0229313Y0217931D02*
X0234200Y0217931D01*
X0234200Y0219129D02*
X0228245Y0219129D01*
X0232480Y0227519D02*
X0219236Y0227519D01*
X0220435Y0228717D02*
X0231521Y0228717D01*
X0230562Y0229916D02*
X0220750Y0229916D01*
X0216200Y0232313D02*
X0215800Y0232313D01*
X0215800Y0233511D02*
X0216200Y0233511D01*
X0216200Y0234710D02*
X0215800Y0234710D01*
X0212992Y0234710D02*
X0208442Y0234710D01*
X0209641Y0233511D02*
X0211794Y0233511D01*
X0211250Y0232313D02*
X0210350Y0232313D01*
X0178489Y0213137D02*
X0178200Y0213137D01*
X0179983Y0199953D02*
X0187212Y0199953D01*
X0174153Y0246695D02*
X0173500Y0246695D01*
X0059211Y0184372D02*
X0052789Y0184372D01*
X0053153Y0184221D02*
X0051756Y0184800D01*
X0050244Y0184800D01*
X0048847Y0184221D01*
X0047779Y0183153D01*
X0047200Y0181756D01*
X0047200Y0180244D01*
X0047779Y0178847D01*
X0048847Y0177779D01*
X0050244Y0177200D01*
X0051756Y0177200D01*
X0053153Y0177779D01*
X0054221Y0178847D01*
X0054800Y0180244D01*
X0054800Y0181756D01*
X0054221Y0183153D01*
X0053153Y0184221D01*
X0054200Y0183174D02*
X0057800Y0183174D01*
X0057291Y0181975D02*
X0054709Y0181975D01*
X0054800Y0180777D02*
X0057200Y0180777D01*
X0057476Y0179578D02*
X0054524Y0179578D01*
X0053754Y0178380D02*
X0058246Y0178380D01*
X0048246Y0178380D02*
X0036000Y0178380D01*
X0036000Y0179578D02*
X0047476Y0179578D01*
X0047200Y0180777D02*
X0036000Y0180777D01*
X0036000Y0181975D02*
X0047291Y0181975D01*
X0047800Y0183174D02*
X0036000Y0183174D01*
X0036000Y0184372D02*
X0049211Y0184372D01*
X0036000Y0138829D02*
X0092797Y0138829D01*
X0136000Y0141000D02*
X0156000Y0141000D01*
X0153249Y0143623D02*
X0138751Y0143623D01*
X0139203Y0138829D02*
X0152797Y0138829D01*
X0153996Y0137630D02*
X0138004Y0137630D01*
M02*
